<svg xmlns="http://www.w3.org/2000/svg" xmlns:xlink="http://www.w3.org/1999/xlink" width="572" height="436" viewBox="0 0 572 436">
  <defs>
    <clipPath id="clip-path">
      <rect id="Rectangle_2643" data-name="Rectangle 2643" width="572" height="436" transform="translate(615 145)" fill="#fff" stroke="#707070" stroke-width="1"/>
    </clipPath>
    <radialGradient id="radial-gradient" cx="0.5" cy="0.5" r="0.5" gradientUnits="objectBoundingBox">
      <stop offset="0" stop-color="#999"/>
      <stop offset="1" stop-color="#fff"/>
    </radialGradient>
  </defs>
  <g id="Mask_Group_75" data-name="Mask Group 75" transform="translate(-615 -145)" clip-path="url(#clip-path)">
    <g id="Group_6211" data-name="Group 6211" transform="translate(615 83.987)">
      <path id="Path_4724" data-name="Path 4724" d="M198.3,19.018c96.889,75.027,198.3,88.782,198.3,198.3S287.335,534,198.3,415.62,0,326.837,0,217.319,101.412-56.009,198.3,19.018Z" transform="translate(0 221.777) rotate(-34)" fill="#f93d66" opacity="0.1"/>
      <g id="Group_5514" data-name="Group 5514" transform="translate(395.409 15.866)">
        <g id="Path_3676" data-name="Path 3676" transform="translate(0 38.854)">
          <path id="Path_3906" data-name="Path 3906" d="M-92.179,106.588c0-.173-.3-17.479,13.124-35.832,7.88-10.772,18.875-19.8,32.68-26.826,17.24-8.777,38.937-14.449,64.489-16.856C82.805,20.98,125.677,10.646,157.124-6.431c37.412-20.318,57.9-50.834,62.634-93.292l.523.058c-4.755,42.642-25.331,73.29-62.906,93.7C125.863,11.144,82.929,21.5,18.163,27.6-7.31,30-28.936,35.646-46.112,44.386c-13.73,6.986-24.663,15.953-32.5,26.651C-91.946,89.249-91.658,106.4-91.653,106.575Z" transform="translate(92.18 99.723)" fill="url(#radial-gradient)"/>
        </g>
        <g id="Path_3677" data-name="Path 3677" transform="translate(1.808 29.141)">
          <path id="Path_3907" data-name="Path 3907" d="M-88.7,104.159c-.014-.177-1.269-17.941,11.215-36.749C-70.159,56.37-59.6,47.131-46.111,39.949c16.847-8.968,38.345-14.736,63.9-17.144C77.247,17.2,125.664,11.453,162.594-6.97c42.124-21.015,64.259-56.357,69.66-111.224l.524.051C227.357-63.078,205.13-27.6,162.828-6.5,125.818,11.965,77.351,17.721,17.837,23.329c-25.472,2.4-46.9,8.144-63.679,17.073C-59.255,47.538-69.748,56.713-77.03,67.673c-12.4,18.66-11.161,36.268-11.147,36.444Z" transform="translate(88.742 118.194)" fill="url(#radial-gradient)"/>
        </g>
        <g id="Path_3678" data-name="Path 3678" transform="translate(3.52 19.427)">
          <path id="Path_3908" data-name="Path 3908" d="M-85.3,101.73c-.03-.232-2.821-23.46,14.607-45.291,16.957-21.243,46.592-34,88.083-37.9C25.891,17.733,34.436,17,42.7,16.3,144.436,7.619,232.3.123,244.679-136.666l.524.047c-3,33.122-10.382,59.495-22.576,80.627a115.1,115.1,0,0,1-45.22,44.308C141.052,8.435,93.3,12.51,42.745,16.823c-8.263.705-16.807,1.433-25.311,2.235C-23.909,22.953-53.423,35.64-70.287,56.767c-17.289,21.659-14.526,44.666-14.5,44.9Z" transform="translate(85.486 136.666)" fill="url(#radial-gradient)"/>
        </g>
        <g id="Path_3679" data-name="Path 3679" transform="translate(5.087 9.714)">
          <path id="Path_3909" data-name="Path 3909" d="M-82.044,99.3c-.044-.245-4.162-24.721,13.034-47.331,16.1-21.167,44.983-33.853,85.849-37.7,13.967-1.316,28.1-2.195,41.773-3.045,48.714-3.029,94.726-5.891,130.558-27.371,19.177-11.5,33.845-27.355,44.842-48.483,12.261-23.558,19.767-53.163,22.946-90.506l.524.045c-3.185,37.414-10.709,67.083-23,90.7C223.436-43.172,208.7-27.244,189.441-15.7,153.5,5.849,107.425,8.714,58.645,11.747c-13.666.849-27.8,1.728-41.757,3.044-40.714,3.836-69.474,16.452-85.48,37.5-17.058,22.429-12.978,46.678-12.935,46.92Z" transform="translate(82.506 155.138)" fill="url(#radial-gradient)"/>
        </g>
        <g id="Path_3680" data-name="Path 3680" transform="translate(6.504 0)">
          <path id="Path_3910" data-name="Path 3910" d="M-78.911,96.869c-.058-.258-5.575-26.041,11.419-49.433C-52.2,26.385-24.05,13.789,16.173,10c17.1-1.612,34.722-2.219,51.76-2.805,48.639-1.676,94.581-3.26,131.146-26.247,19.624-12.337,34.69-29.729,46.057-53.17,12.724-26.238,20.568-59.4,23.98-101.388l.524.043c-3.417,42.052-11.278,75.277-24.031,101.575C234.2-48.461,219.069-31,199.36-18.608,162.674,4.455,116.664,6.04,67.952,7.719c-17.031.587-34.641,1.194-51.729,2.8-40.065,3.775-68.088,16.3-83.289,37.223C-83.922,70.948-78.455,96.5-78.4,96.754Z" transform="translate(79.811 173.611)" fill="url(#radial-gradient)"/>
        </g>
      </g>
      <g id="Group_6202" data-name="Group 6202" transform="translate(116.798 337.429)">
        <path id="Path_3633" data-name="Path 3633" d="M19.929,13.616a1.5,1.5,0,0,0-.313-.413C18.406,10.742,15.039,3.894,13.064,0L0,4.463c1.785,3.518,4.711,9.456,6.145,12.375-.1.007-.2.017-.3.034-1.854.3-3.153,2.76-3.567,4.394a1.932,1.932,0,0,0,.087,1.5,1.488,1.488,0,0,0,1.2.617,4.413,4.413,0,0,0,3.65-1.9,4.333,4.333,0,0,0,.52-3.839,1.606,1.606,0,0,0-.293-.4c-.927-1.933-3.181-6.627-5.052-10.4l11.444-3.15c1.616,3.239,3.464,6.989,4.514,9.129-.1.007-.2.017-.3.034-1.854.3-3.153,2.76-3.567,4.394a1.933,1.933,0,0,0,.086,1.5,1.49,1.49,0,0,0,1.2.617,4.413,4.413,0,0,0,3.65-1.9A4.323,4.323,0,0,0,19.929,13.616Z" transform="matrix(0.883, 0.469, -0.469, 0.883, 10.978, 0)" fill="#272c32"/>
      </g>
      <g id="Group_6210" data-name="Group 6210" transform="translate(67.253 146.73)">
        <g id="Group_5488" data-name="Group 5488" transform="translate(10.049 0) rotate(25)">
          <path id="Path_3635" data-name="Path 3635" d="M15.03,9.717a5.558,5.558,0,0,0-2.649-3.211C9.341,4.619,3.575,2.163.48,0,1.924,4.5,4.438,12.659,5.632,16.545c-.113-.011-.232-.018-.359-.018-2.217,0-4.191,2.631-4.982,4.459a2.276,2.276,0,0,0-.178,1.76,1.765,1.765,0,0,0,1.281.943A5.21,5.21,0,0,0,6,22.155c.969-1.012,1.763-3.051,1.321-4.379a1.813,1.813,0,0,0-.283-.537c-.675-2.206-2.213-7.224-3.6-11.662,1.2.791,4.84,2.438,6.89,3.4a5.342,5.342,0,0,1,2.809,2.7A3.547,3.547,0,0,1,12.8,15a5.69,5.69,0,0,0,2.093-2.377A3.844,3.844,0,0,0,15.03,9.717Z" transform="translate(0 0)" fill="#f93d66"/>
        </g>
        <path id="Path_3633-2" data-name="Path 3633" d="M19.929,13.616a1.5,1.5,0,0,0-.313-.413C18.406,10.742,15.039,3.894,13.064,0L0,4.463c1.785,3.518,4.711,9.456,6.145,12.375-.1.007-.2.017-.3.034-1.854.3-3.153,2.76-3.567,4.394a1.932,1.932,0,0,0,.087,1.5,1.488,1.488,0,0,0,1.2.617,4.413,4.413,0,0,0,3.65-1.9,4.333,4.333,0,0,0,.52-3.839,1.606,1.606,0,0,0-.293-.4c-.927-1.933-3.181-6.627-5.052-10.4l11.444-3.15c1.616,3.239,3.464,6.989,4.514,9.129-.1.007-.2.017-.3.034-1.854.3-3.153,2.76-3.567,4.394a1.933,1.933,0,0,0,.086,1.5,1.49,1.49,0,0,0,1.2.617,4.413,4.413,0,0,0,3.65-1.9A4.323,4.323,0,0,0,19.929,13.616Z" transform="matrix(0.883, 0.469, -0.469, 0.883, 55.167, 11.375)" fill="#272c32"/>
      </g>
      <g id="Group_5078" data-name="Group 5078" transform="translate(160.866 118.942)">
        <path id="Path_3474" data-name="Path 3474" d="M102.5,118.02l.4-39.488s-.2-6.35,5.557-6.549S206.478,70.2,206.478,70.2s6.992.335,7.392,8.67,1.138,62.171,1.138,62.171S213.618,146,208.458,146c-2.378,0-23.721-1.56-46.044-3.242-.527-.039-1.052,6.655-1.58,6.615-3.18-.24-7.365,4.011-10.517,3.77-.534-.039-.08-11.305-.616-11.346-21.6-1.642-40.857-3.14-40.857-3.14l-2.978-1.191Z" transform="translate(23.054 -15.53)" fill="#fff"/>
        <path id="Path_3475" data-name="Path 3475" d="M105.592,78,141.3,77.05l4.226-3.633-37.272.738S105.3,75.634,105.592,78Z" transform="translate(25.438 -13.036)" fill="#f93d66"/>
        <path id="Path_3476" data-name="Path 3476" d="M144.917,76.736,175.384,76s-.742-2.809-3.255-3.106-25.141,0-25.141,0Z" transform="translate(55.921 -13.546)" fill="#f93d66"/>
        <path id="Path_3477" data-name="Path 3477" d="M114.705,99.11c0-.506.231-.912.516-.912l28.2.449c.284,0,.515.406.515.91h0c0,.5-.231.91-.515.91l-28.2-.447c-.286,0-.516-.406-.516-.91Z" transform="translate(32.514 6.163)" fill="#f93d66"/>
        <path id="Path_3478" data-name="Path 3478" d="M113.467,101.09c0-.5.169-.91.38-.91l20.878.648c.348,0,.38.406.38.91h0c0,.506-.17.912-.38.912L113.847,102c-.211,0-.38-.406-.38-.912Z" transform="translate(31.555 7.699)" fill="#f93d66"/>
        <path id="Path_3479" data-name="Path 3479" d="M133.9,77.256l22.061-.423V89.118H133.9Z" transform="translate(47.386 -10.389)" fill="#f93d66"/>
        <path id="Path_3480" data-name="Path 3480" d="M133.9,85.865h22.061l-.033,13.09L133.9,98.44Z" transform="translate(47.386 -3.392)" fill="#f93d66"/>
        <path id="Path_3481" data-name="Path 3481" d="M133.9,94.99l22.139.664-.222,13.663L133.9,107.85Z" transform="translate(47.386 3.677)" fill="#f93d66"/>
        <path id="Path_3482" data-name="Path 3482" d="M138.014,97.047l8.735,3.8-8.874,3.106Z" transform="translate(50.465 5.271)" fill="#fff"/>
        <path id="Path_3483" data-name="Path 3483" d="M138.064,87.463l8.548,3.718-8.683,3.04Z" transform="translate(50.507 -2.154)" fill="#fff"/>
        <path id="Path_3484" data-name="Path 3484" d="M138.014,78l8.735,3.668-8.874,3Z" transform="translate(50.465 -9.482)" fill="#fff"/>
        <path id="Path_3485" data-name="Path 3485" d="M138.3,86.925l-.113,11.647-15.751.222,12.091-12.127Z" transform="translate(38.505 -2.771)" fill="#f93d66"/>
        <path id="Path_3486" data-name="Path 3486" d="M108.04,77.8l30.763-.887-.808,8L112.48,104.79l-4.914.42Z" transform="translate(26.984 -10.325)" fill="#f93d66"/>
        <path id="Path_3487" data-name="Path 3487" d="M167.62,103.618l12.808-5.239,24.841,2.328s2.912,0,2.912,4.852-.327,37.54-.327,37.54l-11.124,6.709-30.469-3.3-.389-2.328-.389-38.425,2.181-1.438" transform="translate(71.856 6.303)" fill="#fff"/>
        <path id="Path_3488" data-name="Path 3488" d="M46.013,193.774v8.884l12.516,2.623v37.724s-12.345,1.542-13.193,2.446l-.087,9.5s24.729,8.3,42.9,0l-.387-8.537a29.91,29.91,0,0,0-13.809-3.7v-36.7l12.365-3.5.154-7.282A138.775,138.775,0,0,1,46.013,193.774Z" transform="translate(-21.298 80.211)" fill="#ffeaee"/>
        <path id="Path_3489" data-name="Path 3489" d="M110.113,134.852l.88,39,4.18.593,1.3-38.809Z" transform="translate(28.957 34.56)" fill="#272c32"/>
        <path id="Path_3490" data-name="Path 3490" d="M120.058,124.22l-2.42,4.621L93.585,139.817,207,157.665l73.514-17.8-.536-12.008-20.6-1.912-9.141,4.522L225.2,127.156v-5.1l-2.392-.472-.425,1.193-41.818,10.468L150.64,128.62l-31.365-4.734" transform="translate(16.152 24.278)" fill="#ffeaee"/>
        <path id="Path_3491" data-name="Path 3491" d="M118.172,126.3l3.74,1.76,40.263,7.921,40.459-9.106.345-4.582-41.464,10.388L133.791,127.4Z" transform="translate(35.2 24.834)" fill="#f93d66"/>
        <path id="Path_3492" data-name="Path 3492" d="M42.54,175.124s-9.172,3.8-9.672,15.476,17.673,17.95,40.9,18.848,36.088-3.894,41.109-7.486,5.124-12.721,1.15-16.39l-30.334,2.916s-19.141.9-25.418-1.494S50.038,184.42,42.54,175.124Z" transform="translate(-30.897 65.762)" fill="#293f58"/>
        <path id="Path_3493" data-name="Path 3493" d="M140.058,118.3l1.769-1.152s.02.037.131.165h0a3.509,3.509,0,0,0,.511.47h0a3.324,3.324,0,0,0,2.06.687h0a5.123,5.123,0,0,0,1.89-.4h0l.784,1.956a7.161,7.161,0,0,1-2.675.561h0a5.469,5.469,0,0,1-4.472-2.284Z" transform="translate(52.156 20.844)" fill="#272c32"/>
        <path id="Path_3494" data-name="Path 3494" d="M125.694,133.036l.336-2.09,29.753,4.768,40.26-9.942-.527-4.691-32.937-2.1-.289-1.952L197,119.165l-.038,8.439-41.079,10.266-30.185-4.833Z" transform="translate(41.028 20.75)" fill="#272c32"/>
        <path id="Path_3495" data-name="Path 3495" d="M130.651,128.659h0l.288-2.094,20.68,2.867L192.352,118.2l.563,2.035-41.149,11.354-21.115-2.926Z" transform="translate(44.869 21.656)" fill="#272c32"/>
        <path id="Path_3496" data-name="Path 3496" d="M141.927,130.373v-5.06h2.113v5.06Z" transform="translate(53.604 27.17)" fill="#272c32"/>
        <path id="Path_3497" data-name="Path 3497" d="M43.809,205.807c-8.105-3.668-12.065-8.906-12.056-14.517h0c.051-10.858,9.795-16.658,9.891-16.724l.7-.35,1.129,1.853c0,.009-1.395.857-2.2,1.485h0a21.207,21.207,0,0,0-2.974,2.82h0a16.522,16.522,0,0,0-4.29,10.915h0c.007,4.566,3.109,9.055,10.775,12.572h0c7.642,3.489,19.737,5.811,37.05,5.807h0c13.708,0,23.176-1.979,29.088-4.939h0c5.922-2.99,8.254-6.765,8.272-10.714h0c0-2.068-1.388-5.777-2.671-7.933l.185.124.167.069,2.11-.438a17.588,17.588,0,0,1,2.469,8.178h0c.018,4.85-3.07,9.449-9.482,12.622h0c-6.421,3.2-16.2,5.18-30.137,5.186h0c-17.52,0-29.9-2.321-38.028-6.016Z" transform="translate(-31.753 65.058)" fill="#272c32"/>
        <path id="Path_3498" data-name="Path 3498" d="M93.161,138.663l.4-2.078,113.762,18.83,71.762-18.8a14.1,14.1,0,0,0,1.115-5.3,8,8,0,0,0-1.115-4.426l-71.916,17.481-93.686-13.855-.818.051,1.2-2.13,93.242,13.777,72.735-17.733,1.327.142a26.4,26.4,0,0,1,1.129,6.664,30.925,30.925,0,0,1-1.1,6.953l-73.807,19.338L93.161,138.663Z" transform="translate(15.823 26.528)" fill="#272c32"/>
        <path id="Path_3499" data-name="Path 3499" d="M192.817,281.791,191.44,134.112l2.111-.014,1.369,145.578h1.418l2.522-147.511v0l2.111.005-2.525,149.616Z" transform="translate(91.964 32.48)" fill="#272c32"/>
        <path id="Path_3500" data-name="Path 3500" d="M156.523,296.193l-1.844-153.646,2.109-.017,1.829,151.547h1.423l3.335-152.1,2.114.005L162.15,296.193Z" transform="translate(63.484 40.08)" fill="#272c32"/>
        <path id="Path_3501" data-name="Path 3501" d="M112.49,173.908l1.5-38.805,1.884.111L114.6,173.932l-2.114-.024Z" transform="translate(30.798 34.755)" fill="#272c32"/>
        <path id="Path_3502" data-name="Path 3502" d="M109.007,134.617l2.113-.024.795,38.871-2.113.026-.795-38.873Z" transform="translate(28.1 34.36)" fill="#272c32"/>
        <path id="Path_3503" data-name="Path 3503" d="M156.79,148.286v-13.2H158.9v13.2Z" transform="translate(65.12 34.741)" fill="#272c32"/>
        <path id="Path_3504" data-name="Path 3504" d="M139.414,122.162h.005l0,0,0,0Z" transform="translate(51.657 24.729)" fill="#272c32" opacity="0.5"/>
        <path id="Path_3505" data-name="Path 3505" d="M146.584,119.612l.21-2.1.1.01-.2,2.1-.109-.013Z" transform="translate(57.212 21.126)" fill="#272c32"/>
        <path id="Path_3506" data-name="Path 3506" d="M149.821,118.419l-3.118-.308h0Z" transform="translate(57.305 21.591)" fill="#272c32"/>
        <path id="Path_3507" data-name="Path 3507" d="M128.735,122.07l.052-11.038,2.059.309,0,10.729Z" transform="translate(43.384 16.106)" fill="#272c32"/>
        <path id="Path_3508" data-name="Path 3508" d="M134.576,116.4v-5.109h2.111l-.012,3.775-2.1,1.334Z" transform="translate(47.909 16.306)" fill="#272c32"/>
        <path id="Path_3509" data-name="Path 3509" d="M187.247,125.565l19.876,1.552.258-2.1-16.851-1.207-3.283,1.751Z" transform="translate(88.716 26.009)" fill="#272c32"/>
        <path id="Path_3510" data-name="Path 3510" d="M178.231,126.31v-.01l-.024.007Z" transform="translate(81.712 27.935)" fill="#272c32"/>
        <path id="Path_3511" data-name="Path 3511" d="M178.134,126.357l.144-.043-.163-.023Z" transform="translate(81.641 27.928)" fill="#272c32"/>
        <path id="Path_3512" data-name="Path 3512" d="M42.182,185.321c-4.426-2.549-5.511-5.456-5.488-7.344h0a4.781,4.781,0,0,1,.429-2.052h0l2.763-.619c.007,0-.742,1.489-.8,1.707h0a3.553,3.553,0,0,0-.131.964h0c.027,1.29.564,3.4,4.483,5.708h0c3.926,2.291,10.026,4.959,23.37,6.194h0l1.4,1.459c-13.55-1.257-21.6-3.455-26.023-6.016Z" transform="translate(-27.925 65.903)" fill="#272c32"/>
        <path id="Path_3513" data-name="Path 3513" d="M73.816,185.408c6.306-.547,8.991-3.069,10.611-3.945h0c.538-.293.772-.451.772-.453h0v0l1.464,1.381c-.11.075-5.015,3.4-14.022,4.176h0l1.175-1.161Z" transform="translate(-0.075 70.322)" fill="#272c32"/>
        <path id="Path_3514" data-name="Path 3514" d="M158,120.529l4.822-1.39-.046-.989-5.731-.568a4.823,4.823,0,0,1-1.645,1.134l3.187.316-17.763,4.881-2.875-.456,14.514-4.18a3.574,3.574,0,0,1-2.091-.738L134.6,123.085v3.833l6.588.96,1.645-.305-.11-1.477-1.216.353v-1.384Zm-17.778,5.908-4.352-.634V124.43l4.352.692Z" transform="translate(47.926 21.182)" fill="#272c32"/>
        <path id="Path_3515" data-name="Path 3515" d="M36.424,178.065S33.316,190.329,73.2,190.792C73.2,190.792,39.283,190.064,36.424,178.065Z" transform="translate(-28.178 68.04)" fill="#fff"/>
        <path id="Path_3516" data-name="Path 3516" d="M37.919,177.7s-11.44,11.531,1.288,20.445C39.207,198.148,28.736,189.539,37.919,177.7Z" transform="translate(-30.635 67.76)" fill="#fff"/>
        <path id="Path_3517" data-name="Path 3517" d="M87.9,182.9s-5.2,3.881-19.655,4C68.245,186.895,80.489,189.2,87.9,182.9Z" transform="translate(-3.481 71.783)" fill="#fff"/>
        <path id="Path_3518" data-name="Path 3518" d="M88.063,185.8s-.241,9.339-16.917,12.567C71.146,198.369,85.648,194.679,88.063,185.8Z" transform="translate(-1.233 74.034)" fill="#fff"/>
        <path id="Path_3519" data-name="Path 3519" d="M139.192,127.8l-.066-3.168.68-.014.193.65-.193-.65-.68.014-.012-.515,20.534-6.171,7.887.93v3.3l-21.652,6.65-6.691-1.031Zm1.335-1.17,5.255.811,20.4-6.26v-1.1l-6.409-.754-19.276,5.795.032,1.512Z" transform="translate(51.425 21.461)" fill="#272c32"/>
        <path id="Path_3520" data-name="Path 3520" d="M139.558,124.765h0l.253-1.329,5.251,1,20.983-5.9.366,1.3-21.292,5.991-5.565-1.065Z" transform="translate(51.769 21.92)" fill="#272c32"/>
        <path id="Path_3521" data-name="Path 3521" d="M142.295,124.795v-2.541h1.357v2.541Z" transform="translate(53.889 24.8)" fill="#272c32"/>
        <path id="Path_3522" data-name="Path 3522" d="M189.316,104.971c1.574.378,1.707.586,1.878,2.463l.059,35.846,1.943.27-.057-36.127a3.922,3.922,0,0,0-3.541-4.377l-17.536-1.691v1.961Z" transform="translate(76.952 8.61)" fill="#272c32"/>
        <path id="Path_3523" data-name="Path 3523" d="M196.695,146.784l.973,0h-.973a1.053,1.053,0,0,1-1.052,1.044L168.153,144a1.1,1.1,0,0,1-1.18-1.052v-39.33a1.047,1.047,0,0,1,1.049-1.049l7.552,1.04v-1.961l-7.426-1.022a3.02,3.02,0,0,0-3.122,2.992v39.33a2.993,2.993,0,0,0,3,2.99l27.486,3.828h.023a3.013,3.013,0,0,0,3.111-2.983l0-3.482-1.945-.272Z" transform="translate(71.5 8.047)" fill="#272c32"/>
        <path id="Path_3524" data-name="Path 3524" d="M172.91,103.433v-1.96l-1.941-.267v1.961Z" transform="translate(76.105 8.494)" fill="#272c32"/>
        <path id="Path_3525" data-name="Path 3525" d="M200.084,100.228l-24.339-2.249a4.837,4.837,0,0,0-3.6,1.478s3.715.337,3.766.337l23.893,2.359c1.571.38,1.7.589,1.867,2.463l.053,38.787.973.005h-.973a1.027,1.027,0,0,1-.321.747v2.116a2.96,2.96,0,0,0,2.27-2.863l-.05-38.8A3.928,3.928,0,0,0,200.084,100.228Z" transform="translate(77.015 5.993)" fill="#272c32"/>
        <path id="Path_3526" data-name="Path 3526" d="M180.7,98.04a4.486,4.486,0,0,0-2.382.275c-1.53.509-12.382,4.758-12.382,4.758l2.38.783s10.716-4.282,12.148-4.316Z" transform="translate(72.203 5.999)" fill="#272c32"/>
        <path id="Path_3527" data-name="Path 3527" d="M193.313,124.08l-9.232,5.018-1.612,2.673.96-.24,11.314-6.168Z" transform="translate(85.014 26.215)" fill="#272c32"/>
        <path id="Path_3528" data-name="Path 3528" d="M168.227,123.448c.011-6.593,4.664-12.056,10.613-12.072h0c5.94.016,10.6,5.479,10.609,12.072h-.005c-.007,6.593-4.664,12.056-10.6,12.072h0c-5.949-.016-10.6-5.479-10.613-12.072Zm1.438,0c0,5.947,4.178,10.629,9.175,10.636h0c4.984-.007,9.165-4.689,9.172-10.636h0c0-5.947-4.185-10.629-9.168-10.636h0c-5,.007-9.172,4.689-9.175,10.636Z" transform="translate(73.98 16.373)" fill="#272c32"/>
        <path id="Path_3529" data-name="Path 3529" d="M171.62,109.816c.005-2.93,2.046-5.433,4.771-5.449h0c2.73.016,4.769,2.518,4.778,5.449h0c-.009,2.93-2.048,5.429-4.778,5.449h0c-2.724-.02-4.765-2.522-4.771-5.449Zm1.434,0c.005,2.295,1.585,4.009,3.337,4.014h0c1.757-.005,3.335-1.72,3.34-4.014h0c-.005-2.3-1.583-4.007-3.34-4.016h0c-1.752.009-3.331,1.72-3.337,4.016Z" transform="translate(76.609 10.943)" fill="#272c32"/>
        <path id="Path_3530" data-name="Path 3530" d="M182.524,105.141l10.952-5.158.844,1.412-10.526,5.3Z" transform="translate(85.057 7.546)" fill="#272c32"/>
        <path id="Path_3531" data-name="Path 3531" d="M205.284,147.268c-.3,0-.612-.007-.958-.023h0l-96.964-7.365-.075-.02a9.686,9.686,0,0,1-1.633-.6h0a3.5,3.5,0,0,1-2.151-2.293h0l1.84-.305c-.041.112.44.621,1.116.916h0a8.009,8.009,0,0,0,1.2.449h0l96.777,7.353c.293.016.58.023.847.023h0c7.223-.066,7.079-4.873,7.2-5.626h0v-.085h0v-.02h0s-.474-47.961-.476-59.138h0c-.08-8.029-5.134-8.522-7.7-8.654h0a7.358,7.358,0,0,0-1.177.078h0l-.066.011-24.256.2.319-1.9,23.767-.165a10.232,10.232,0,0,1,1.411-.091h0a10.1,10.1,0,0,1,5.883,1.745h0c2.087,1.494,3.706,4.272,3.69,8.774h0c0,11.149.472,59.062.472,59.131h0v.112h0a7.518,7.518,0,0,1-1.3,4.137h0c-1.2,1.78-3.606,3.352-7.7,3.352h-.076Z" transform="translate(23.836 -15.67)" fill="#272c32"/>
        <path id="Path_3532" data-name="Path 3532" d="M197.706,133.168c-.256,0-.516-.007-.786-.021h0c-9.452-.55-87.792-5.447-87.792-5.447h0l.089-1.413c.087,0,78.343,4.895,87.781,5.445h0c.243.012.477.021.708.021h0c5.945-.021,6-4.637,6.079-5.567h0v-.149h0s-.176-26.369-.176-39.68h0c0-2.286,0-4.19.016-5.457h0c0-.075-.007-.147,0-.224h0c-.1-7.04-3.672-7.026-4.566-7.135h0c-.126,0-.169.007-.245.011h0l-23.863.344.115-1.477,23.661-.275a2.3,2.3,0,0,1,.332-.016h0a5.361,5.361,0,0,1,3.509,1.335h0c1.372,1.2,2.476,3.408,2.463,7.213h0c0,.048,0,.089,0,.188h0c-.007,1.308-.012,3.211-.012,5.493h0c0,13.3.177,39.63.177,39.651h0c0,.005,0,.071,0,.177h0a7.67,7.67,0,0,1-1.067,3.874h0c-.976,1.631-2.966,3.109-6.359,3.109h0c-.025,0-.046,0-.067,0Z" transform="translate(28.193 -14.034)" fill="#272c32"/>
        <path id="Path_3533" data-name="Path 3533" d="M102.333,119.749c.087,1.436.286-34.15.286-40.78h0c-.02-3.4,1.315-5.413,2.8-6.394h0a5.984,5.984,0,0,1,3.234-1.026h0L157.813,70.5l-4.7,1.913-44.47,1c-.367.114-4.094-.121-4.156,5.555h0c0,6.654-.227,38.913-.227,38.913h0l-1.924,1.867Z" transform="translate(22.929 -15.296)" fill="#272c32"/>
        <path id="Path_3534" data-name="Path 3534" d="M104.7,114.328c0-.023.114-16.853.114-26.277h0c0-3.479-.016-6.442-.059-7.976h0c0-.108,0-.209,0-.311h0c-.018-2.753,1.138-4.4,2.41-5.186h0a5.636,5.636,0,0,1,2.893-.843h0c.064,0,.1,0,.051,0h0l37.573-.838-3.892,1.459-33.72.788h-.012c-.5.087-3.858-.016-3.89,4.616h0c0,.082,0,.16.005.257h0c.043,1.585.057,4.543.057,8.029h0c0,9.436-.112,26.288-.112,26.288l-.028-.112-1.386.2Z" transform="translate(24.765 -13.435)" fill="#272c32"/>
        <path id="Path_3535" data-name="Path 3535" d="M155.324,142.137l4.291.9,4.293-1.13-3.163,153.4-3.614-.225Z" transform="translate(63.984 40.031)" fill="#272c32"/>
        <path id="Path_3536" data-name="Path 3536" d="M191.985,134.3l7.454-1.808-2.484,147.752h-3.39Z" transform="translate(92.387 32.732)" fill="#272c32"/>
        <path id="Path_3537" data-name="Path 3537" d="M160.568,143.609l-1.807,94.285S159.061,180.66,160.568,143.609Z" transform="translate(66.647 41.345)" fill="#fff"/>
        <path id="Path_3538" data-name="Path 3538" d="M196.382,135.294l-.829,57.381S195.4,153.368,196.382,135.294Z" transform="translate(95.145 34.903)" fill="#fff"/>
        <path id="Path_3539" data-name="Path 3539" d="M135.706,108.915a2.56,2.56,0,1,1-2.561-2.561A2.561,2.561,0,0,1,135.706,108.915Z" transform="translate(44.818 12.482)" fill="#272c32"/>
        <path id="Path_3540" data-name="Path 3540" d="M45.889,203.294,45.3,203.1v-9.113h1.775v7.921A74.531,74.531,0,0,0,67.28,204.76h0a55.909,55.909,0,0,0,18.062-2.817h0l.005-6.572h1.775v7.715l-.571.2a57.353,57.353,0,0,1-19.27,3.127h0a74.51,74.51,0,0,1-21.391-3.124Z" transform="translate(-21.257 80.376)" fill="#272c32"/>
        <path id="Path_3541" data-name="Path 3541" d="M45.211,233.924l-.63-.206V222.681l1.271.476a65.508,65.508,0,0,0,20.624,3.106h0a70.815,70.815,0,0,0,21.537-3.321h0l1.217-.39v11.144l-.591.215a59.286,59.286,0,0,1-20.372,3.34h0a82.54,82.54,0,0,1-23.056-3.326Zm7.163-.06a82.29,82.29,0,0,0,15.893,1.613h0a57.882,57.882,0,0,0,19.109-3.006h0V225a72.785,72.785,0,0,1-20.9,3.037h0a69.97,69.97,0,0,1-20.037-2.809h0v7.205c.981.284,3.067.855,5.935,1.432Z" transform="translate(-21.814 102.506)" fill="#272c32"/>
        <path id="Path_3542" data-name="Path 3542" d="M52.138,243.625V200.354h1.741v43.272Z" transform="translate(-15.96 85.308)" fill="#272c32"/>
        <path id="Path_3543" data-name="Path 3543" d="M61.125,243.881V200.223h1.737v43.658Z" transform="translate(-8.997 85.207)" fill="#272c32"/>
        <path id="Path_3544" data-name="Path 3544" d="M44.706,223.546a43.3,43.3,0,0,1,13.47-2.378h0v1.766a41.371,41.371,0,0,0-12.741,2.24h0v.005l-.729-1.633Z" transform="translate(-21.718 101.434)" fill="#272c32"/>
        <path id="Path_3545" data-name="Path 3545" d="M70.851,224.068a39.9,39.9,0,0,0-8.806-1.129h0v-1.775a47.607,47.607,0,0,1,13.364,2.375h0l-.666,1.652h0c-.018,0-1.58-.564-3.892-1.123Z" transform="translate(-8.284 101.431)" fill="#272c32"/>
        <path id="Path_3546" data-name="Path 3546" d="M109.507,137.3l.325,17.8S110.05,145.327,109.507,137.3Z" transform="translate(28.487 36.454)" fill="#fff"/>
        <g id="Group_5077" data-name="Group 5077" transform="translate(4.543 0)">
          <path id="Path_3547" data-name="Path 3547" d="M97.251,211.073l-1.017,3.468,4.7,3.289,1.546-1.471s4.607,4.733,10.184,3.965a55.158,55.158,0,0,0,10.979-2.888s1.913,9.974,6.089,10.267S144,227.033,144,227.033l-2.114,10.739-45.76-.382-5.866-1.248-.286,5.466,35.761,1.054s40.088-1.15,45.952-3.069l-.925-2.332s-4.364-15.5-11.284-15.6a45.587,45.587,0,0,0-11.247,1.054l-12.787,1.152s-5.674.192-6.538-2.3a43.724,43.724,0,0,0-2.788-5.85h-1.345l-.1-3.163Z" transform="translate(8.81 93.613)" fill="#fff"/>
          <path id="Path_3548" data-name="Path 3548" d="M77.839,56.9l21.5.218,2.93,19.148-2.618,2.611,1.31,14.141L96.6,94.977s-7.2,17.41-10.258,18.5-15.066.03-15.066.03-2.6,7.15-4.13,8.237-10.034.437-16.361-3.48-8.07-7.4-8.07-7.4.651-3.356,2.289-2.33L47.733,92.59Z" transform="translate(-27.801 -25.829)" fill="#fff"/>
          <path id="Path_3549" data-name="Path 3549" d="M94.518,211.264l2.611-.437,25.517,1.446-.146,3.619s-13.337,10.412-21.893.144l-1.739.146-.87,1.3-4.5-2.749Z" transform="translate(11.543 93.423)" fill="#ffeaee"/>
          <path id="Path_3550" data-name="Path 3550" d="M98.165,214.049s6.37,2.726,18.656-1.8L98.616,211.6Z" transform="translate(15.156 94.023)" fill="#f93d66"/>
          <path id="Path_3551" data-name="Path 3551" d="M141.737,128.434l-5.8.289-4.932-1.734-27.644-3.138s-25.858-10.6-39.559-8.072c0,0-19.212,11.786-24.142,28.274s3.189,32.107,11.891,41.941S77.36,201.9,92.731,198.721s27.839-13.595,30.737-20.829,6.38-24,8.411-28.343,7.248-9.545,13.918-9.834,13.967-3.551,15.1-9.731ZM93.384,162.3a16.154,16.154,0,1,1,16.193-16.152A16.173,16.173,0,0,1,93.384,162.3Z" transform="translate(-31.327 19.482)" fill="#ffeaee"/>
          <path id="Path_3552" data-name="Path 3552" d="M53.265,115.875s11.653-2.286,39.078,9l.667,1.555-6.41,1.89S70.872,117.068,53.265,115.875Z" transform="translate(-19.63 19.711)" fill="#f93d66"/>
          <path id="Path_3553" data-name="Path 3553" d="M36.069,163.657s22.619,3.473,35.378,1.448c0,0,17.98,8.1,43.5-7.234,0,0,47.846-3.179,66.406,2.027,0,0,9.859-.287,8.121,11.28S174.212,240.3,174.212,240.3l1.34,1.457-2.762,10.185s-11.648,3.356-30.4.2l-8.054.264,3.319-11.4,1.558-2.605,8.657-46.236s-47.428,10.253-74.107,9.674S36.939,195.475,36.069,163.657Z" transform="translate(-32.953 51.651)" fill="#f93d66"/>
          <path id="Path_3554" data-name="Path 3554" d="M88.664,111.681s1.161-8.1-4.059-10.125-6.38,4.629-6.38,4.629L81.9,107l-.4,1.686Z" transform="translate(-0.292 8.468)" fill="#ffeaee"/>
          <path id="Path_3555" data-name="Path 3555" d="M88.846,141.13,152.5,92.537s-1.452-9.257,2.9-12.15,26.245-13.305,26.245-13.305,5.509.146,7.394,3.182a8.416,8.416,0,0,1,.726,6.508l-18.269,24.3-9.282.289L109.87,146.19l-20.445-4.771" transform="translate(7.937 -17.944)" fill="#ffeaee"/>
          <path id="Path_3556" data-name="Path 3556" d="M94.57,212.376s3.337,3.9,5.945,3.9l1.3-2.6s1.883,10.267,21.6,2.749c0,0,2.321,9.834,6.089,10.267s14.791-1.157,14.791-1.157-4.059,5.64-2.465,12.15c0,0-35.232.866-45.819-1.736l-1.157-.438-3.913-.14A32.9,32.9,0,0,1,94.57,212.376Z" transform="translate(9.026 94.623)" fill="#293f58"/>
          <path id="Path_3557" data-name="Path 3557" d="M50.372,88.436S63.578,98.016,68,98.046s14.354.651,20.662,3.9,26.327,16.6,26.327,16.6l-8.492,27.439s-32.623-12.583-40.235-9.328-21.315,17.354-24.142,26.463-3.731,24.066,7.83,39.046,21.095,15.621,21.095,15.621-24.14,1.736-35.667-3.037c0,0-1.086-17.354.435-25.816s.22-25.162.653-40.131S37.53,104.641,50.372,88.436Z" transform="translate(-33.781 -1.4)" fill="#293f58"/>
          <path id="Path_3558" data-name="Path 3558" d="M97.194,61.878s-7.887,1.542-13.557.185c0,0,.951,7.6-7.891,8.6L57.279,97.954s-5.246,5.085-11.784,3.166l10.1-35.834L82.38,53.111Z" transform="translate(-25.65 -28.768)" fill="#f93d66"/>
          <path id="Path_3559" data-name="Path 3559" d="M67.844,125.451c-3.562-.051-9.719-2.676-22.09-12.111h0l-.529-.4,2.921-13.119c-.58-2.486-5.649-24.2-6.978-30.153h0c-.2-.937-.295-1.223-.334-1.643h0s0-.011,0-.066h0a1.089,1.089,0,0,1,.064-.371h0a.709.709,0,0,1,.066-.149h0C45.68,56.277,57.908,53.094,69.9,53.105h0A92.392,92.392,0,0,1,90.8,55.748h0c5.954,1.461,10.04,2.912,11.389,3.954h0a1.334,1.334,0,0,1,.561,1.056h0a1.221,1.221,0,0,1-.731,1.084h0c.669,3.195,2.518,12.313,2.531,16.427h0c0,.14,0,.257-.005.378h0a5.584,5.584,0,0,1-2.628,3.924h0a117.825,117.825,0,0,1,1.3,12.324h0a4.358,4.358,0,0,1-.323,2.016h0c-1.134,1.675-3.1,1.617-4.256,1.679h0l-.185,0h0a85.952,85.952,0,0,1-3.037,8.373h0c-2.084,4.645-4.511,9.6-8.219,10.544h0a20.367,20.367,0,0,1-4.03.348h0a55.625,55.625,0,0,1-10-1.115h0c-.22.311-.179.721-.469,1.194h0c-.9,3.216-2.57,7.518-4.8,7.518h-.059Zm0-2.082c1.75-.1,4.043-8.3,4.061-8.423h0l.4-.524.646.146c.005,0,1.368.3,3.331.6h0a47.67,47.67,0,0,0,6.89.6h0a18.454,18.454,0,0,0,3.608-.309h0c1.947-.225,4.868-4.769,6.723-9.317h0a84.191,84.191,0,0,0,3.187-8.927h0l.238-.847.882.094a8.128,8.128,0,0,0,.832.041h0a3.876,3.876,0,0,0,2.433-.593h0l-.011,0s0,0,0-.007h0a1.651,1.651,0,0,0,.032-.192h0a7.912,7.912,0,0,0,.036-.818h0c.005-3.574-1.368-12.649-1.375-12.661h0l-.106-.7.614-.357a7.768,7.768,0,0,0,1.141-.868h0a2.884,2.884,0,0,0,1.052-1.7h0c0-.128,0-.24,0-.335h0c.012-4.487-2.714-17.1-2.724-17.116h0l-.106-.488c-.307-.135-.662-.28-1.058-.433h0a66.537,66.537,0,0,0-7.129-2.183h0A90.987,90.987,0,0,0,69.9,55.19h0C58.218,55.2,47.16,58.262,42.955,68.064h0l.02.1h0c.053.247.131.607.231,1.052h0c.2.9.486,2.16.831,3.663h0c.689,3.006,1.606,6.975,2.525,10.931h0C48.4,91.718,50.23,99.563,50.234,99.58h0l.053.231-2.735,12.281C59.4,121.131,65.4,123.419,67.844,123.369Zm32.863-61.4.041-.747-.041.747Z" transform="translate(-29.267 -28.773)" fill="#272c32"/>
          <path id="Path_3560" data-name="Path 3560" d="M45.506,98.3l.17-1.729a5.941,5.941,0,0,0,.6.028h0c5.743.117,15.609-8.474,19.895-14.138h0a10.212,10.212,0,0,0,2.2-3.832h0v-.016h0c-.131-1.391-1.191-4.6-1.2-7.468h0a6.156,6.156,0,0,1,1.12-3.9h0A5.2,5.2,0,0,1,72.621,65.5h0c.307,0,.628.014.958.043h0c.256.023.5.03.738.03h0a4.826,4.826,0,0,0,4.847-3.29h0c.813-1.881.93-3.963,1.427-5.173h0a1.359,1.359,0,0,1,1.21-.921h0a1.233,1.233,0,0,1,.545.128h0a50.659,50.659,0,0,0,7.912.942h0c3.569.264,6.914.429,6.922.429h0l-.085,1.729s-3.37-.162-6.964-.426h0a57.961,57.961,0,0,1-8.033-.941h0c-.051.17-.108.4-.163.658h0a31.3,31.3,0,0,1-.813,3.313h0c-.772,2.476-2.694,5.324-6.8,5.287h0c-.282,0-.575-.012-.886-.035h0c-.289-.027-.561-.037-.811-.037h0c-3.164.11-3.564,1.478-3.707,3.912h0c-.007,2.5.99,5.527,1.191,7.292h0a1.353,1.353,0,0,1,.011.192h0c-.064,1.363-1.054,2.87-2.566,4.889h0a52.88,52.88,0,0,1-5.988,6.426h0c-4.763,4.336-10.5,8.334-15.284,8.389h0c-.254,0-.513-.012-.77-.035Z" transform="translate(-25.641 -26.388)" fill="#272c32"/>
          <path id="Path_3561" data-name="Path 3561" d="M52.069,109.113s12.549-1.3,23.327-18.466a71.508,71.508,0,0,1-1.129-8.522c-.059-2.912,2.508-4.029,4.077-4.192s6.2.942,7.8-3.6,1.342-5.858,2.091-5.692,12.7,1.122,15.6,1.326c3.539.248,8.451-3.212,10.831-9.048C118.3,52,110.955,40.673,107.9,45.2c-4.1,6.082-13.9,2.039-21.941.925s-10.233-5.677-22.071-4.575S47.9,49.767,47.531,54.427A27.363,27.363,0,0,0,37.493,75.353C37.337,89.117,44.475,101.747,52.069,109.113Z" transform="translate(-31.851 -37.856)" fill="#272c32"/>
          <path id="Path_3562" data-name="Path 3562" d="M69.318,70.4a.869.869,0,0,1-.144-1.219h0a8.027,8.027,0,0,1,6.535-3.1h0a9.911,9.911,0,0,1,3.14.493h0a.864.864,0,0,1,.516,1.111h0a.861.861,0,0,1-1.113.516h0c-.007.007-.286-.092-.749-.192h0a8.07,8.07,0,0,0-1.794-.192h0a6.264,6.264,0,0,0-5.165,2.435h0a.866.866,0,0,1-.689.334h0a.89.89,0,0,1-.538-.183Z" transform="translate(-7.449 -18.721)" fill="#272c32"/>
          <path id="Path_3563" data-name="Path 3563" d="M72.38,86.844c-.055-.025-5.573-1.741-5.64-7.417h0a.686.686,0,0,1,0-.135h0a.87.87,0,0,1,.937-.792h0a.872.872,0,0,1,.8.926h0a5.611,5.611,0,0,0,2.2,4.49h0a7.461,7.461,0,0,0,2.234,1.272h0v0a.863.863,0,0,1,.561,1.091h0a.868.868,0,0,1-.823.6h0a.88.88,0,0,1-.268-.043Z" transform="translate(-9.192 -9.099)" fill="#272c32"/>
          <path id="Path_3564" data-name="Path 3564" d="M63.983,93.311c-.069-.044-7.956-2.412-11.736-9.046h0a.865.865,0,0,1,.332-1.18h0a.87.87,0,0,1,1.184.33h0a17.763,17.763,0,0,0,6.622,6.343h0a22.025,22.025,0,0,0,4.116,1.9h0a.868.868,0,0,1,.575,1.088h0a.869.869,0,0,1-.831.609h0a.969.969,0,0,1-.261-.039Z" transform="translate(-20.506 -5.632)" fill="#272c32"/>
          <path id="Path_3565" data-name="Path 3565" d="M70.545,43.094s4.337-5.193,9.745-2.467,5.3,7.6,5.3,7.6L74.812,78.293S82.878,89.02,76.853,99.13a18.3,18.3,0,0,1-23.633,7.307c-6.059-3.143-12.984-12.281-8.35-22.859A17.354,17.354,0,0,1,59.994,73.017Z" transform="translate(-27.307 -39.053)" fill="#f93d66"/>
          <path id="Path_3566" data-name="Path 3566" d="M86.751,46.991c-.351-3.464-2.955-5.681-6.135-6.82a11.219,11.219,0,0,0-4.96-.729c-2.891.266-5.505,2.2-6.856,5.986L59.111,72.086a18.8,18.8,0,1,0,17.1,6.662l9.823-27.029A10.655,10.655,0,0,0,86.751,46.991ZM63.41,107.43a16.846,16.846,0,1,1-3.562-33.5c.279.025.419-.005.845,0a20.139,20.139,0,0,1,6.813.971,19.5,19.5,0,0,1,4.968,2.85A16.816,16.816,0,0,1,63.41,107.43Zm20.8-56.377L74.758,77.07c-.3-.25-.673-.545-1.072-.848a18.785,18.785,0,0,0-12.446-4.309L70.622,46.09c1.246-3.283,3.054-4.472,5.23-4.73a9.359,9.359,0,0,1,4.1.634c2.825,1.058,4.6,2.682,4.872,5.2A8.688,8.688,0,0,1,84.212,51.054Z" transform="translate(-27.709 -39.395)" fill="#272c32"/>
          <path id="Path_3567" data-name="Path 3567" d="M65.3,71.035a8.165,8.165,0,1,1-8.964-7.262A8.15,8.15,0,0,1,65.3,71.035Z" transform="translate(-22.926 -20.542)" fill="#272c32"/>
          <path id="Path_3568" data-name="Path 3568" d="M59.038,67.436S59.821,72.7,54,74.925C54,74.925,60.311,75.2,59.038,67.436Z" transform="translate(-19.062 -17.67)" fill="#ffeaee"/>
          <path id="Path_3569" data-name="Path 3569" d="M44.823,75.09s5.088,11.268,18.211,9.225,14-15.431,14-15.431S73.011,80.471,62.7,81.746,44.823,75.09,44.823,75.09Z" transform="translate(-26.17 -16.548)" fill="#dd2f55"/>
          <path id="Path_3570" data-name="Path 3570" d="M73.722,72.286C73.25,73.732,72.3,74.719,71.6,74.5s-.889-1.588-.417-3.035,1.42-2.435,2.123-2.211S74.191,70.837,73.722,72.286Z" transform="translate(-5.95 -16.288)" fill="#272c32"/>
          <path id="Path_3571" data-name="Path 3571" d="M74.184,79.58a7.338,7.338,0,0,1-2.9-.829h0a.871.871,0,0,1-.4-1.164h0a.879.879,0,0,1,1.17-.4h0a5.323,5.323,0,0,0,2.181.655h0a.889.889,0,0,1,.618.252h0v0a.867.867,0,0,1,0,1.226h0a.868.868,0,0,1-.616.254h0l-.051,0Z" transform="translate(-6.049 -10.18)" fill="#272c32"/>
          <path id="Path_3572" data-name="Path 3572" d="M43.773,90.64c-.907-.953-1.537-1.356-1.686-2.533h0a1.318,1.318,0,0,1,.092-.481h0a3.2,3.2,0,0,1,3.088-1.636h0A1.869,1.869,0,0,1,45.5,86h0l-.165,2.073h-.064a3.038,3.038,0,0,0-.784.1h0a1.251,1.251,0,0,0-.133.05h0a8.514,8.514,0,0,0,.85.893h0a33.116,33.116,0,0,0,3.612,2.82h0a65.955,65.955,0,0,0,12.345,6.6h0l-.779,1.929c-7.6-3.074-13.831-7.253-16.6-9.834Z" transform="translate(-28.29 -3.295)" fill="#272c32"/>
          <path id="Path_3573" data-name="Path 3573" d="M34.906,216.111l-.525-.277-.025-.587c0-.021-.043-.923-.043-2.857h0c0-3.981.174-12.351,1.205-26.485h0c.4-5.409-.206-37.312,1.526-56.2h0C39.6,101.8,49.1,87.887,49.18,87.775h0L50.9,88.948c0,.005-.547.8-1.454,2.483h0a69.681,69.681,0,0,0-3.463,7.639h0a114.2,114.2,0,0,0-6.867,30.822h0C37.4,148.628,38.01,180.366,37.6,186.059h0c-1.029,14.09-1.2,22.408-1.2,26.33h0c0,.974.011,1.672.021,2.121h0c.174.071.392.153.669.254h0a34.924,34.924,0,0,0,4.327,1.168h0a100.735,100.735,0,0,0,20.619,1.737h0q3.852,0,8.405-.188h0l.087,2.076q-4.6.2-8.492.193h0c-20.163,0-26.934-3.532-27.132-3.64Z" transform="translate(-34.313 -1.912)" fill="#272c32"/>
          <path id="Path_3574" data-name="Path 3574" d="M152.926,191.86c-8.038,2.153-45.263,11.7-75.413,11.713h0c-8.368,0-16.2-.736-22.758-2.6h0c-16.732-4.81-19.244-21.62-19.221-31.2h0a49.42,49.42,0,0,1,.5-7.282h0l2.057.341a47.787,47.787,0,0,0-.47,6.941h0c.023,9.4,2.426,24.887,17.708,29.2h0c6.274,1.791,13.939,2.522,22.184,2.522h0c16.754,0,35.885-3.012,50.8-6.032h0c14.919-3.015,25.594-6.025,25.617-6.032h0l1.576-.451-8.258,50.8,25.571-.334c.891-3.241,4.506-16.466,8.125-30.8h0c4.169-16.445,8.331-34.5,8.309-39.888h0a6.492,6.492,0,0,0-.043-.816h0c-.442-3.216-3.145-5.571-9.03-7.211h0c-5.834-1.611-14.546-2.314-26.073-2.309h0c-2.268,0-4.639.021-7.122.08h0c-13.916.289-21.741.506-26.082.648h0c-4.343.146-5.165.211-5.166.215h0l-.179-2.076c.071,0,3.539-.291,31.383-.873h0q3.74-.072,7.166-.076h0c11.616,0,20.445.69,26.628,2.383h0c6.134,1.658,9.928,4.513,10.546,8.954h0a8.715,8.715,0,0,1,.062,1.083h0c-.046,11.861-16.715,71.906-16.718,72h0l-.209.753-29.622.382,8.132-50.021Z" transform="translate(-33.366 51.202)" fill="#272c32"/>
          <path id="Path_3575" data-name="Path 3575" d="M94.167,238.556l-.522-.053-.266-.453a8.393,8.393,0,0,1-1.065-4.346h0c.028-5.351,3.37-11.683,5.072-15.419h0c1.816-3.938,2.327-4.93,2.341-4.96h0l1.06-2.046.841,2.147c1.759,4.359,4.739,5.574,8.313,5.628h0a24.693,24.693,0,0,0,9.424-2.366h0a37.792,37.792,0,0,0,4.552-2.38h0l1.1-.7.451,1.221s.6,1.649,1.427,3.509h0a17.554,17.554,0,0,0,2.614,4.545h.016a1.375,1.375,0,0,0,.282.08h0a6.433,6.433,0,0,0,1.212.089h0c3.743.012,12.317-1.682,22.273-3.042h0a14.288,14.288,0,0,1,2-.142h0c6.189,0,9.912,4.2,11.93,8.151h0a28.055,28.055,0,0,1,2.62,7.912h0l.147,1.036-1.036.142a319.956,319.956,0,0,1-43.387,2.77h0c-18.374,0-31.365-1.317-31.394-1.319Zm31.394-.763a320.112,320.112,0,0,0,42-2.6h0a26.064,26.064,0,0,0-2.2-6.228h0c-1.913-3.638-4.948-7.016-10.077-7.019h0a12.6,12.6,0,0,0-1.714.117h0c-9.937,1.347-18.347,3.054-22.559,3.067h0a4.349,4.349,0,0,1-2.944-.736h0c-1.661-1.638-3.335-5.683-4.116-7.69h0c-2.383,1.359-8.3,4.4-14.013,4.433h0a10.242,10.242,0,0,1-9.278-4.937h0c-.339.713-.788,1.677-1.377,2.957h0c-1.755,3.757-4.913,10.038-4.882,14.548h0a6.818,6.818,0,0,0,.534,2.834h0c2.648.241,14.546,1.255,30.623,1.255ZM99.685,214.182l.973-.382-.973.382Z" transform="translate(10.623 93.772)" fill="#272c32"/>
          <path id="Path_3576" data-name="Path 3576" d="M92.865,231.746l-1.054-.06.362-5.386h0l2.082.138-.22,3.285c3.383.17,14.668,1.242,28.637,1.242h0a360.268,360.268,0,0,0,46.882-3.184h0a4.475,4.475,0,0,0-.493-1.748h0l1.764-1.107a7.4,7.4,0,0,1,.857,3.636h0v.124h0v.9l-.893.13c-15.107,2.183-33.229,2.761-48.209,2.765h0c-16.848,0-29.7-.733-29.718-.733Z" transform="translate(10.234 104.346)" fill="#272c32"/>
          <path id="Path_3577" data-name="Path 3577" d="M94.448,143.4c-.009,0-5.654-2.382-12.961-4.758h0c-7.291-2.387-16.259-4.746-22.632-4.739h0a15.816,15.816,0,0,0-4.579.566h0l-.616-1.991a17.912,17.912,0,0,1,5.195-.657h0c11.878.028,30.653,7.335,35.326,9.22h0l7.841-26.424c-2.385-1.272-10.27-5.573-22.509-13.236h0a40.553,40.553,0,0,0-21.565-6.091h0a33.492,33.492,0,0,0-7.422.724h0l-.508-2.02a35.716,35.716,0,0,1,7.93-.786h0a42.614,42.614,0,0,1,22.674,6.41h0c14.761,9.238,23.1,13.54,23.125,13.554h0l.765.392-8.987,30.288-1.077-.453Z" transform="translate(-22.145 2.295)" fill="#272c32"/>
          <path id="Path_3578" data-name="Path 3578" d="M45.085,178.607c-5.555-8.5-7.749-16.425-7.745-23.576h0c.091-27.063,25.878-39.568,25.927-39.646h0v0l1.051,1.8a19.887,19.887,0,0,0-3.9,2.339l-.041.121a66.442,66.442,0,0,0-9.259,7.619h0c-6.256,6.581-11.692,16.136-11.69,27.766h0c.005,6.721,2.043,14.218,7.406,22.438h0c9.861,15.082,23.853,20.974,37.437,20.992h0c19.4.03,37.776-12.26,41.142-27.163h0c3.8-16.287,6.418-24.9,11.767-28.412h0c2.754-1.7,8.1-2.715,13.261-4.552h0c5.163-1.8,9.818-4.364,11.1-8.347h0l1.981.655c-1.761,5.129-7.111,7.772-12.388,9.656h0c-5.283,1.849-10.8,3.015-12.837,4.345h0c-4.224,2.563-7.163,10.86-10.853,27.118h0c-3.793,16.212-22.96,28.751-43.178,28.781h-.05c-14.168,0-28.937-6.29-39.133-21.936Z" transform="translate(-31.968 19.479)" fill="#272c32"/>
          <path id="Path_3579" data-name="Path 3579" d="M88.083,111.473a14.959,14.959,0,0,0,.248-2.637h0c-.016-2.316-.593-4.918-3.045-5.7h0a5.007,5.007,0,0,0-1.574-.279h0a3.807,3.807,0,0,0-3.1,1.7h0a6.583,6.583,0,0,0-.958,1.8h0l-2-.614c.048-.037,1.367-4.843,6.05-4.971h0a6.969,6.969,0,0,1,2.238.389h0c3.812,1.3,4.488,5.152,4.471,7.67h0a15.848,15.848,0,0,1-.3,3.086h0l-2.037-.449Z" transform="translate(-0.728 8.161)" fill="#272c32"/>
          <path id="Path_3580" data-name="Path 3580" d="M64.317,160.405,50,142.321a2.678,2.678,0,0,1-.6-1.7h0a2.943,2.943,0,0,1,1.15-2.323h0a3.035,3.035,0,0,1,1.872-.657h0a2.764,2.764,0,0,1,2.187,1.04h0l14.338,18.086a2.74,2.74,0,0,1,.586,1.7h0a3,3,0,0,1-1.141,2.328h0l-.657-.813.648.818a3.039,3.039,0,0,1-1.871.648h-.014a2.785,2.785,0,0,1-2.178-1.038ZM51.834,139.932a.883.883,0,0,0-.35.685h0a.664.664,0,0,0,.144.412h0l14.328,18.083a.712.712,0,0,0,.554.254h0a.923.923,0,0,0,.571-.2h0a.926.926,0,0,0,.362-.7h0a.639.639,0,0,0-.138-.406h0L52.968,139.971a.67.67,0,0,0-.548-.256h0a.964.964,0,0,0-.586.217Z" transform="translate(-22.627 36.719)" fill="#272c32"/>
          <path id="Path_3581" data-name="Path 3581" d="M76.351,123.618a16.154,16.154,0,1,0,16.193,16.156A16.176,16.176,0,0,0,76.351,123.618Z" transform="translate(-14.293 25.857)" fill="#272c32"/>
          <path id="Path_3582" data-name="Path 3582" d="M109.178,146.118l52.51-45.171.417.014s2.77.115,5.4.115h0a26,26,0,0,0,4.116-.208h0l0,0h0c.016-.016.034-.032.053-.053h0c.1-.092.248-.24.43-.428h0c.357-.382.845-.925,1.425-1.588h0c1.159-1.335,2.692-3.159,4.352-5.209h0c3.328-4.1,7.211-9.106,9.793-12.888h0a20.52,20.52,0,0,0,2.809-4.905h0c.007-.112.011-.208.011-.3h0c.128-2.676-3.621-6.788-6.685-7.152h0a1.389,1.389,0,0,0-.206-.011h0c-1.516-.067-5.732,1.966-10.3,4.54h0c-4.629,2.565-9.852,5.624-14.294,7.553h0c-4.036,1.7-4.863,6.339-4.866,9.658h0a18.127,18.127,0,0,0,.238,3.047h0l.121.634L89.18,143.181l-1.262-1.659,64.315-48.655a22.24,22.24,0,0,1-.17-2.781h0c0-3.525.816-9.227,6.119-11.566h0c4.256-1.851,9.458-4.884,14.111-7.465h0c4.708-2.57,8.65-4.737,11.314-4.806h0a2.925,2.925,0,0,1,.54.044h0c4.24.754,8.313,5.053,8.441,9.2h0c0,.147-.005.288-.016.442h0c-.172,1.3-1.123,2.8-2.536,4.992h0c-1.414,2.139-3.3,4.723-5.315,7.356h0c-4.022,5.269-8.521,10.707-10.668,13.066h0a7.048,7.048,0,0,1-1.457,1.368h0a6.178,6.178,0,0,1-2.124.367h0c-.861.051-1.9.069-2.964.069h0c-2.066,0-4.2-.069-5.078-.1h0L110.546,147.7l-1.368-1.578Zm62.482-45.256,0,0h0l0,0Z" transform="translate(7.218 -18.589)" fill="#272c32"/>
          <path id="Path_3583" data-name="Path 3583" d="M139.223,89.137a3.871,3.871,0,0,1-1.368-2.052h0l-.914-.671.772-1.047,1.31.958.048.254a3.567,3.567,0,0,0,.186.554h0a2.381,2.381,0,0,0,.733.955h0a2.348,2.348,0,0,0,1.386.451h0a1.961,1.961,0,0,0,.635-.1h0a.755.755,0,0,0,.2-.089h0a.736.736,0,0,0,.009-.087h0a2.829,2.829,0,0,0-1.143-1.782h0a2.04,2.04,0,0,0-1.212-.383h0a1.707,1.707,0,0,0-.444.046h0l-.311.087-.256-.186-1.051-.767h0l.765-1.051.825.6a3.692,3.692,0,0,1,.467-.03h0a3.324,3.324,0,0,1,1.984.635h0a3.953,3.953,0,0,1,1.674,2.829h0a1.414,1.414,0,0,1-.252.839h0a2.363,2.363,0,0,1-1.9.738h0a3.636,3.636,0,0,1-2.153-.7Z" transform="translate(45.198 -4.66)" fill="#272c32"/>
          <path id="Path_3584" data-name="Path 3584" d="M141.618,86.322a3.6,3.6,0,0,1-1.466-2.014h0l-.926-.626.728-1.077,1.372.923.046.284a2.7,2.7,0,0,0,.165.492h0a2.244,2.244,0,0,0,.8.934h0a2.432,2.432,0,0,0,1.329.4h0a2.084,2.084,0,0,0,.687-.112h0a.656.656,0,0,0,.217-.106h0c-.009,0,.007,0,.007-.067h0a2.758,2.758,0,0,0-1.207-1.753h0a2,2,0,0,0-1.145-.339h0a1.694,1.694,0,0,0-.531.066h0l-.305.1-.261-.174-1.075-.726.731-1.083.841.57a3.6,3.6,0,0,1,.6-.05h0a3.334,3.334,0,0,1,1.872.559h0a3.873,3.873,0,0,1,1.784,2.834h0a1.408,1.408,0,0,1-.22.786h0a2.435,2.435,0,0,1-1.995.8h0a3.708,3.708,0,0,1-2.044-.612Z" transform="translate(46.968 -6.826)" fill="#272c32"/>
          <path id="Path_3585" data-name="Path 3585" d="M143.736,83.382a3.569,3.569,0,0,1-1.464-2.014h0l-.919-.616.728-1.079,1.39.932.034.3a2.72,2.72,0,0,0,.149.453h0a2.3,2.3,0,0,0,.816.953h0a2.332,2.332,0,0,0,1.31.4h0a2.029,2.029,0,0,0,.692-.115h0a.9.9,0,0,0,.22-.106h0a.19.19,0,0,0,.009-.069h0a2.771,2.771,0,0,0-1.2-1.759h0a2.015,2.015,0,0,0-1.141-.334h0a1.741,1.741,0,0,0-.532.062h0l-.312.1-.259-.179-1.077-.724h.005l.729-1.079.843.571a3.8,3.8,0,0,1,.6-.053h0a3.333,3.333,0,0,1,1.871.561h0a3.891,3.891,0,0,1,1.78,2.836h0a1.441,1.441,0,0,1-.222.786h0a2.449,2.449,0,0,1-2.005.8h0a3.618,3.618,0,0,1-2.043-.625Z" transform="translate(48.616 -9.097)" fill="#272c32"/>
          <path id="Path_3586" data-name="Path 3586" d="M146.1,80.188a3.318,3.318,0,0,1-1.5-2.036h0l-.91-.614.728-1.083,1.4.942.025.309a2.654,2.654,0,0,0,.142.467h0a2,2,0,0,0,.8.907h0a2.65,2.65,0,0,0,1.375.387h0a2.04,2.04,0,0,0,.674-.1h0a.888.888,0,0,0,.2-.1h0s.005-.007.005-.067h0a2.771,2.771,0,0,0-1.205-1.755h0a2.018,2.018,0,0,0-1.141-.337h0a1.687,1.687,0,0,0-.532.066h0l-.3.1L145.6,77.1l-1.076-.728.728-1.077.845.566a3.815,3.815,0,0,1,.6-.048h0a3.289,3.289,0,0,1,1.872.559h0a3.883,3.883,0,0,1,1.778,2.833h0a1.356,1.356,0,0,1-.222.784h0a2.375,2.375,0,0,1-1.965.783h0a3.951,3.951,0,0,1-2.057-.58Z" transform="translate(50.43 -11.584)" fill="#272c32"/>
          <path id="Path_3587" data-name="Path 3587" d="M53.316,155.979,97.77,119.908l.548.672L53.866,156.65l-.549-.671Z" transform="translate(-19.59 22.983)" fill="#272c32"/>
          <path id="Path_3588" data-name="Path 3588" d="M54.541,158.466l46.833-38.037.549.673L55.09,159.138l-.549-.672Z" transform="translate(-18.641 23.387)" fill="#272c32"/>
          <path id="Path_3589" data-name="Path 3589" d="M56.09,161.35l49.738-40.269.547.672L56.639,162.023l-.549-.672Z" transform="translate(-17.441 23.892)" fill="#272c32"/>
          <path id="Path_3590" data-name="Path 3590" d="M57.809,164.422l52.629-43.095.552.672L58.361,165.093l-.552-.671Z" transform="translate(-16.11 24.082)" fill="#272c32"/>
          <path id="Path_3591" data-name="Path 3591" d="M90.131,137.964,176.123,72.39l.53.691L90.661,138.653l-.53-.69Z" transform="translate(8.932 -13.832)" fill="#272c32"/>
          <path id="Path_3592" data-name="Path 3592" d="M92.4,137.151l79.569-62.073.532.685L92.937,137.833l-.535-.682Z" transform="translate(10.692 -11.749)" fill="#272c32"/>
          <path id="Path_3593" data-name="Path 3593" d="M95.01,135.43l72.619-57.454.544.681L95.554,136.109l-.544-.679Z" transform="translate(12.712 -9.504)" fill="#272c32"/>
          <path id="Path_3594" data-name="Path 3594" d="M97.744,134.478l65.3-53.727.553.668-65.3,53.727-.549-.668Z" transform="translate(14.83 -7.354)" fill="#272c32"/>
          <path id="Path_3595" data-name="Path 3595" d="M118.616,232.439c.009-3.237.689-11.108,7.5-15.5h0l1.127,1.748c-5.828,3.7-6.547,10.755-6.536,13.756h0c0,.839.048,1.31.048,1.31h0v0l-2.075.217a14.64,14.64,0,0,1-.064-1.53Z" transform="translate(31.001 98.155)" fill="#272c32"/>
          <path id="Path_3596" data-name="Path 3596" d="M113.722,225.5c-1.535-1.212-2.692-3.707-3.718-6.025h0c-.985-2.3-1.672-4.366-1.674-4.38h0l1.981-.657s.666,2,1.613,4.215h0c.91,2.2,2.265,4.655,3.053,5.181h0a5.961,5.961,0,0,0,2.552.344h0c4.739.005,13.128-1.682,13.14-1.69h0l.415,2.041c-.036,0-8.419,1.721-13.556,1.732h0a6.827,6.827,0,0,1-3.807-.761Z" transform="translate(23.032 96.218)" fill="#272c32"/>
          <path id="Path_3597" data-name="Path 3597" d="M102.722,218.661c-3.276-.25-5.5-.428-6.7-1.044h0a3.247,3.247,0,0,1-1.313-2.983h0c.039-3.981,2.937-10.324,2.95-10.4h0l.266-.611.669-.012c.009,0,28.888-.392,30.657-.392h0a1.693,1.693,0,0,1,1.548,1.39h0a7.569,7.569,0,0,1,.2,1.924h0a37.405,37.405,0,0,1-1.858,10.657h0c-.71.976-1.267.829-2.155,1.1h0a32.417,32.417,0,0,1-3.361.392h0c-2.689.2-6.2.3-9.816.3h0c-3.878,0-7.873-.11-11.087-.318ZM96.8,214.634c-.009.871.241,1.184.277,1.184h0a25.715,25.715,0,0,0,5.784.761h0c3.148.206,7.111.319,10.948.319h0c3.353,0,6.622-.083,9.161-.257h0a23.085,23.085,0,0,0,4.387-.58h0a39.645,39.645,0,0,0,1.553-9.527h0a6.883,6.883,0,0,0-.091-1.228h0c-3.615.032-25.347.33-29.507.385h0c-.687,1.682-2.547,6.425-2.513,8.943Z" transform="translate(12.48 87.53)" fill="#272c32"/>
          <path id="Path_3598" data-name="Path 3598" d="M109.157,211.516h2.089s0,.735.037,1.571h0a11.833,11.833,0,0,0,.186,1.947h0l-1.981.657a21.626,21.626,0,0,1-.332-4.174Z" transform="translate(23.672 93.956)" fill="#272c32"/>
          <path id="Path_3599" data-name="Path 3599" d="M97,216l.973-4.8,2.05.412-.978,4.8L97,216Z" transform="translate(14.253 93.712)" fill="#272c32"/>
          <circle id="Ellipse_273" data-name="Ellipse 273" cx="1.073" cy="1.073" r="1.073" transform="translate(184.299 57.814)" fill="#272c32"/>
          <path id="Path_3600" data-name="Path 3600" d="M139.094,75.595a1.074,1.074,0,1,1-1.072-1.072A1.072,1.072,0,0,1,139.094,75.595Z" transform="translate(45.203 -12.179)" fill="#272c32"/>
          <path id="Path_3601" data-name="Path 3601" d="M137.825,78.436a1.075,1.075,0,1,1-1.075-1.07A1.072,1.072,0,0,1,137.825,78.436Z" transform="translate(44.218 -9.977)" fill="#272c32"/>
          <path id="Path_3602" data-name="Path 3602" d="M136.459,81.2a1.074,1.074,0,1,1-1.074-1.072A1.072,1.072,0,0,1,136.459,81.2Z" transform="translate(43.161 -7.834)" fill="#272c32"/>
          <path id="Path_3603" data-name="Path 3603" d="M93.563,238.269c-.772-.25-1.393-.272-2.009-1.116h0a2.829,2.829,0,0,1-.261-1.411h0a68.134,68.134,0,0,1,1.626-10.727h0a2.914,2.914,0,0,1,2.108-1.572h0c.2-.057.4-.106.577-.146h0l7.422-46.7h0l2.059.321-7.662,48.209-.777.1s-.383.05-.836.167h0a3.264,3.264,0,0,0-.941.369h0a71.373,71.373,0,0,0-1.491,9.987h0c0,.114,0,.215.009.293h0a3.969,3.969,0,0,0,.671.206h0a20.182,20.182,0,0,0,2.288.383h0c1.658.2,3.257.261,3.258.264h0l-.092,2.078a40.174,40.174,0,0,1-5.953-.7Z" transform="translate(9.832 66.9)" fill="#272c32"/>
          <path id="Path_3604" data-name="Path 3604" d="M93.085,214.447l.581-3.472,2.058.34-.579,3.47-2.06-.338Z" transform="translate(11.22 93.538)" fill="#272c32"/>
          <path id="Path_3605" data-name="Path 3605" d="M90.319,237.5l-.167-.836a30.55,30.55,0,0,1-.575-5.981h0a38.372,38.372,0,0,1,4.765-18.046h0l.893-1.485.894,1.485a8.445,8.445,0,0,0,3.23,2.8h0a13.341,13.341,0,0,0,2.131.934h0l-.618,1.988a14.21,14.21,0,0,1-5.464-3.285h0a36.2,36.2,0,0,0-1.5,3.521h0a35.609,35.609,0,0,0-2.243,12.084h0a28.489,28.489,0,0,0,.383,4.732h0l4.061,0V237.5Z" transform="translate(8.503 93.676)" fill="#272c32"/>
          <path id="Path_3606" data-name="Path 3606" d="M89.038,232.062l-.043-1c0-.011-.007-.144-.007-.36h0a19.224,19.224,0,0,1,.236-3.051h0c.272-1.164.442-2.55,1.995-3.134h0l.531,1.968.043.039a.933.933,0,0,0-.162.259h0a4.884,4.884,0,0,0-.351,1.228h0a15.551,15.551,0,0,0-.188,1.968h4.023v2.078Z" transform="translate(8.047 104.032)" fill="#272c32"/>
          <path id="Path_3607" data-name="Path 3607" d="M56.537,169.515c2.675-.115,5.062-1.72,7.11-3.358h0a16.877,16.877,0,0,0,3.3-3.537h0l1.61,1.326c-.092.039-5.049,6.8-11.843,7.216h0s-1.187.011-1.272-.847c-.083-.832,1.1-.8,1.1-.8Z" transform="translate(-17.948 56.074)" fill="#272c32"/>
          <path id="Path_3608" data-name="Path 3608" d="M96.918,204.853c-1.42,0-2.483.087-2.552.092h0l-.177-2.076c.021,0,1.175-.1,2.73-.1h0a26.835,26.835,0,0,1,3.894.254h0l-.314,2.059a24.6,24.6,0,0,0-3.58-.231Zm-2.556.092h0Z" transform="translate(12.075 87.181)" fill="#272c32"/>
          <path id="Path_3609" data-name="Path 3609" d="M108.6,219.48a.647.647,0,0,1,.3-.87h0c0-.012,3.408-1.693,4.51-3.61h0a.648.648,0,0,1,.891-.234h0a.648.648,0,0,1,.227.891h0c-1.487,2.46-5.023,4.085-5.062,4.126h0a.661.661,0,0,1-.287.066h0a.654.654,0,0,1-.586-.369Z" transform="translate(23.189 96.405)" fill="#272c32"/>
          <path id="Path_3610" data-name="Path 3610" d="M109.667,221.919a.644.644,0,0,1,.177-.9h0a16.627,16.627,0,0,0,4.366-4.474h0a.642.642,0,0,1,.882-.254h0a.647.647,0,0,1,.254.88h0a17.087,17.087,0,0,1-4.774,4.923h0a.641.641,0,0,1-.366.115h0a.657.657,0,0,1-.543-.289Z" transform="translate(23.98 97.59)" fill="#272c32"/>
          <path id="Path_3611" data-name="Path 3611" d="M111.344,224.156a.653.653,0,0,1,.076-.921h0c0-.012,3.157-2.737,3.553-5.109h0a.648.648,0,0,1,.758-.524h0a.648.648,0,0,1,.522.754h0c-.619,3.122-3.965,5.819-3.99,5.878h0a.648.648,0,0,1-.419.154h0a.652.652,0,0,1-.5-.232Z" transform="translate(25.247 98.663)" fill="#272c32"/>
          <path id="Path_3612" data-name="Path 3612" d="M114.289,225.041a.649.649,0,0,1-.232-.893h0c-.012-.011,1.817-3.195,1.871-5.759h0a.649.649,0,0,1,.664-.635h0a.653.653,0,0,1,.637.666h0a16.1,16.1,0,0,1-2.045,6.382h0a.646.646,0,0,1-.568.33h0a.631.631,0,0,1-.327-.09Z" transform="translate(27.398 98.789)" fill="#272c32"/>
          <path id="Path_3613" data-name="Path 3613" d="M116.95,225.379a.653.653,0,0,1-.364-.848h0a23.289,23.289,0,0,0,1.333-6.451h0a.647.647,0,0,1,.689-.609h0a.643.643,0,0,1,.612.685h0a23.85,23.85,0,0,1-1.422,6.854h0v0a.652.652,0,0,1-.605.412h0a.736.736,0,0,1-.243-.046Z" transform="translate(29.392 98.569)" fill="#272c32"/>
          <path id="Path_3614" data-name="Path 3614" d="M110.156,217.716a.971.971,0,1,1-.971-.969A.97.97,0,0,1,110.156,217.716Z" transform="translate(22.942 98.009)" fill="#272c32"/>
          <path id="Path_3615" data-name="Path 3615" d="M111.091,219.793a.972.972,0,1,1-.973-.969A.971.971,0,0,1,111.091,219.793Z" transform="translate(23.666 99.618)" fill="#272c32"/>
          <path id="Path_3616" data-name="Path 3616" d="M112.825,221.71a.971.971,0,1,1-.973-.969A.968.968,0,0,1,112.825,221.71Z" transform="translate(25.01 101.103)" fill="#272c32"/>
          <path id="Path_3617" data-name="Path 3617" d="M115.656,222.058a.972.972,0,1,1-.973-.971A.973.973,0,0,1,115.656,222.058Z" transform="translate(27.202 101.372)" fill="#272c32"/>
          <path id="Path_3618" data-name="Path 3618" d="M118.325,222a.972.972,0,1,1-.974-.971A.972.972,0,0,1,118.325,222Z" transform="translate(29.27 101.329)" fill="#272c32"/>
          <path id="Path_3619" data-name="Path 3619" d="M85.62,44.511s-5.8,7.518-17.689,2.312C67.931,46.824,78.949,55.5,85.62,44.511Z" transform="translate(-8.267 -35.431)" fill="#fff"/>
          <path id="Path_3620" data-name="Path 3620" d="M70.873,51.272s9.278,2.893,12.757-5.784C83.63,45.488,81.31,58.215,70.873,51.272Z" transform="translate(-5.988 -34.674)" fill="#fff"/>
          <path id="Path_3621" data-name="Path 3621" d="M63.8,43.539s-8.119-3.18-17.11,3.471C46.689,47.01,55.969,42.382,63.8,43.539Z" transform="translate(-24.725 -36.773)" fill="#fff"/>
          <path id="Path_3622" data-name="Path 3622" d="M49.305,95.342S66.268,91,79.751,101.415C79.751,101.415,71.488,94.258,49.305,95.342Z" transform="translate(-22.698 3.256)" fill="#fff"/>
          <path id="Path_3623" data-name="Path 3623" d="M45.993,92.018s-7.177,10.631-8.7,37.529A118.952,118.952,0,0,1,45.993,92.018Z" transform="translate(-32.003 1.375)" fill="#fff"/>
          <path id="Path_3624" data-name="Path 3624" d="M97.342,215.145s2.607,5.065,11.889,3.328C109.231,218.473,100.387,222.377,97.342,215.145Z" transform="translate(14.519 96.768)" fill="#fff"/>
          <path id="Path_3625" data-name="Path 3625" d="M61.15,141.589,81.3,125.1S69.561,135.081,61.15,141.589Z" transform="translate(-13.521 27.008)" fill="#fff"/>
          <path id="Path_3626" data-name="Path 3626" d="M64.786,143.279l16.322-13.264S73.195,136.771,64.786,143.279Z" transform="translate(-10.704 30.813)" fill="#fff"/>
          <path id="Path_3627" data-name="Path 3627" d="M66.388,146.127l19.2-15.728S74.8,139.619,66.388,146.127Z" transform="translate(-9.463 31.111)" fill="#fff"/>
          <path id="Path_3628" data-name="Path 3628" d="M62.253,140.853l12.831-10.414S70.664,134.347,62.253,140.853Z" transform="translate(-12.666 31.142)" fill="#fff"/>
          <path id="Path_3629" data-name="Path 3629" d="M86.068,158.3s38.06-2.169,52.415,1.519C138.484,159.818,106.293,156.783,86.068,158.3Z" transform="translate(5.784 52.235)" fill="#fff"/>
          <path id="Path_3630" data-name="Path 3630" d="M118.666,160.1s8.263-.433,4.348,14.97C123.014,175.071,126.06,164.221,118.666,160.1Z" transform="translate(31.04 54.121)" fill="#fff"/>
          <path id="Path_3631" data-name="Path 3631" d="M37.051,161.567S34.222,179.574,46.4,190.2A40.009,40.009,0,0,1,37.051,161.567Z" transform="translate(-32.412 55.258)" fill="#fff"/>
          <path id="Path_3632" data-name="Path 3632" d="M71.978,43.879s-4.158-4.329-8.861-2.344c0,0-1.991.541-5.97,12.808,0,0,4.339-10.283,6.51-11.907S71.978,43.879,71.978,43.879Z" transform="translate(-16.623 -38.14)" fill="#fff"/>
          <path id="Path_3633-3" data-name="Path 3633" d="M45.285,67.538s6.551-10.475,17.389-8.109C62.674,59.429,52.963,58.414,45.285,67.538Z" transform="translate(-25.812 -24.143)" fill="#fff"/>
          <path id="Path_3634" data-name="Path 3634" d="M65.042,147.6s3.475,4.1,14.6.887,10.286-14.322,10.286-14.322.974,12.4-9.976,15.625C68.148,153.26,65.042,147.6,65.042,147.6Z" transform="translate(-10.506 34.028)" fill="#f93d66"/>
          <path id="Path_3635-2" data-name="Path 3635" d="M55.063,149.04s3.264,4.664,6.418,5.424,4.566-2.605,4.566-2.605-.978,4.014-4.458,3.36S55.063,149.04,55.063,149.04Z" transform="translate(-18.237 45.553)" fill="#f93d66"/>
          <path id="Path_3636" data-name="Path 3636" d="M101.79,177.56a1.05,1.05,0,0,1,.756-1.278h0a14.144,14.144,0,0,0,1.741-.626h0a8.154,8.154,0,0,0,2.815-1.871h0a1.054,1.054,0,0,1,1.484-.1h0a1.048,1.048,0,0,1,.1,1.48h0a12.66,12.66,0,0,1-5.612,3.145h0v0a1.035,1.035,0,0,1-.263.034h0a1.055,1.055,0,0,1-1.022-.79Z" transform="translate(17.94 64.447)" fill="#272c32"/>
          <path id="Path_3637" data-name="Path 3637" d="M105.62,178.319c-2.655-.28-3.354-2.085-3.358-2.295h0l0,0a.872.872,0,0,1,.646-1.058h0a.885.885,0,0,1,1.054.628h0a.218.218,0,0,0,.023.046h0a1.03,1.03,0,0,0,.2.277h0a2.627,2.627,0,0,0,1.64.66h0a.876.876,0,0,1,.765.973h0a.877.877,0,0,1-.87.77h0a.747.747,0,0,1-.108-.005Z" transform="translate(18.313 65.624)" fill="#272c32"/>
          <path id="Path_3638" data-name="Path 3638" d="M59.833,187.5c.225-.007.456-.023.683-.05h0a6.8,6.8,0,0,0,.948-.169h0l.213.841a7.627,7.627,0,0,1-1.067.192h0c-.252.025-.5.046-.745.055h0l-.032-.87Zm-3.532.36.273-.822a9.608,9.608,0,0,0,1.61.378h0l-.128.857a10.265,10.265,0,0,1-1.755-.414Zm6.7-1.148a9.655,9.655,0,0,0,1.416-.863h0v-.005l.513.7a10.34,10.34,0,0,1-1.544.944h0L63,186.714Zm-9.884-.5.508-.706a12.326,12.326,0,0,0,1.425.878h0l-.4.768a12.843,12.843,0,0,1-1.53-.941Zm12.579-1.45a16.418,16.418,0,0,0,1.159-1.237h0l.664.557a17.364,17.364,0,0,1-1.216,1.3h0l-.607-.623Zm-15.233-.919.641-.589q.583.634,1.207,1.194h0l-.584.642q-.655-.586-1.264-1.248ZM67.9,182.18c.327-.456.644-.934.946-1.423h0l.737.458c-.307.5-.635,1-.978,1.473h0l-.7-.508Zm-19.632-1.107.715-.49c.328.477.667.932,1.017,1.377h0l-.685.536c-.36-.456-.71-.934-1.047-1.423Zm21.439-1.8c.279-.508.543-1.015.793-1.532h0v.007l.781.38c-.257.52-.525,1.042-.811,1.562h0l-.763-.417Zm-23.287-1.2.763-.417q.418.753.864,1.484h.005l-.747.453c-.307-.493-.6-1-.886-1.519Zm24.806-1.89q.359-.812.669-1.594h0l.813.325c-.215.527-.442,1.068-.685,1.615h0l-.8-.346Zm-26.383-1.246.793-.364c.238.522.486,1.038.745,1.555h0l-.779.39q-.394-.788-.76-1.581Zm-1.365-3.228.811-.318c.2.527.421,1.065.651,1.6h0l-.8.337c-.229-.547-.447-1.09-.658-1.624Zm29.037,1.272c.213-.579.4-1.131.57-1.633h0v0l.825.277c-.169.513-.36,1.067-.577,1.656h0l-.818-.3Zm-30.224-4.565.825-.277c.176.529.362,1.072.568,1.631h0l-.822.3c-.2-.568-.394-1.122-.571-1.652ZM73.6,169.707c.311-1.038.461-1.665.465-1.665h0l.841.206s-.156.651-.47,1.707h0l-.836-.248Zm-32.345-4.632.838-.238c.144.513.309,1.072.492,1.659h0l-.834.254c-.185-.6-.348-1.161-.5-1.675Zm-.871-3.409.848-.188c.059.263.193.854.408,1.684h0l-.843.22c-.217-.847-.353-1.448-.414-1.716Z" transform="translate(-29.611 55.189)" fill="#272c32"/>
          <path id="Path_3639" data-name="Path 3639" d="M98.047,205.328l19.877-.445S101.021,207.708,98.047,205.328Z" transform="translate(15.065 88.817)" fill="#fff"/>
          <path id="Path_3640" data-name="Path 3640" d="M137.224,95.989h3.958c.747-.887,4.5-5.381,8.276-10.141h0c4.188-5.221,8.428-11.117,8.318-11.933h0v0h0c-.032-1.244-2.7-4.479-4.339-4.362h0c-.021,0-.055,0-.1.005h0c-1.757.067-21.467,10.648-24.261,11.987h0c-1.505.621-1.954,3.736-1.919,5.837h0a18.716,18.716,0,0,0,.089,1.881h0l-.871.726c0-.012-.106-1.466-.106-2.607h0c.034-2.155.22-5.514,2.428-6.643h0c2.868-1.333,22.163-11.839,24.57-12.07h0c.046,0,.1-.007.17-.007h0c2.479.117,4.964,3.333,5.23,5.212h0l0,.044h0c-.114,1.718-4.29,7.081-8.513,12.485h0c-4.211,5.319-8.423,10.32-8.423,10.32h0l-.133.156-5.232.012.855-.9Z" transform="translate(36.929 -16.723)" fill="#272c32"/>
          <path id="Path_3641" data-name="Path 3641" d="M83.32,106.31l21.865,6.645s15.218,2.93,22.635,5.976,33.594,9.138,33.594,9.138l14.833-3.264s5.892-5.656,8.072-5.656a5.463,5.463,0,0,1,3.706,1.739l3.056-.435,9.969,7.159s-2.547,3.159-5.166,1.807a35.344,35.344,0,0,0-6.2-2.27l-20.415,12.233a16.341,16.341,0,0,1-9.766,1.83c-5.5-.742-45.421-6.4-49.785-5.963a15.85,15.85,0,0,1-7.314-.855l-26.5-5.019Z" transform="translate(-2.091 12.448)" fill="#fff"/>
          <path id="Path_3642" data-name="Path 3642" d="M191.072,130.474a11.218,11.218,0,0,1-4.818-5.156h0l.7-.611c.014,0,.548.777,1.168,1.627h0a12.14,12.14,0,0,0,3.578,2.517h0a5,5,0,0,0,1.995.3h0a7.335,7.335,0,0,0,3.379-1.038h0c.11-.055.217-.106.318-.16h0c-2.392-1.72-7.381-5.3-8.386-5.889h0a2.638,2.638,0,0,0-1.278-.24h0a15.383,15.383,0,0,0-6.948,2.273h0c-4.5,2.508-22.193,5.8-22.277,5.844h0l-.2.036-.2-.039c-16.88-3.376-17.2-3.219-29.812-8.059h0a121.175,121.175,0,0,0-24.955-6.668h0c-5.5-.935-23.633-7.855-23.688-7.866h0L80.4,105.4c.025,0,18.344,6.952,23.288,7.756h0a123.579,123.579,0,0,1,25.356,6.778h0c12.56,4.811,12.484,4.558,29.266,7.924h0c.907-.176,4.866-.949,9.223-1.95h0c4.928-1.118,10.487-2.605,12.216-3.619h0a17.29,17.29,0,0,1,7.985-2.545h0a4.544,4.544,0,0,1,2.348.532h0c1.576.944,9.8,6.9,9.822,6.913h0l1.171.845-1.171.843a12.3,12.3,0,0,1-6.19,2.227h0a5.478,5.478,0,0,1-2.636-.634Z" transform="translate(0.81 11.746)" fill="#272c32"/>
          <path id="Path_3643" data-name="Path 3643" d="M132.508,121.152v0h0l0,0Zm-1.338-1.6c.005,0,1.769-1.473,3.729-3h0c2.039-1.544,3.928-3.051,5.189-3.436h0a3.578,3.578,0,0,1,.909-.106h0a8.981,8.981,0,0,1,4.125,1.395h0l-1.136,1.753a8.986,8.986,0,0,0-1.024-.543h0a5.257,5.257,0,0,0-1.965-.527h0a1.605,1.605,0,0,0-.4.046h0a29.563,29.563,0,0,0-4.419,3.063h0c-1.89,1.469-3.338,2.5-3.4,2.559h0l-1.61-1.205Z" transform="translate(40.727 17.637)" fill="#272c32"/>
          <path id="Path_3644" data-name="Path 3644" d="M77.138,117.137s16.411,4.605,26.155,5.8a11.622,11.622,0,0,0,5.812,1.7,285.985,285.985,0,0,1,32.826,3.922c18.291,3.239,21.095,4.169,29.692.122a12.521,12.521,0,0,1-12.086,4.139c-8.036-1.363-35.559-4.261-35.559-4.261l-11.438-1.484s-8.05.632-10.1-1.074l-26.582-4.132Z" transform="translate(-2.128 20.836)" fill="#f93d66"/>
          <path id="Path_3645" data-name="Path 3645" d="M161.776,134.139a20.052,20.052,0,0,1-2.648-.183h0c-30.041-4.227-40.156-5.354-45.984-5.617h0c-.6-.025-1.233-.036-1.88-.036h0c-.66,0-1.342.007-2.014.007h0c-2.515-.048-4.985.009-6.709-1.319h0c-2.233-.291-16.58-2.2-27.063-4.607h0l.469-2.03c11.227,2.582,27.127,4.609,27.152,4.613h0l.353.043.256.25c.587.715,2.932,1.015,5.543.967h0c.658,0,1.34-.007,2.014-.007h0c.667,0,1.329.011,1.972.039h0c6,.273,16.127,1.407,46.177,5.635h0a17.885,17.885,0,0,0,2.362.163h0c6.418,0,10.326-3.8,12.821-5.48h0c2.714-1.8,16.482-9.529,16.5-9.539h0l1.026,1.812c-.018.012-13.863,7.788-16.374,9.461h0c-2.178,1.425-6.7,5.828-13.957,5.828h-.02Z" transform="translate(-2.42 20.759)" fill="#272c32"/>
        </g>
        <path id="Path_3646" data-name="Path 3646" d="M178,108.722a2.565,2.565,0,1,1-2.527-3A2.791,2.791,0,0,1,178,108.722Z" transform="translate(77.632 11.995)" fill="#f93d66"/>
        <path id="Path_3647" data-name="Path 3647" d="M172.707,108.843a3.107,3.107,0,0,1,2.856-3.3h0a3.11,3.11,0,0,1,2.857,3.3h0a3.108,3.108,0,0,1-2.857,3.3h0a3.1,3.1,0,0,1-2.856-3.3Zm.382,0a2.734,2.734,0,0,0,2.474,2.918h0a2.733,2.733,0,0,0,2.476-2.918h0a2.732,2.732,0,0,0-2.476-2.919h0a2.733,2.733,0,0,0-2.474,2.919Z" transform="translate(77.451 11.851)" fill="#272c32"/>
        <path id="Path_3648" data-name="Path 3648" d="M185.38,122.238c0,5.125-3.459,9.28-7.727,9.28s-7.841-4.155-7.841-9.28,3.573-9.28,7.841-9.28S185.38,117.114,185.38,122.238Z" transform="translate(75.208 17.598)" fill="#f93d66"/>
        <path id="Path_3649" data-name="Path 3649" d="M169.49,122.333c.011-5.2,3.674-9.475,8.308-9.479h0c4.621.009,8.281,4.281,8.292,9.479h0c-.011,5.2-3.67,9.475-8.292,9.482h0c-4.634-.007-8.3-4.281-8.308-9.482Zm.671,0c0,4.9,3.447,8.8,7.637,8.813h0c4.172-.009,7.621-3.915,7.624-8.813h0c0-4.9-3.452-8.8-7.624-8.808h0c-4.19.007-7.633,3.91-7.637,8.808Z" transform="translate(74.959 17.518)" fill="#272c32"/>
        <path id="Path_3650" data-name="Path 3650" d="M170.641,119.663s.3-3.993,3.993-5.241" transform="translate(75.851 18.733)" fill="none" stroke="#fff" stroke-linecap="round" stroke-width="0.75"/>
        <path id="Path_3651" data-name="Path 3651" d="M166.688,103.619,179.5,98.379l25.268,2.674,1.9,2.251.591,41.224-11.134,4.856-.355-41.815-1.778-1.3Z" transform="translate(72.788 6.304)" fill="#272c32"/>
        <path id="Path_3652" data-name="Path 3652" d="M182.874,106.289l9.38-4.373L182.7,105.47Z" transform="translate(85.193 9.044)" fill="#fff"/>
        <path id="Path_3653" data-name="Path 3653" d="M89.63,116.109c0-.016.415-10.746.415-13.983h0a6.661,6.661,0,0,1,3.537-5.74h0l.208-.108,19.877,1.008.1,2.19S96.31,97.345,94.411,98.449a3.8,3.8,0,0,0-1,.816h0a4.069,4.069,0,0,0-1.168,2.861h0c0,3.349-.419,14.058-.415,14.067h0l-2.2-.083Z" transform="translate(13.087 4.676)" fill="#272c32"/>
        <path id="Path_3654" data-name="Path 3654" d="M105.718,108.778l1.771-.015.059,8.251-1.772.015-.058-8.251Z" transform="translate(25.552 14.348)" fill="#272c32"/>
        <path id="Path_3655" data-name="Path 3655" d="M116.837,109.739l-.015,11.073-10.228-3.158-.01-8.654Z" transform="translate(26.222 14.532)" fill="#272c32"/>
        <path id="Path_3656" data-name="Path 3656" d="M102.232,100.7s-7.523-2.383-7.931,5.809" transform="translate(16.706 7.855)" fill="#272c32"/>
        <path id="Path_3657" data-name="Path 3657" d="M91.857,97.424s5.189-2.1,7.741-2.38,12.256.091,12.256.091l-.089,4.265-18.843-.978-.976-.557" transform="translate(14.813 3.638)" fill="#272c32"/>
        <path id="Path_3658" data-name="Path 3658" d="M134.391,97.043a1.529,1.529,0,0,1-1.406,1.627l-14.91-.005c-.777,0,.637-.722.637-1.622h0a1.528,1.528,0,0,1,1.406-1.626h12.867a1.529,1.529,0,0,1,1.406,1.626Z" transform="translate(34.945 4.009)" fill="#272c32"/>
        <path id="Path_3659" data-name="Path 3659" d="M166.257,78.515A1.934,1.934,0,0,1,164.2,80.29H150.643a1.931,1.931,0,0,1-2.059-1.775h0a1.93,1.93,0,0,1,2.059-1.775H164.2a1.933,1.933,0,0,1,2.059,1.775Z" transform="translate(58.762 -10.462)" fill="#272c32"/>
        <path id="Path_3660" data-name="Path 3660" d="M162.886,80.716c-.014.346-.506.612-1.1.6l-12.006-.343c-.591-.018-1.06-.312-1.045-.657h0c.014-.346.5-.614,1.093-.6l12.006.344c.591.016,1.063.311,1.049.655Z" transform="translate(58.881 -8.156)" fill="#f93d66"/>
        <path id="Path_3661" data-name="Path 3661" d="M166.253,87.8a1.94,1.94,0,0,1-2.094,1.741l-13.552-.217a1.916,1.916,0,0,1-2.021-1.807h0a1.947,1.947,0,0,1,2.1-1.743l13.552.218a1.917,1.917,0,0,1,2.02,1.807Z" transform="translate(58.763 -3.464)" fill="#272c32"/>
        <path id="Path_3662" data-name="Path 3662" d="M162.98,90.047c-.02.346-.513.609-1.1.586l-12-.456c-.591-.023-1.056-.321-1.035-.667h0c.018-.346.508-.607,1.1-.584l12,.456c.593.021,1.058.321,1.04.666Z" transform="translate(58.958 -1.022)" fill="#f93d66"/>
        <path id="Path_3663" data-name="Path 3663" d="M166.256,97.462a1.945,1.945,0,0,1-2.1,1.734L150.6,98.933a1.915,1.915,0,0,1-2.013-1.814h0a1.944,1.944,0,0,1,2.1-1.734l13.552.263a1.915,1.915,0,0,1,2.013,1.814Z" transform="translate(58.766 3.984)" fill="#272c32"/>
        <path id="Path_3664" data-name="Path 3664" d="M162.97,99.7c-.02.346-.515.607-1.106.58l-12-.5c-.591-.025-1.054-.325-1.031-.669h0c.02-.346.511-.609,1.1-.582l12,.5c.591.023,1.056.323,1.035.669Z" transform="translate(58.954 6.424)" fill="#f93d66"/>
        <path id="Path_3665" data-name="Path 3665" d="M108.684,75.469a.878.878,0,1,1-.877-.879A.876.876,0,0,1,108.684,75.469Z" transform="translate(26.49 -12.127)" fill="#272c32"/>
        <path id="Path_3666" data-name="Path 3666" d="M110.106,75.452a.878.878,0,1,1-.877-.877A.876.876,0,0,1,110.106,75.452Z" transform="translate(27.591 -12.139)" fill="#272c32"/>
        <path id="Path_3667" data-name="Path 3667" d="M111.465,75.438a.878.878,0,1,1-.877-.879A.876.876,0,0,1,111.465,75.438Z" transform="translate(28.644 -12.151)" fill="#272c32"/>
      </g>
      <g id="Group_6203" data-name="Group 6203" transform="translate(432.91 160.264)">
        <path id="Path_4561" data-name="Path 4561" d="M168.632,293.882l-14,4.46,1.741,13.089a3.593,3.593,0,0,0-1.017-.391,2.85,2.85,0,0,0-2.2.441,5.15,5.15,0,0,0-1.543,1.671l-.167.268-.049.077.313.261a5.285,5.285,0,0,0,2.08,1,.629.629,0,0,1,.069.014,2.93,2.93,0,0,0,2.2-.414,3.987,3.987,0,0,0,1.373-1.636l.111-.221.031-.064-.162-.181-1.3-9.994,12.2-3.759,1.142,8.586a3.548,3.548,0,0,0-1.107-.446,2.848,2.848,0,0,0-2.2.441,5.155,5.155,0,0,0-1.543,1.673l-.166.264-.049.078.31.261a5.239,5.239,0,0,0,2.082,1l.063.016a2.954,2.954,0,0,0,2.21-.413,3.988,3.988,0,0,0,1.373-1.637l.013-.029h0l.1-.01-.014-.1-.007-.054.013-.02.031-.066-.066-.072Z" transform="translate(-151.4 -267.559)" fill="#272c32"/>
        <path id="Path_4562" data-name="Path 4562" d="M179,293.882l-22.423,7.142,2.789,20.963a5.754,5.754,0,0,0-1.629-.626,4.566,4.566,0,0,0-3.519.707,8.249,8.249,0,0,0-2.471,2.675l-.267.428-.078.124.5.419a8.466,8.466,0,0,0,3.332,1.609.941.941,0,0,1,.11.023,4.693,4.693,0,0,0,3.528-.663,6.384,6.384,0,0,0,2.2-2.619l.177-.355.049-.1-.259-.291-2.089-16,19.533-6.019,1.83,13.751a5.678,5.678,0,0,0-1.774-.714,4.56,4.56,0,0,0-3.517.707,8.255,8.255,0,0,0-2.471,2.679l-.266.423-.078.124.5.417a8.386,8.386,0,0,0,3.334,1.609l.1.026a4.731,4.731,0,0,0,3.539-.662,6.387,6.387,0,0,0,2.2-2.622l.02-.046h.007l.166-.016-.023-.168-.011-.087.02-.031.05-.106-.1-.115Z" transform="translate(-99.32 -293.882)" fill="#f93d66"/>
      </g>
      <g id="Group_6204" data-name="Group 6204" transform="translate(102.96 243.448)">
        <path id="Path_4548" data-name="Path 4548" d="M1725.937,269.16l1.241,2.268,2.268,1.239-2.268,1.241-1.241,2.268-1.241-2.268-2.266-1.241,2.266-1.239Z" transform="translate(-1701.927 -234.489)" fill="#f93d66"/>
        <path id="Path_4555" data-name="Path 4555" d="M1864.3,183.88l1.241,2.266,2.268,1.241-2.268,1.241L1864.3,190.9l-1.239-2.268-2.268-1.241,2.268-1.241Z" transform="translate(-1814.073 -165.366)" fill="#f93d66"/>
        <path id="Path_4556" data-name="Path 4556" d="M1622.309,86.16l2.865,5.237,5.236,2.865-5.236,2.865-2.865,5.237-2.862-5.237-5.237-2.865,5.237-2.865Z" transform="translate(-1614.21 -86.16)" fill="#f93d66"/>
      </g>
      <g id="Group_6205" data-name="Group 6205" transform="translate(483.493 370.6)">
        <path id="Path_4548-2" data-name="Path 4548" d="M1724.785,269.16l.833,1.523,1.523.832-1.523.833-.833,1.523-.833-1.523-1.522-.833,1.522-.832Z" transform="translate(-1708.659 -245.874)" fill="#f93d66"/>
        <path id="Path_4555-2" data-name="Path 4555" d="M1863.145,183.88l.833,1.522,1.523.833-1.523.833-.833,1.523-.832-1.523-1.523-.833,1.523-.833Z" transform="translate(-1829.413 -171.446)" fill="#f93d66"/>
        <path id="Path_4556-2" data-name="Path 4556" d="M1619.65,86.16l1.924,3.517,3.517,1.924-3.517,1.924-1.924,3.517-1.922-3.517L1614.21,91.6l3.517-1.924Z" transform="translate(-1614.21 -86.16)" fill="#f93d66"/>
      </g>
      <g id="Group_6207" data-name="Group 6207" transform="translate(343.068 329.648)">
        <path id="Path_4548-3" data-name="Path 4548" d="M1724.785,269.16l.833,1.523,1.523.832-1.523.833-.833,1.523-.833-1.523-1.522-.833,1.522-.832Z" transform="translate(-1722.43 -258.308)" fill="#f93d66"/>
        <path id="Path_4555-3" data-name="Path 4555" d="M1863.145,183.88l.833,1.522,1.523.833-1.523.833-.833,1.523-.832-1.523-1.523-.833,1.523-.833Z" transform="translate(-1843.184 -183.88)" fill="#f93d66"/>
      </g>
      <g id="Group_6206" data-name="Group 6206" transform="translate(302.293 104.942)">
        <path id="Path_4548-4" data-name="Path 4548" d="M1724.785,269.16l.833,1.523,1.523.832-1.523.833-.833,1.523-.833-1.523-1.522-.833,1.522-.832Z" transform="translate(-1708.659 -245.874)" fill="#f93d66"/>
        <path id="Path_4555-4" data-name="Path 4555" d="M1863.145,183.88l.833,1.522,1.523.833-1.523.833-.833,1.523-.832-1.523-1.523-.833,1.523-.833Z" transform="translate(-1829.413 -171.446)" fill="#f93d66"/>
        <path id="Path_4556-3" data-name="Path 4556" d="M1619.65,86.16l1.924,3.517,3.517,1.924-3.517,1.924-1.924,3.517-1.922-3.517L1614.21,91.6l3.517-1.924Z" transform="translate(-1614.21 -86.16)" fill="#f93d66"/>
      </g>
    </g>
  </g>
</svg>
