<?xml version="1.0" encoding="UTF-8" standalone="no"?>
<!DOCTYPE svg PUBLIC "-//W3C//DTD SVG 1.1//EN" "http://www.w3.org/Graphics/SVG/1.1/DTD/svg11.dtd">
<svg width="100%" height="100%" viewBox="0 0 3331 2216" version="1.1" xmlns="http://www.w3.org/2000/svg" xmlns:xlink="http://www.w3.org/1999/xlink" xml:space="preserve" xmlns:serif="http://www.serif.com/" style="fill-rule:evenodd;clip-rule:evenodd;stroke-linecap:round;stroke-miterlimit:10;">
    <g transform="matrix(1,0,0,1,785.276,2093.85)">
        <path d="M0,-32.499L0,-11.199C0,-11.199 22.6,0.4 99.6,0.4C176.6,0.4 201.7,-11.199 201.7,-11.199L201.3,-32.899L0,-32.499Z" style="fill:rgb(249,61,102);fill-rule:nonzero;"/>
    </g>
    <g transform="matrix(0,-1,-1,0,886.176,1958.85)">
        <path d="M-100.801,-100.801C-106.801,-100.801 -111.701,-55.7 -111.701,-0.001C-111.701,55.7 -106.801,100.801 -100.801,100.801C-94.801,100.801 -89.9,55.7 -89.9,-0.001C-89.9,-55.7 -94.701,-100.801 -100.801,-100.801" style="fill:rgb(249,61,102);fill-rule:nonzero;"/>
    </g>
    <g transform="matrix(0,-1,-1,0,886.176,1958.85)">
        <path d="M-100.801,-100.801C-106.801,-100.801 -111.701,-55.7 -111.701,-0.001C-111.701,55.7 -106.801,100.801 -100.801,100.801C-94.801,100.801 -89.9,55.7 -89.9,-0.001C-89.9,-55.7 -94.701,-100.801 -100.801,-100.801Z" style="fill:none;fill-rule:nonzero;stroke:black;stroke-width:4px;"/>
    </g>
    <g transform="matrix(1,0,0,1,3269.08,1945.65)">
        <path d="M0,-35L7.5,-9C4.3,-10.6 -0.3,-9.2 -3.2,-5.6C-6.399,-1.5 -6.399,3.9 -3.2,6.5C0.1,9.1 5.3,7.8 8.5,3.8C10.4,1.5 11.2,-1.5 10.8,-4.4L3.4,-30.2L13,-35.1C16.3,-36.8 18.3,-40.3 18,-44L18,-44.1L0,-35Z" style="fill:rgb(39,44,50);fill-rule:nonzero;"/>
    </g>
    <g transform="matrix(1,0,0,1,606.875,-285.844)">
        <path d="M0,2311.1C0,2311.1 -667.6,2251.5 -557.699,1857.5C-447.8,1463.4 -385.5,1440.7 -585.6,978.299C-785.7,515.799 475.7,-0.101 1101,474.399C1726.3,948.799 2067.6,639.2 2507.1,913.899C2946.6,1188.6 2657.2,1987.1 2169.4,2311.2L0,2311.2L0,2311.1Z" style="fill:rgb(255,234,238);fill-rule:nonzero;"/>
    </g>
    <g transform="matrix(1,0,0,1,843.976,1895.85)">
        <path d="M0,-251.9L82.899,-251.9L73.2,0L9.7,0L0,-251.9Z" style="fill:rgb(39,44,50);fill-rule:nonzero;"/>
    </g>
    <g transform="matrix(-0.0275692,0.99962,0.99962,0.0275692,989.92,1981.85)">
        <path d="M-128.076,-85.707L82.304,-85.707L83.216,-118.795L-126.844,-130.39L-128.076,-85.707Z" style="fill:rgb(39,44,50);fill-rule:nonzero;"/>
    </g>
    <g transform="matrix(0,1,1,0,890.676,1439.15)">
        <path d="M173.099,-173.101C224.099,-173.101 265.4,-95.601 265.4,0C265.4,95.599 224.099,173.099 173.099,173.099C122.099,173.099 80.799,95.599 80.799,0C80.799,-95.601 122.099,-173.101 173.099,-173.101" style="fill:rgb(39,44,50);fill-rule:nonzero;"/>
    </g>
    <g transform="matrix(0,1,1,0,906.526,1335.5)">
        <path d="M211.65,-243.35C250.65,-243.35 282.35,-141.451 282.35,-15.85C282.35,109.75 250.75,211.65 211.65,211.65C172.65,211.65 184.45,109.75 184.45,-15.85C184.45,-141.55 172.65,-243.35 211.65,-243.35" style="fill:rgb(64,82,242);fill-rule:nonzero;"/>
    </g>
    <g transform="matrix(0,1,1,0,906.526,1335.5)">
        <path d="M211.65,-243.35C250.65,-243.35 282.35,-141.451 282.35,-15.85C282.35,109.75 250.75,211.65 211.65,211.65C172.65,211.65 184.45,109.75 184.45,-15.85C184.45,-141.55 172.65,-243.35 211.65,-243.35" style="fill:rgb(249,61,102);fill-rule:nonzero;"/>
    </g>
    <g transform="matrix(1,0,0,1,464.375,901.354)">
        <path d="M0,254.201L2382,254.201L2099.6,0L285.5,0" style="fill:rgb(255,234,238);fill-rule:nonzero;stroke:rgb(9,0,0);stroke-width:4px;"/>
    </g>
    <g transform="matrix(1,0,0,1,1498.38,949.455)">
        <path d="M0,-35.4C0,-35.4 -20,-18.2 21.601,-6.8C63.2,4.6 259.9,-18.3 247.9,-28.9C235.9,-39.5 178.2,-40 0,-35.4" style="fill:rgb(249,61,102);fill-rule:nonzero;"/>
    </g>
    <g transform="matrix(1,0,0,1,1316.18,1088.95)">
        <path d="M0,-74.7C0,-74.7 -39.9,-38.5 43,-14.3C125.8,9.8 517.3,-38.5 493.5,-61C469.6,-83.399 354.699,-84.5 0,-74.7" style="fill:rgb(249,61,102);fill-rule:nonzero;"/>
    </g>
    <g transform="matrix(1,0,0,1,2494.68,581.055)">
        <path d="M0,-267.8C46.1,-167.1 85.1,-119.9 108.199,-99.9C132.8,-78.5 157,-21.2 157,-21.2C140.399,-107.2 79.899,-109.2 14.3,-267.2C-51.301,-425.3 -117.4,-384.2 -117.4,-384.2C-132.9,-380.8 -140.5,-370.7 -140.5,-370.7C-55.801,-319.4 -93.301,-36 -34,60.7C25.3,157.5 120.899,102.3 134.899,43.3C148.899,-15.7 22.8,-197.3 7.199,-244.4C4.6,-252.2 2.3,-260.1 0,-267.8" style="fill:rgb(39,44,50);fill-rule:nonzero;"/>
    </g>
    <g transform="matrix(1,0,0,1,-851.547,-561.304)">
        <rect x="1315.92" y="1716.86" width="2382" height="66.1" style="fill:rgb(41,63,88);stroke:black;stroke-width:1px;"/>
    </g>
    <g transform="matrix(1,0,0,1,2363.78,2111.65)">
        <path d="M0,-206C0,-206 -13.5,-133.1 -3.7,-100.9C6.1,-68.7 -115.3,29.4 -127.5,25.7C-139.601,22 -160.2,-15.9 -160.2,-15.9C-160.2,-15.9 -81.3,-96.7 -80.1,-118.6C-78.9,-140.6 -68.7,-235.4 -68.7,-235.4L0,-206Z" style="fill:white;fill-rule:nonzero;stroke:black;stroke-width:4px;"/>
    </g>
    <g transform="matrix(1,0,0,1,2359.08,2164.76)">
        <path d="M0,-157.9C0,-157.9 -79.3,-69.4 -105.899,-58.2C-105.899,-58.2 -119.899,-52.4 -151.399,-77.3C-151.399,-77.3 -153.5,-78.9 -163.1,-70.1C-172.7,-61.2 -213.3,-27.6 -200.7,-7.1C-188.1,13.4 -135.3,14.9 -91.899,-25.8C-48.5,-66.4 -11.1,-94.9 4.8,-101.9C4.8,-101.9 10.601,-103.3 9.9,-112.2C9.2,-121.001 10.2,-172.8 0,-157.9Z" style="fill:rgb(39,44,50);fill-rule:nonzero;stroke:black;stroke-width:4px;"/>
    </g>
    <g transform="matrix(1,0,0,1,2554.68,2135.85)">
        <path d="M0,-205.999C0,-205.999 13.5,-133.1 3.699,-100.899C-6.101,-68.699 115.3,29.4 127.5,25.701C139.6,22.001 160.199,-15.899 160.199,-15.899C160.199,-15.899 81.3,-96.699 80.1,-118.6C78.899,-140.6 68.699,-235.399 68.699,-235.399L0,-205.999Z" style="fill:white;fill-rule:nonzero;stroke:black;stroke-width:4px;"/>
    </g>
    <g transform="matrix(-0.0929988,0.995666,0.995666,0.0929988,2357.29,1896.69)">
        <path d="M6.759,-61.957L40.104,-61.957C40.104,-61.957 60.281,-34.964 40.132,3.328L8.26,4.772L6.759,-61.957Z" style="fill:rgb(249,61,102);fill-rule:nonzero;"/>
    </g>
    <g transform="matrix(0.109098,0.994031,0.994031,-0.109098,2600.69,1917.61)">
        <path d="M18.954,-44.048L51.952,-44.048C51.952,-44.048 63.874,7.761 42.685,21.857L10.063,22.52L18.954,-44.048Z" style="fill:rgb(249,61,102);fill-rule:nonzero;"/>
    </g>
    <g transform="matrix(1,0,0,1,2128.28,380.155)">
        <path d="M0,-231.8C0,-231.8 -32,-194 -23.5,-156.7C-13.2,-111.5 -57.7,-80.4 -49.5,-77.3C-41.3,-74.2 -15.3,-68.3 -15.3,-68.3C-15.3,-68.3 -1.5,-5.6 19.5,-4.4C40.5,-3.2 98.6,-25.6 98.6,-25.6L112.8,32.8L184.5,10.4L163.5,-88.1C163.5,-88.1 89.8,-264.6 0,-231.8Z" style="fill:white;fill-rule:nonzero;stroke:black;stroke-width:4px;"/>
    </g>
    <g transform="matrix(-0.751651,0.659561,0.659561,0.751651,2254.07,210.61)">
        <path d="M58.079,-127.269C58.079,-127.269 63.915,-104.851 58.258,-80.064C52.601,-55.277 74.236,10.618 58.079,12.823C41.919,15.029 46.571,-129.012 46.571,-129.012L58.079,-127.269Z" style="fill:rgb(249,61,102);fill-rule:nonzero;"/>
    </g>
    <g transform="matrix(0.89542,-0.445223,-0.445223,-0.89542,2232.74,361.633)">
        <path d="M-2.102,8.95C-2.102,8.95 23.928,8.069 38.102,8.95" style="fill:none;fill-rule:nonzero;stroke:black;stroke-width:4px;"/>
    </g>
    <g transform="matrix(1,0,0,1,2079.48,1254.56)">
        <path d="M0,-127.802C0,-127.802 -33.601,-98.001 -40.9,-87.602C-48.2,-77.201 -49.9,-66.102 -48.9,-45.302C-47.9,-24.501 -41.3,-7.802 -36.1,-8.501C-30.9,-9.201 -29.9,-12.001 -29.9,-12.001C-29.9,-12.001 -21.6,-6.802 -13.9,-12.001C-13.9,-12.001 -12.9,-1.602 11.1,-1.602C11.1,-1.602 16,28.199 27.4,22.699C38.8,17.199 35,-10.301 31.6,-20.001C31.6,-20.001 28.9,-69.301 35.1,-70.001C41.3,-70.701 72.5,-69.701 72.5,-69.701L54.1,-126.201C54.1,-126.102 30.1,-156.001 0,-127.802Z" style="fill:white;fill-rule:nonzero;stroke:black;stroke-width:4px;"/>
    </g>
    <g transform="matrix(1,0,0,1,2234.38,1094.55)">
        <path d="M0,-698.6C0,-698.6 31.4,-688.3 59,-704.4C86.601,-720.5 92,-728.1 92,-728.1C92,-728.1 95.301,-732.5 97.5,-726.8C99.801,-721.1 111.7,-679.5 124.9,-676.8C138.101,-674.2 251,-660.1 276.7,-633.1C302.4,-606 326,-301.5 270.301,-255.9C258.9,-246.5 223.5,-239.5 223.5,-239.5L-100.8,33.9C-100.8,33.9 -137.199,25.6 -161.199,33.9C-161.199,33.9 -140.399,-255.4 -145.6,-294.9C-150.8,-334.4 -163.3,-649.2 -79.999,-659.6C3.301,-670 -6.1,-678.3 -6.899,-695C-6.899,-695 -8.699,-703.2 0,-698.6Z" style="fill:white;fill-rule:nonzero;stroke:black;stroke-width:4px;"/>
    </g>
    <g transform="matrix(1,0,0,1,2403.58,650.155)">
        <path d="M0,-223C0,-223 -19.899,-190.5 -23.399,-166.9C-26.899,-143.3 -35.2,-67.3 -44.6,-63.5C-54,-59.7 -223.899,-63.5 -223.899,-63.5L-225.6,-14.9C-225.6,-14.9 -15.399,0 -6,-50.3C3.4,-100.6 14.101,-219.2 14.101,-219.2L0,-223Z" style="fill:rgb(249,61,102);fill-rule:nonzero;"/>
    </g>
    <g transform="matrix(-0.999035,-0.0439118,-0.0439118,0.999035,2138.65,1130.07)">
        <path d="M15.02,-638.27C15.02,-638.27 47.772,-520.318 36.734,-435.421C25.695,-350.524 15.02,-5.159 15.02,-5.159C15.02,-5.159 -6.029,0.021 -12.838,-4.482C-19.651,-8.885 -26.709,-574.741 15.02,-638.27" style="fill:rgb(249,61,102);fill-rule:nonzero;"/>
    </g>
    <g transform="matrix(1,0,0,1,2154.38,772.055)">
        <path d="M0,-344.4C0,-344.4 12.9,-343.4 31.2,-344.4C31.2,-344.4 36.4,-347.8 31.2,-330.9C26,-314 22.4,-205.8 22.9,-180.3C22.9,-180.3 132.7,-153.5 221.101,-180.3C221.101,-180.3 231.4,-318 261.101,-344.7C261.101,-344.7 260.3,-350.1 297.3,-341C297.3,-341 263.5,-285.7 272.101,-168.3C277.3,-96.6 266.601,-21.5 266.601,-21.5L112.101,-6.7L112.101,-0.5L-6.5,5.7C-6.5,5.7 -10.5,-43.6 -20.5,-85.6C-34.3,-143.1 -2.1,-185 0,-344.4" style="fill:rgb(39,44,50);fill-rule:nonzero;stroke:black;stroke-width:9.6px;"/>
    </g>
    <g transform="matrix(1,0,0,1,2681.98,852.955)">
        <path d="M0,1059.1C-70.8,1117.4 -250.8,1095.5 -250.8,1095.5L-281,935.299L-281,1061.2C-281,1061.2 -307,1067.4 -439.2,1054.9C-571.4,1042.4 -596.3,1031 -596.3,1031C-609.8,893.6 -516.2,0.499 -516.2,0.499C-516.1,0.399 -516,0.3 -515.9,0.1C-463.6,-58.3 -412.2,-37.8 -412.2,-37.8L-410.1,-30.5C-280.3,5.7 -225.6,2.1 -224.3,2C-224.2,46.5 -187.4,112.1 -187.4,112.1C-95.7,272.4 0,1059.1 0,1059.1Z" style="fill:rgb(39,44,50);fill-rule:nonzero;stroke:black;stroke-width:4px;"/>
    </g>
    <g transform="matrix(1,0,0,1,2261.48,864.755)">
        <path d="M0,-18.8C-57.8,0.5 -96,20.7 -96,20.7C-96,20.7 -95.5,4.3 -95.4,-11.7C-43.1,-70.1 8.3,-49.6 8.3,-49.6L10.4,-42.3C140.2,-6.1 194.9,-9.699 196.2,-9.8C195.2,-8.4 194.4,-7.699 194.4,-7.699C194.4,-7.699 192.7,8.6 201,29.901C209.399,51.3 57.8,-38 0,-18.8" style="fill-rule:nonzero;"/>
    </g>
    <g transform="matrix(1,0,0,1,2269.88,856.055)">
        <path d="M0,-40.8C0,-40.8 -11.1,-43.6 -24.6,-35.2C-38.1,-26.9 -54.399,-16.1 -89.1,-5.7C-89.1,-5.7 -108.899,15.5 -112.3,23.4C-115.8,31.4 -137.6,45.9 -143.199,45.3C-148.8,44.6 -154.3,39.1 -144.899,32.1C-135.5,25.2 -115.1,10.6 -111.6,-8.1C-111.6,-8.1 -118.199,-8.8 -144.199,5.8C-170.199,20.4 -189.3,32.2 -199,20.7C-199,20.7 -202.1,16.2 -194.5,11.3C-194.5,11.3 -216.699,16.5 -213.899,-1.5C-213.899,-1.5 -176.8,-22.7 -168.5,-30.6C-168.5,-30.6 -205.3,-15 -216.699,-29.9C-216.699,-29.9 -218.8,-34.4 -208,-36.5C-197.199,-38.6 -147.8,-63.6 -136.399,-71.9C-125.1,-80.2 -116.699,-86.7 -62.3,-85.4C-7.8,-84.1 -3.199,-84.4 -3.199,-84.4L0,-40.8Z" style="fill:white;fill-rule:nonzero;stroke:black;stroke-width:4px;"/>
    </g>
    <g transform="matrix(0.8053,-0.592867,-0.592867,-0.8053,2093.58,880.291)">
        <path d="M-7.011,21.35C-7.011,21.35 51.912,16.713 65.011,21.35" style="fill:none;fill-rule:nonzero;stroke:black;stroke-width:4px;"/>
    </g>
    <g transform="matrix(0.816241,-0.577712,-0.577712,-0.816241,2109.69,831.711)">
        <path d="M-3.197,10.05C-3.197,10.05 26.228,9.561 31.596,10.05" style="fill:none;fill-rule:nonzero;stroke:black;stroke-width:4px;"/>
    </g>
    <g transform="matrix(1,0,0,1,2084.38,1252.75)">
        <path d="M0,-61.1C1.301,-61.4 -1.1,-23.6 2,-14.3C5.101,-4.9 6.2,0.3 6.2,0.3" style="fill:none;fill-rule:nonzero;stroke:black;stroke-width:4px;"/>
    </g>
    <g transform="matrix(0.113855,0.993497,0.993497,-0.113855,2088.07,1210.39)">
        <path d="M-25.058,-26.007C-25.058,-26.007 15.734,-32.796 29.397,-26.007" style="fill:none;fill-rule:nonzero;stroke:black;stroke-width:4px;"/>
    </g>
    <g transform="matrix(1,0,0,1,2043.08,1242.65)">
        <path d="M0,-42C0,-42 -2.8,-20.5 0,-14.6C2.8,-8.7 6.601,0 6.601,0" style="fill:none;fill-rule:nonzero;stroke:black;stroke-width:4px;"/>
    </g>
    <g transform="matrix(-0.171534,-0.985178,-0.985178,0.171534,2679.82,1308.85)">
        <path d="M-424.47,356.95L300.17,356.95" style="fill:none;fill-rule:nonzero;stroke:black;stroke-width:4px;"/>
    </g>
    <g transform="matrix(0.729791,0.68367,0.68367,-0.729791,2454.79,892.746)">
        <path d="M-24.603,-62.25C-24.603,-62.25 74.358,-99.58 157.502,-62.25" style="fill:none;fill-rule:nonzero;stroke:black;stroke-width:4px;"/>
    </g>
    <g transform="matrix(1,0,0,1,1657.18,867.855)">
        <path d="M0,13.3C-12.7,-5.2 -13.9,-30.1 -13.9,-30.1L-98.601,-30.1C-98.601,-30.1 -99.8,-5.2 -112.5,13.3C-125.2,31.8 -151.8,43.4 -151.8,43.4L39.1,43.4C39.3,43.3 12.699,31.8 0,13.3" style="fill:rgb(39,44,50);fill-rule:nonzero;"/>
    </g>
    <g transform="matrix(1,0,0,1,1657.18,867.855)">
        <path d="M0,13.3C-12.7,-5.2 -13.9,-30.1 -13.9,-30.1L-98.601,-30.1C-98.601,-30.1 -99.8,-5.2 -112.5,13.3C-125.2,31.8 -151.8,43.4 -151.8,43.4L39.1,43.4C39.3,43.3 12.699,31.8 0,13.3Z" style="fill:none;fill-rule:nonzero;stroke:black;stroke-width:4px;"/>
    </g>
    <g transform="matrix(1,0,0,1,2018.88,308.555)">
        <path d="M0,515.6C0,530.9 -12.399,543.3 -27.699,543.3L-810.5,543.3C-825.8,543.3 -838.199,530.9 -838.199,515.6L-838.199,0C-838.199,-15.3 -825.8,-27.7 -810.5,-27.7L-27.8,-27.7C-12.5,-27.7 -0.1,-15.3 -0.1,0L-0.1,515.6L0,515.6Z" style="fill:rgb(39,44,50);fill-rule:nonzero;stroke:black;stroke-width:4px;"/>
    </g>
    <g transform="matrix(1,0,0,1,1180.68,851.855)">
        <path d="M0,-79.2L0,-27.7C0,-12.4 12.399,0 27.699,0L810.399,0C825.699,0 838.099,-12.4 838.099,-27.7L838.099,-79.2L0,-79.2Z" style="fill:white;fill-rule:nonzero;stroke:black;stroke-width:4px;"/>
    </g>
    <g transform="matrix(1,0,0,1,1704.08,899.055)">
        <path d="M0,21.5L-204.899,21.5C-205.399,21.5 -205.8,21.1 -205.8,20.6L-205.8,0.9C-205.8,0.4 -205.399,0 -204.899,0L0,0C0.5,0 0.9,0.4 0.9,0.9L0.9,20.6C0.9,21.1 0.5,21.5 0,21.5Z" style="fill:rgb(249,61,102);fill-rule:nonzero;stroke:black;stroke-width:4px;"/>
    </g>
    <g transform="matrix(1,0,0,1,1982.48,308.755)">
        <path d="M0,434.8L-768,434.8C-769.9,434.8 -771.4,433.3 -771.4,431.4L-771.4,3.4C-771.4,1.5 -769.9,0 -768,0L0,0C1.899,0 3.399,1.5 3.399,3.4L3.399,431.4C3.399,433.3 1.899,434.8 0,434.8Z" style="fill:white;fill-rule:nonzero;stroke:black;stroke-width:4px;"/>
    </g>
    <g transform="matrix(1,0,0,1,1240.68,711.855)">
        <path d="M0,-325.1L0,-12.2C0,-5.5 5.399,0 12.199,0L710.399,0C717.1,0 722.6,-5.4 722.6,-12.2L722.6,-325.1L0,-325.1Z" style="fill:white;fill-rule:nonzero;"/>
    </g>
    <g transform="matrix(1,0,0,1,1602.58,787.255)">
        <path d="M0,44.6L-4.399,44.6C-15.5,44.6 -24.5,35.6 -24.5,24.5L-24.5,20.1C-24.5,9 -15.5,0 -4.399,0L0,0C11.101,0 20.101,9 20.101,20.1L20.101,24.5C20,35.6 11,44.6 0,44.6" style="fill:rgb(39,44,50);fill-rule:nonzero;"/>
    </g>
    <g transform="matrix(1,0,0,1,2298.78,52.855)">
        <path d="M0,271.9C0,271.9 51.5,261.8 56.5,165.1C56.5,165.1 43.8,-2.7 -155.5,55.1C-161.4,56.8 -166.8,60 -170.7,64.6C-176.3,71.1 -180.3,81.5 -170.5,95.5C-170.5,95.5 -152.8,121.8 -125,140.1C-97.2,158.4 -86.7,209.7 -78,205.5C-69.3,201.4 -61.8,174.5 -39.7,195.5C-17.6,216.5 -10.5,222.4 0.6,274.6" style="fill:rgb(39,44,50);fill-rule:nonzero;"/>
    </g>
    <g transform="matrix(1,0,0,1,2421.08,746.355)">
        <path d="M0,4.1C0,4.1 18.3,0 30.7,4.1" style="fill:rgb(64,82,242);fill-rule:nonzero;stroke:black;stroke-width:4px;"/>
    </g>
    <g transform="matrix(0.989143,-0.146955,-0.146955,-0.989143,2459.32,1898.77)">
        <path d="M-62.096,-4.61C-62.096,-4.61 -81.792,-3.808 -115.242,3.083L-62.096,842.588L-44.167,116.065L-62.096,-4.61Z" style="fill-rule:nonzero;stroke:rgb(39,44,50);stroke-width:9.6px;"/>
    </g>
    <g transform="matrix(-0.641507,0.767117,0.767117,0.641507,2543.18,963.741)">
        <path d="M61.535,-139.657C61.535,-139.657 101.78,-44.994 72.655,35.197L61.535,16.382C61.535,16.382 77.422,-41.899 63.197,-116.236C63.274,-116.172 54.145,-146.097 61.535,-139.657" style="fill-rule:nonzero;stroke:rgb(39,44,50);stroke-width:9.6px;"/>
    </g>
    <g transform="matrix(1,0,0,1,2427.58,748.655)">
        <path d="M0,-184.2C0,-184.2 18.2,-40.1 19.8,-21.3C21.4,-2.6 19.8,-2.1 18,-2C16.2,-1.8 3.7,-3.9 -4.1,0C-4.1,0 4,-57.3 2.7,-90.8C-0.3,-163.1 0,-184.2 0,-184.2" style="fill:rgb(249,61,102);fill-rule:nonzero;"/>
    </g>
    <g transform="matrix(0.968768,0.247968,0.247968,-0.968768,2150.96,126.3)">
        <path d="M5.005,-23.137C5.005,-23.137 99.254,67.98 199.788,-23.137" style="fill:none;fill-rule:nonzero;stroke:white;stroke-width:2px;"/>
    </g>
    <g transform="matrix(0.987629,0.156809,0.156809,-0.987629,2199.31,177.86)">
        <path d="M-2.46,-11.523C-2.46,-11.523 52.136,-46.09 142.94,-11.523" style="fill:none;fill-rule:nonzero;stroke:white;stroke-width:2px;"/>
    </g>
    <g transform="matrix(0.533626,-0.845721,-0.845721,-0.533626,2335.07,294.096)">
        <path d="M-16.737,30.35C-15.216,29.064 5.087,13.377 55.037,30.35" style="fill:none;fill-rule:nonzero;stroke:white;stroke-width:2px;"/>
    </g>
    <g transform="matrix(0.938395,0.345565,0.345565,-0.938395,2185.26,150.305)">
        <path d="M-3.496,-16.792C-3.496,-16.792 69.14,-28.834 93.158,-16.792" style="fill:none;fill-rule:nonzero;stroke:white;stroke-width:2px;"/>
    </g>
    <g transform="matrix(1,0,0,1,2370.08,655.055)">
        <path d="M0,-447.3C0,-447.3 107.101,-414.3 114.5,-283.8C121.9,-153.3 175.5,-44 206,0" style="fill:none;fill-rule:nonzero;stroke:white;stroke-width:2px;"/>
    </g>
    <g transform="matrix(0.405564,0.914067,0.914067,-0.405564,2712.5,479.472)">
        <path d="M-82.005,-126.1C-82.005,-126.1 110.729,-161.181 193.904,-126.1" style="fill:none;fill-rule:nonzero;stroke:white;stroke-width:2px;"/>
    </g>
    <g transform="matrix(1,0,0,1,2228.58,349.655)">
        <path d="M0,5.6C0,5.6 31,-8.9 35.2,-12.1C39.3,-15.2 35.7,10.6 4.2,20.8L0,5.6Z" style="fill:rgb(249,61,102);fill-rule:nonzero;"/>
    </g>
    <g transform="matrix(1,0,0,1,2249.38,859.955)">
        <path d="M0,-86.6C0,-86.6 10.9,-65.3 0,-55.9C-10.899,-46.5 -70.5,-37.9 -80.399,0L-69.399,-11.8C-69.399,-11.8 -38.6,-21.9 -23.399,-30.4C-8.8,-38.6 5.7,-49.4 18.5,-46.9L15.101,-86.1L0,-86.6Z" style="fill:rgb(249,61,102);fill-rule:nonzero;"/>
    </g>
    <g transform="matrix(0,-1,-1,0,2126.58,240.055)">
        <path d="M-4.9,-4.9C-8.7,-4.9 -11.8,-2.7 -11.8,0C-11.8,2.7 -8.7,4.9 -4.9,4.9C-1.1,4.9 2,2.7 2,0C1.9,-2.7 -1.1,-4.9 -4.9,-4.9" style="fill-rule:nonzero;"/>
    </g>
    <g transform="matrix(0.991202,0.132356,0.132356,-0.991202,2113.83,210.605)">
        <path d="M0.439,-2.211C0.439,-2.211 18.49,9.178 34.439,-2.211" style="fill:none;fill-rule:nonzero;stroke:black;stroke-width:4px;"/>
    </g>
    <g transform="matrix(-0.0851323,0.99637,0.99637,0.0851323,1177.08,1932.23)">
        <path d="M-74.289,-15.888L24.37,-15.888L22.857,-67.505L-83.474,-75.185L-74.289,-15.888Z" style="fill:white;fill-rule:nonzero;stroke:black;stroke-width:4px;"/>
    </g>
    <g transform="matrix(1,0,0,1,1166.18,2036.45)">
        <path d="M0,-127.5C0,-127.5 28.899,-59.399 76.699,-55.8C91.399,-54.7 102.8,-51.399 111.5,-47.399C127.8,-39.899 134.599,-20.3 126.5,-4.3L-78.5,0C-83,-13.8 -84.5,-28.3 -82.9,-42.7C-81.5,-55.8 -78.801,-71.899 -74.101,-85.3C-64.4,-112.7 -68.101,-123.899 -68.101,-123.899L0,-127.5Z" style="fill:rgb(249,61,102);fill-rule:nonzero;stroke:black;stroke-width:4px;"/>
    </g>
    <g transform="matrix(1,0,0,1,1083.48,2018.15)">
        <path d="M0,0L212.399,0" style="fill:none;fill-rule:nonzero;stroke:black;stroke-width:4px;"/>
    </g>
    <g transform="matrix(1,0,0,1,987.776,1827.56)">
        <path d="M0,-517.601C0,-517.601 333.599,-557 362.3,-533.701C429.8,-478.801 187.6,31.599 187.6,31.599C187.6,31.599 165.4,39.399 107.3,22C107.3,22 83.2,-273.301 138,-335.701C192.8,-398.101 0,-517.601 0,-517.601" style="fill:rgb(39,44,50);fill-rule:nonzero;"/>
    </g>
    <g transform="matrix(1,0,0,1,1090.38,1830.05)">
        <path d="M0,-518.499C0,-518.499 205.7,-548.8 212.7,-443.399C219.7,-337.999 10.4,-213.899 85,29.2C85,29.2 42.4,30.301 7,17.501C7,17.501 -12.899,-223.3 27.7,-323.199C68.301,-423.199 0,-518.499 0,-518.499" style="fill-rule:nonzero;"/>
    </g>
    <g transform="matrix(0.42338,0.905952,0.905952,-0.42338,1569.04,1890.3)">
        <path d="M-54.893,-24.755L44.781,-24.755L43.212,-77.005L-64.224,-84.635L-54.893,-24.755Z" style="fill:white;fill-rule:nonzero;stroke:black;stroke-width:4px;"/>
    </g>
    <g transform="matrix(1,0,0,1,1561.88,2043.65)">
        <path d="M0,-128.7C0,-128.7 29.2,-59.9 77.5,-56.3C92.301,-55.2 103.801,-51.9 112.7,-47.9C129.2,-40.4 136,-20.599 127.9,-4.3L-79.2,0C-83.8,-13.9 -85.3,-28.599 -83.7,-43.2C-82.2,-56.399 -79.6,-72.7 -74.8,-86.3C-65,-114 -68.7,-125.3 -68.7,-125.3L0,-128.7Z" style="fill:rgb(249,61,102);fill-rule:nonzero;stroke:black;stroke-width:4px;"/>
    </g>
    <g transform="matrix(1,0,0,1,1478.38,2025.25)">
        <path d="M0,0L214.601,0" style="fill:none;fill-rule:nonzero;stroke:black;stroke-width:4px;"/>
    </g>
    <g transform="matrix(1,0,0,1,1331.58,1031.45)">
        <path d="M0,-46.7L361.9,-46.7L420.9,0L-66.8,0L0,-46.7Z" style="fill:rgb(39,44,50);fill-rule:nonzero;stroke:black;stroke-width:3px;stroke-linejoin:round;"/>
    </g>
    <g transform="matrix(1,0,0,1,-851.547,-862.806)">
        <rect x="2116.32" y="1894.26" width="487.6" height="12.8" style="fill:rgb(64,82,242);"/>
    </g>
    <g transform="matrix(1,0,0,1,-851.547,-862.806)">
        <rect x="2116.32" y="1894.26" width="487.6" height="12.8" style="fill:rgb(39,44,50);"/>
    </g>
    <g transform="matrix(1,0,0,1,846.276,592.655)">
        <path d="M0,116.6L0,226.6C0,226.6 94.2,230.9 93.5,226.6C92.9,222.3 83.1,133.1 83.1,133.1C83.1,133.1 145.5,159.4 165.6,127C185.8,94.6 184.8,64 184.8,64C184.8,64 205.8,53.3 206.4,44.1C207,34.9 176.2,14 173.6,-7.9C168.3,-52.1 127.5,-114.3 99.6,-98C68.1,-79.6 0,116.6 0,116.6Z" style="fill:white;fill-rule:nonzero;stroke:black;stroke-width:4px;"/>
    </g>
    <g transform="matrix(1,0,0,1,859.875,690.255)">
        <path d="M0,-220.9C0,-220.9 -1.8,-220 -4.899,-218.3C-12.699,-214.2 -20.899,-209.5 -29.5,-204.1C-37.3,-199.2 -44.199,-194.2 -50.3,-188.9C-90.5,-157.9 -134.5,-107.5 -97.1,-52.2C-97.1,-52.2 -111.5,-100.9 -86.399,-135.9C-102.2,-85.2 -76.5,-31.8 -57.5,-2.9C-29.399,39.9 -25.699,33.8 6.7,19.1C39.101,4.4 37.9,-47.5 62.9,-69.5C88,-91.5 100.2,-54.8 103.9,-57.9C107.601,-61 93.5,-98.9 91.7,-163.1C89.9,-227.3 126.2,-181.3 126.2,-181.3L126.2,-183.9C116.5,-237.6 78.801,-260.8 0,-220.9" style="fill:rgb(39,44,50);fill-rule:nonzero;"/>
    </g>
    <g transform="matrix(1,0,0,1,927.875,771.655)">
        <path d="M0,-48.7C0,-48.7 -21.6,-57.1 -21.8,-51.4C-22.1,-45.7 -4.399,0.3 5.601,8.4C5.601,8.4 0.801,-31.6 0,-48.7" style="fill:rgb(249,61,102);fill-rule:nonzero;"/>
    </g>
    <g transform="matrix(1,0,0,1,643.976,1851.15)">
        <path d="M0,-504.098C0,-504.098 -77,-310.098 175.6,-311.598C428.3,-313.098 610.2,-333.798 610.2,-333.798C610.2,-333.798 695.399,-87.199 814.2,26.902C814.2,26.902 850.599,35.601 903.8,-8.498C903.8,-8.498 782.2,-467.699 735,-485.998C687.8,-504.298 379.6,-539.699 379.6,-539.699L0,-504.098Z" style="fill:rgb(39,44,50);fill-rule:nonzero;stroke:black;stroke-width:4px;"/>
    </g>
    <g transform="matrix(1,0,0,1,1085.38,1480.96)">
        <path d="M0,-154.1C0,-154.1 -52.899,-77.5 -223.5,-48.9C-394.199,-20.3 -203.199,61.9 -46.1,28.1C111,-5.701 122.7,-12.5 154.6,10.1L166.2,34.1C166.2,34.1 -297.899,82 -378.199,39.299C-455.6,-1.8 -463.399,-67.701 -433.199,-151.9C-403,-236.1 0,-154.1 0,-154.1" style="fill-rule:nonzero;"/>
    </g>
    <g transform="matrix(1,0,0,1,1332.18,986.754)">
        <path d="M0,39.801C0,39.801 22.699,22.901 27.1,9.7C31.5,-3.5 53.1,-30.9 65.3,-23.099C77.5,-15.3 63.899,-0.099 95.1,-20.7C126.2,-41.3 111.7,23.601 118.8,33.401C125.899,43.2 124.899,59.8 102.899,64.901C80.899,70 26.8,81.101 26.8,81.101L0,39.801Z" style="fill:white;fill-rule:nonzero;stroke:black;stroke-width:4px;"/>
    </g>
    <g transform="matrix(-0.267344,0.963601,0.963601,0.267344,1418.53,1010.89)">
        <path d="M34.608,-63.514C34.608,-63.514 30.603,-50.2 38.31,-37.58C46.017,-24.959 34.608,22.518 34.608,22.518L66.84,-39.42L34.608,-63.514Z" style="fill:rgb(249,61,102);fill-rule:nonzero;"/>
    </g>
    <g transform="matrix(1,0,0,1,834.875,1458.65)">
        <path d="M0,-683.3C0,-683.3 13.9,-634.5 83.4,-655.6C92.9,-658.5 101.7,-663.3 109.7,-669.1C113.801,-672.1 119.4,-674.1 124.001,-669.1C132.601,-659.7 153.9,-656.7 200.101,-643.7C249.601,-629.8 264.001,-532.6 335.9,-382.7C335.9,-382.7 430.501,-419.2 488.301,-438.5C488.301,-438.5 514.2,-449.6 533.5,-384.1C533.5,-384.1 349.9,-262.7 304.101,-253.1C266.9,-245.3 233,-263.7 213.2,-308.4C213.2,-308.4 212.301,-191.9 224.4,-167.6C224.4,-167.6 235.601,-177.7 247.2,-163C258.9,-148.3 254.301,-123.4 228.9,-110.2C203.5,-97 49.601,0 -142.199,-71C-142.199,-71 -204.399,-104.8 -231,-108.6C-257.6,-112.4 -144.6,-533.1 -131.6,-591.7C-119.6,-646.1 -84.6,-642.8 -12.6,-669.5C-6.899,-671.7 -9.199,-681.7 0,-683.3Z" style="fill:rgb(249,61,102);fill-rule:nonzero;stroke:black;stroke-width:4px;"/>
    </g>
    <g transform="matrix(1,0,0,1,962.076,1191.75)">
        <path d="M0,-179.3L83.3,-41.5L84.5,13.7C84.5,13.6 -45.3,-193 0,-179.3" style="fill:rgb(178,23,57);fill-rule:nonzero;"/>
    </g>
    <g transform="matrix(0.504799,0.863237,0.863237,-0.504799,1187.43,1075.82)">
        <path d="M-8.289,-14.45C-8.289,-14.45 16.617,-14.65 25.189,-14.45" style="fill:white;fill-rule:nonzero;stroke:black;stroke-width:4px;"/>
    </g>
    <g transform="matrix(-0.272039,0.962286,0.962286,0.272039,960.469,539.074)">
        <path d="M-61.438,-11.022C-61.438,-11.022 -82.886,-72.267 37.077,-11.022" style="fill:none;fill-rule:nonzero;stroke:white;stroke-width:2px;"/>
    </g>
    <g transform="matrix(-0.353848,0.935303,0.935303,0.353848,955.645,585.847)">
        <path d="M-110.729,-54.903C-110.729,-54.903 -102.74,-129.716 50.074,-54.903" style="fill:none;fill-rule:nonzero;stroke:white;stroke-width:2px;"/>
    </g>
    <g transform="matrix(-0.388868,0.921293,0.921293,0.388868,879.752,645.146)">
        <path d="M-151.741,-66.844C-151.741,-66.844 -69.992,-148.914 30.069,-66.844" style="fill:none;fill-rule:nonzero;stroke:white;stroke-width:2px;"/>
    </g>
    <g transform="matrix(-0.194151,-0.980972,-0.980972,0.194151,1002.46,588.421)">
        <path d="M-4.848,-5.783C-8.83,-5.81 -11.952,-3.561 -11.938,-0.915C-11.904,1.832 -8.731,3.956 -4.848,4.003C-0.868,4.03 2.255,1.782 2.241,-0.866C2.305,-3.631 -0.887,-5.853 -4.848,-5.783" style="fill-rule:nonzero;"/>
    </g>
    <g transform="matrix(0.919997,-0.391926,-0.391926,-0.919997,981.939,578.135)">
        <path d="M-3.046,6.276C-3.046,6.276 16.025,21.195 27.061,6.276" style="fill:none;fill-rule:nonzero;stroke:black;stroke-width:4px;"/>
    </g>
    <g transform="matrix(-0.993132,-0.117004,-0.117004,0.993132,985.831,679.009)">
        <path d="M-34.518,-4.826C-34.518,-4.826 -15.264,4.39 0.524,-4.826" style="fill:none;fill-rule:nonzero;stroke:black;stroke-width:4px;"/>
    </g>
    <g transform="matrix(-0.837843,-0.545912,-0.545912,0.837843,1215.76,1453.44)">
        <path d="M-67.076,32.576C-67.076,32.576 -26.183,-3.44 1.433,32.576" style="fill:none;fill-rule:nonzero;stroke:black;stroke-width:4px;"/>
    </g>
    <g transform="matrix(0.955593,-0.294689,-0.294689,-0.955593,2131.16,338.594)">
        <path d="M0.196,5.003C0.196,5.003 18.51,-7.551 35.149,5.003" style="fill:white;fill-rule:nonzero;stroke:black;stroke-width:4px;"/>
    </g>
    <g transform="matrix(0.515882,0.85666,0.85666,-0.515882,1044.08,1002.14)">
        <path d="M-41.197,-72.9C-41.197,-72.9 82.256,-78.604 128.998,-72.9" style="fill:none;fill-rule:nonzero;stroke:black;stroke-width:4px;"/>
    </g>
    <g transform="matrix(-0.491285,0.870999,0.870999,0.491285,1560.04,1760.44)">
        <path d="M78.432,-190.509C78.432,-190.509 123.639,-42.277 30.562,-20.15L78.432,27.287C78.432,27.287 132.639,7.92 150.524,-30.098C150.524,-30.098 130.051,-106.973 78.432,-190.509" style="fill-rule:nonzero;"/>
    </g>
    <g transform="matrix(1,0,0,1,3103.88,1688.35)">
        <path d="M0,-34.999L7.5,-8.999C4.301,-10.6 -0.3,-9.199 -3.199,-5.6C-6.399,-1.499 -6.399,3.9 -3.199,6.501C0.101,9.101 5.301,7.801 8.5,3.801C10.4,1.501 11.2,-1.499 10.801,-4.399L3.4,-30.199L13.001,-35.1C16.301,-36.799 18.301,-40.299 18.001,-43.999L18.001,-44.1L0,-34.999Z" style="fill:rgb(39,44,50);fill-rule:nonzero;"/>
    </g>
    <g transform="matrix(1,0,0,1,3235.48,1641.45)">
        <path d="M0,-42.7L-23.9,-38.099L-23.9,-13.899C-26.3,-16.099 -30.5,-16 -33.9,-13.599C-37.7,-10.899 -39,-6.2 -36.8,-3.2C-34.6,-0.2 -29.8,0 -26,-2.7C-23.8,-4.2 -22.399,-6.599 -22,-9.2L-22,-33.2L-1.7,-37.099L-1.7,-16.7C-4.1,-18.899 -8.3,-18.8 -11.7,-16.399C-15.5,-13.7 -16.8,-9 -14.6,-6C-12.399,-3 -7.6,-2.8 -3.8,-5.5C-1.6,-7 -0.199,-9.3 0.101,-11.899L0,-42.7Z" style="fill:rgb(39,44,50);fill-rule:nonzero;"/>
    </g>
    <g transform="matrix(1,0,0,1,701.375,386.755)">
        <path d="M0,-38.2L8.2,-9.7C4.601,-11.5 -0.3,-10 -3.5,-5.9C-7,-1.4 -7,4.5 -3.5,7.3C0.101,10.1 5.801,8.8 9.4,4.3C11.5,1.8 12.4,-1.5 11.9,-4.7L3.801,-33L14.301,-38.4C18,-40.2 20.101,-44.1 19.801,-48.2L19.801,-48.3L0,-38.2Z" style="fill:rgb(39,44,50);fill-rule:nonzero;"/>
    </g>
    <g transform="matrix(1,0,0,1,833.375,450.455)">
        <path d="M0,-47L-26.199,-41.9L-26.199,-15.4C-28.8,-17.8 -33.5,-17.7 -37.199,-15C-41.399,-12 -42.8,-6.9 -40.399,-3.6C-37.999,-0.3 -32.699,0 -28.6,-3C-26.199,-4.6 -24.6,-7.2 -24.3,-10.1L-24.3,-36.5L-2.1,-40.8L-2.1,-18.4C-4.699,-20.8 -9.399,-20.7 -13.1,-18C-17.3,-15 -18.699,-9.9 -16.3,-6.6C-13.899,-3.3 -8.6,-3 -4.499,-6C-2.1,-7.6 -0.6,-10.1 -0.199,-13L-0.199,-47L0,-47Z" style="fill:rgb(39,44,50);fill-rule:nonzero;"/>
    </g>
    <g transform="matrix(1,0,0,1,3199.78,1864.35)">
        <path d="M0,-52.1L0,-15.7C-3.601,-18.999 -10,-18.9 -15.101,-15.2C-20.8,-11.1 -22.8,-4.1 -19.5,0.4C-16.2,4.9 -9,5.3 -3.3,1.201C0,-0.999 2.2,-4.6 2.7,-8.6L2.7,-44.799L16.899,-47.6C21.8,-48.499 25.7,-52.4 26.7,-57.299L26.7,-57.4L0,-52.1Z" style="fill:rgb(39,44,50);fill-rule:nonzero;"/>
    </g>
    <g transform="matrix(1,0,0,1,2552.08,57.8549)">
        <path d="M0,-38.2L8.2,-9.7C4.6,-11.5 -0.3,-10 -3.5,-5.9C-7,-1.4 -7,4.5 -3.5,7.3C0.101,10.1 5.8,8.8 9.4,4.3C11.5,1.8 12.4,-1.5 11.9,-4.7L3.8,-33L14.3,-38.4C18,-40.2 20.1,-44.1 19.8,-48.2L19.8,-48.3L0,-38.2Z" style="fill:rgb(39,44,50);fill-rule:nonzero;"/>
    </g>
    <g transform="matrix(1,0,0,1,2450.48,118.255)">
        <path d="M0,-57.5L0,-17.5C-4,-21.1 -10.9,-21 -16.601,-17C-22.9,-12.5 -25,-4.8 -21.5,0.2C-17.9,5.2 -9.9,5.6 -3.7,1.1C-0.1,-1.4 2.3,-5.3 2.9,-9.6L2.9,-49.3L18.5,-52.3C23.9,-53.3 28.2,-57.5 29.2,-63L29.2,-63.1L0,-57.5Z" style="fill:rgb(39,44,50);fill-rule:nonzero;"/>
    </g>
    <g transform="matrix(1,0,0,1,153.576,1627.46)">
        <path d="M0,-35.001L7.5,-9.001C4.3,-10.601 -0.3,-9.201 -3.2,-5.601C-6.399,-1.501 -6.399,3.899 -3.2,6.499C0.101,9.1 5.3,7.799 8.5,3.799C10.4,1.499 11.2,-1.501 10.8,-4.4L3.4,-30.201L13,-35.101C16.3,-36.801 18.3,-40.301 18,-44.001L18,-44.101L0,-35.001Z" style="fill:rgb(39,44,50);fill-rule:nonzero;"/>
    </g>
    <g transform="matrix(1,0,0,1,173.976,1805.76)">
        <path d="M0,-35.001L7.5,-9.001C4.3,-10.601 -0.3,-9.2 -3.2,-5.601C-6.4,-1.501 -6.4,3.899 -3.2,6.499C0.1,9.1 5.3,7.8 8.5,3.8C10.399,1.499 11.2,-1.501 10.8,-4.4L3.399,-30.2L13,-35.101C16.3,-36.801 18.3,-40.301 18,-44.001L18,-44.101L0,-35.001Z" style="fill:rgb(39,44,50);fill-rule:nonzero;"/>
    </g>
    <g transform="matrix(1,0,0,1,281.476,1655.06)">
        <path d="M0,-42.7L-23.9,-38.1L-23.9,-13.9C-26.3,-16.1 -30.5,-16 -33.9,-13.6C-37.7,-10.9 -39,-6.2 -36.8,-3.2C-34.601,-0.2 -29.8,0 -26,-2.7C-23.8,-4.2 -22.4,-6.6 -22,-9.2L-22,-33.2L-1.7,-37.1L-1.7,-16.7C-4.101,-18.9 -8.3,-18.801 -11.7,-16.4C-15.5,-13.7 -16.8,-9 -14.601,-6C-12.4,-3 -7.601,-2.7 -3.8,-5.5C-1.601,-7 -0.2,-9.301 0.1,-11.9L0,-42.7Z" style="fill:rgb(39,44,50);fill-rule:nonzero;"/>
    </g>
    <g transform="matrix(1,0,0,1,81.4759,1860.35)">
        <path d="M0,-52.2L0,-15.8C-3.601,-19.1 -10,-19 -15.101,-15.3C-20.8,-11.2 -22.8,-4.2 -19.5,0.3C-16.2,4.8 -9,5.2 -3.3,1.1C0,-1.1 2.2,-4.7 2.7,-8.7L2.7,-44.9L16.899,-47.6C21.8,-48.5 25.7,-52.4 26.7,-57.3L26.7,-57.4L0,-52.2Z" style="fill:rgb(39,44,50);fill-rule:nonzero;"/>
    </g>
    <g transform="matrix(1,0,0,1,-851.547,-2290.61)">
        <rect x="2064.12" y="2601.06" width="773.1" height="27" style="fill:rgb(249,61,102);"/>
    </g>
    <g transform="matrix(0,-1,-1,0,1227.48,320.355)">
        <path d="M-4,-4C-6.7,-4 -8.9,-2.2 -8.9,0C-8.9,2.2 -6.7,4 -4,4C-1.3,4 0.9,2.2 0.9,0C0.9,-2.2 -1.3,-4 -4,-4" style="fill-rule:nonzero;"/>
    </g>
    <g transform="matrix(0,-1,-1,0,1240.28,320.355)">
        <path d="M-4,-4C-6.7,-4 -8.9,-2.2 -8.9,0C-8.9,2.2 -6.7,4 -4,4C-1.3,4 0.9,2.2 0.9,0C0.9,-2.2 -1.3,-4 -4,-4" style="fill-rule:nonzero;"/>
    </g>
    <g transform="matrix(0,-1,-1,0,1253.08,320.355)">
        <path d="M-4,-4C-6.7,-4 -8.9,-2.2 -8.9,0C-8.9,2.2 -6.7,4 -4,4C-1.3,4 0.9,2.2 0.9,0C0.9,-2.2 -1.3,-4 -4,-4" style="fill-rule:nonzero;"/>
    </g>
    <g transform="matrix(1,0,0,1,-851.547,-1971.41)">
        <rect x="2085.62" y="2335.36" width="373.2" height="239.2" style="fill:rgb(249,61,102);"/>
    </g>
    <g transform="matrix(0,1,1,0,1418.58,430.355)">
        <path d="M45.5,-45.5C20.4,-45.5 0,-25.1 0,0C0,25.101 20.4,45.5 45.5,45.5C70.6,45.5 91,25.101 91,0C90.9,-25.1 70.6,-45.5 45.5,-45.5" style="fill:white;fill-rule:nonzero;"/>
    </g>
    <g transform="matrix(1,0,0,1,1407.38,498.855)">
        <path d="M0,-43.5L18.801,-32.6L37.7,-21.7L18.801,-10.8L-0.1,0L0,-21.7L0,-43.5Z" style="fill:rgb(8,21,53);fill-rule:nonzero;"/>
    </g>
    <g transform="matrix(1,0,0,1,1417.78,625.155)">
        <path d="M0,25.4L-173.101,25.4C-179,25.4 -183.8,20.6 -183.8,14.7L-183.8,10.7C-183.8,4.8 -179,0 -173.101,0L0,0C5.899,0 10.7,4.8 10.7,10.7L10.7,14.7C10.7,20.6 5.9,25.4 0,25.4" style="fill:rgb(39,44,50);fill-rule:nonzero;"/>
    </g>
    <g transform="matrix(1,0,0,1,1593.78,675.555)">
        <path d="M0,9.3L-355.8,9.3C-357.9,9.3 -359.7,7.5 -359.7,5.4L-359.7,3.9C-359.7,1.8 -357.9,0 -355.8,0L0,0C2.1,0 3.899,1.8 3.899,3.9L3.899,5.4C3.9,7.6 2.1,9.3 0,9.3" style="fill:rgb(249,61,102);fill-rule:nonzero;"/>
    </g>
    <g transform="matrix(1,0,0,1,1506.48,695.055)">
        <path d="M0,9.3L-268.601,9.3C-270.7,9.3 -272.5,7.5 -272.5,5.4L-272.5,3.9C-272.5,1.8 -270.7,0 -268.601,0L0,0C2.1,0 3.899,1.8 3.899,3.9L3.899,5.4C3.899,7.6 2.2,9.3 0,9.3" style="fill:rgb(249,61,102);fill-rule:nonzero;"/>
    </g>
    <g transform="matrix(1,0,0,1,-851.547,-2100.11)">
        <rect x="2491.62" y="2466.96" width="143.101" height="104.7" style="fill:rgb(249,61,102);"/>
    </g>
    <g transform="matrix(1,0,0,1,-851.547,-1858.31)">
        <rect x="2491.62" y="2346.06" width="143.101" height="104.7" style="fill:rgb(249,61,102);"/>
    </g>
    <g transform="matrix(1,0,0,1,-851.547,-1616.51)">
        <rect x="2491.62" y="2225.16" width="143.101" height="104.7" style="fill:rgb(249,61,102);"/>
    </g>
    <g transform="matrix(1,0,0,1,1896.48,369.055)">
        <path d="M0,27.8L-72.601,27.8C-79,27.8 -84.3,22.5 -84.3,16.1L-84.3,11.7C-84.3,5.3 -79,0 -72.601,0L0,0C6.399,0 11.7,5.3 11.7,11.7L11.7,16.1C11.7,22.5 6.399,27.8 0,27.8" style="fill:rgb(39,44,50);fill-rule:nonzero;"/>
    </g>
    <g transform="matrix(1,0,0,1,1896.48,487.755)">
        <path d="M0,27.8L-72.601,27.8C-79,27.8 -84.3,22.5 -84.3,16.1L-84.3,11.7C-84.3,5.3 -79,0 -72.601,0L0,0C6.399,0 11.7,5.3 11.7,11.7L11.7,16.1C11.7,22.6 6.399,27.8 0,27.8" style="fill:rgb(39,44,50);fill-rule:nonzero;"/>
    </g>
    <g transform="matrix(1,0,0,1,1898.38,608.355)">
        <path d="M0,27.8L-72.6,27.8C-79,27.8 -84.3,22.5 -84.3,16.1L-84.3,11.7C-84.3,5.3 -79,0 -72.6,0L0,0C6.4,0 11.7,5.3 11.7,11.7L11.7,16.1C11.7,22.6 6.4,27.8 0,27.8" style="fill:rgb(39,44,50);fill-rule:nonzero;"/>
    </g>
    <g transform="matrix(1,0,0,1,1948.78,412.355)">
        <path d="M0,10.5L-132.2,10.5C-134.6,10.5 -136.6,8.5 -136.6,6.1L-136.6,4.4C-136.6,2 -134.6,0 -132.2,0L0,0C2.399,0 4.399,2 4.399,4.4L4.399,6.1C4.4,8.5 2.4,10.5 0,10.5" style="fill:rgb(249,61,102);fill-rule:nonzero;"/>
    </g>
    <g transform="matrix(1,0,0,1,1948.78,529.655)">
        <path d="M0,10.5L-132.2,10.5C-134.6,10.5 -136.6,8.5 -136.6,6.1L-136.6,4.4C-136.6,2 -134.6,0 -132.2,0L0,0C2.399,0 4.399,2 4.399,4.4L4.399,6.1C4.4,8.5 2.4,10.5 0,10.5" style="fill:rgb(249,61,102);fill-rule:nonzero;"/>
    </g>
    <g transform="matrix(1,0,0,1,1948.78,650.455)">
        <path d="M0,10.5L-132.2,10.5C-134.6,10.5 -136.6,8.5 -136.6,6.1L-136.6,4.4C-136.6,2 -134.6,0 -132.2,0L0,0C2.399,0 4.399,2 4.399,4.4L4.399,6.1C4.4,8.5 2.4,10.5 0,10.5" style="fill:rgb(249,61,102);fill-rule:nonzero;"/>
    </g>
    <g transform="matrix(1,0,0,1,1700.48,442.255)">
        <path d="M0,-43.5L37.6,-21.7L18.8,-10.9L-0.101,0L0,-21.8L0,-43.5Z" style="fill:white;fill-rule:nonzero;"/>
    </g>
    <g transform="matrix(1,0,0,1,1700.48,562.255)">
        <path d="M0,-43.5L37.6,-21.7L18.8,-10.8L-0.101,0L0,-21.7L0,-43.5Z" style="fill:white;fill-rule:nonzero;"/>
    </g>
    <g transform="matrix(1,0,0,1,1700.48,683.255)">
        <path d="M0,-43.5L37.6,-21.7L18.8,-10.9L-0.101,0L0,-21.8L0,-43.5Z" style="fill:white;fill-rule:nonzero;"/>
    </g>
    <g transform="matrix(1,0,0,1,1276.88,568.255)">
        <path d="M0,0.5L0,-0.1L0,0.5ZM0.801,0.9C0.601,0.9 0.5,0.8 0.301,0.7C0.2,0.6 0.101,0.4 0,0.3C0,0.1 0.101,0 0.301,-0.1C0.4,-0.2 0.601,-0.3 0.801,-0.3C1,-0.3 1.101,-0.2 1.301,-0.1C1.4,0 1.5,0.2 1.601,0.3C1.601,0.5 1.5,0.6 1.301,0.7C1.101,0.8 1,0.9 0.801,0.9M-10.8,1.2C-11,1.2 -11.1,1.1 -11.3,1C-11.399,0.9 -11.5,0.7 -11.6,0.6L-11.6,-0.3C-11.6,-0.5 -11.5,-0.601 -11.3,-0.7C-11.199,-0.8 -11,-0.9 -10.8,-0.9C-10.6,-0.9 -10.5,-0.8 -10.3,-0.7C-10.199,-0.6 -10.1,-0.4 -10,-0.3L-10,0.6C-10,0.8 -10.1,0.9 -10.3,1C-10.399,1.2 -10.6,1.2 -10.8,1.2M-6.899,1.2C-7.1,1.2 -7.199,1.1 -7.399,1C-7.5,0.9 -7.6,0.7 -7.699,0.6L-7.699,-0.3C-7.699,-0.5 -7.6,-0.601 -7.399,-0.7C-7.3,-0.8 -7.1,-0.9 -6.899,-0.9C-6.699,-0.9 -6.6,-0.8 -6.399,-0.7C-6.3,-0.6 -6.199,-0.4 -6.1,-0.3L-6.1,0.5C-6.1,0.7 -6.199,0.8 -6.399,0.9C-6.6,1.2 -6.8,1.2 -6.899,1.2M42.601,1.6C42.4,1.6 42.301,1.5 42.101,1.4C42,1.3 41.9,1.1 41.801,1L41.801,-0.5C41.801,-0.7 41.9,-0.8 42.101,-0.9C42.2,-1 42.4,-1.1 42.601,-1.1C42.801,-1.1 42.9,-1 43.101,-0.9C43.2,-0.8 43.301,-0.6 43.4,-0.5L43.4,1C43.4,1.2 43.301,1.3 43.101,1.4C42.9,1.5 42.801,1.6 42.601,1.6M-3.1,1.9C-3.3,1.9 -3.399,1.8 -3.6,1.7C-3.7,1.6 -3.8,1.4 -3.899,1.3L-3.899,-0.8C-3.899,-1 -3.8,-1.1 -3.6,-1.2C-3.5,-1.3 -3.3,-1.4 -3.1,-1.4C-2.899,-1.4 -2.7,-1.3 -2.6,-1.2C-2.5,-1.1 -2.399,-0.9 -2.3,-0.8L-2.3,1.3C-2.3,1.5 -2.399,1.6 -2.6,1.7C-2.699,1.8 -2.899,1.9 -3.1,1.9M4.301,1.9C4.101,1.9 4,1.8 3.801,1.7C3.7,1.6 3.601,1.4 3.5,1.3L3.5,-0.8C3.5,-1 3.601,-1.1 3.801,-1.2C4.101,-1.4 4.5,-1.4 4.801,-1.2C4.9,-1.1 5,-0.9 5.101,-0.8L5.101,1.3C5.101,1.5 5,1.6 4.801,1.7C4.7,1.8 4.5,1.9 4.301,1.9M8.2,2.2C8,2.2 7.9,2.1 7.7,2C7.601,1.9 7.5,1.7 7.4,1.6L7.4,-1.2C7.4,-1.4 7.5,-1.5 7.7,-1.6C8,-1.8 8.4,-1.8 8.7,-1.6C8.801,-1.5 8.9,-1.3 9,-1.2L9,1.6C9,1.8 8.9,1.9 8.7,2C8.5,2.2 8.4,2.2 8.2,2.2M81.2,2.2C81,2.2 80.9,2.1 80.7,2C80.601,1.9 80.5,1.7 80.4,1.6L80.4,-1.2C80.4,-1.4 80.5,-1.5 80.7,-1.6C81,-1.8 81.4,-1.8 81.7,-1.6C81.801,-1.5 81.9,-1.3 82,-1.2L82,1.6C82,1.8 81.9,1.9 81.7,2C81.5,2.2 81.301,2.2 81.2,2.2M15.9,2.9C15.7,2.9 15.601,2.8 15.4,2.7C15.3,2.6 15.2,2.4 15.101,2.3L15.101,-1.8C15.101,-2 15.2,-2.101 15.4,-2.2C15.5,-2.3 15.7,-2.4 15.9,-2.4C16.101,-2.4 16.2,-2.3 16.4,-2.2C16.5,-2.1 16.601,-1.9 16.7,-1.8L16.7,2.3C16.7,2.5 16.601,2.6 16.4,2.7C16.2,2.8 16.101,2.9 15.9,2.9M27.5,2.9C27.301,2.9 27.2,2.8 27,2.7C26.9,2.6 26.801,2.4 26.7,2.3L26.7,-1.8C26.7,-2 26.801,-2.1 27,-2.2C27.101,-2.3 27.301,-2.4 27.5,-2.4C27.7,-2.4 27.801,-2.3 28,-2.2C28.101,-2.1 28.2,-1.9 28.301,-1.8L28.301,2.3C28.301,2.5 28.2,2.6 28,2.7C27.801,2.8 27.601,2.9 27.5,2.9M77.301,3.5C77.101,3.5 77,3.4 76.801,3.3C76.7,3.2 76.601,3 76.5,2.9L76.5,-2.5C76.5,-2.7 76.601,-2.8 76.801,-2.9C76.9,-3 77.101,-3.1 77.301,-3.1C77.5,-3.1 77.601,-3 77.801,-2.9C77.9,-2.8 78,-2.6 78.101,-2.5L78.101,2.9C78.101,3.1 78,3.2 77.801,3.3C77.7,3.5 77.5,3.5 77.301,3.5M35.2,4.2C35,4.2 34.9,4.1 34.7,4C34.601,3.9 34.5,3.7 34.4,3.6L34.4,-3.1C34.4,-3.3 34.5,-3.4 34.7,-3.5C34.801,-3.6 35,-3.7 35.2,-3.7C35.4,-3.7 35.5,-3.6 35.7,-3.5C35.801,-3.4 35.9,-3.2 36,-3.1L36,3.6C36,3.8 35.9,3.9 35.7,4C35.5,4.1 35.4,4.2 35.2,4.2M69.601,4.2C69.4,4.2 69.301,4.1 69.101,4C69,3.9 68.9,3.7 68.801,3.6L68.801,-3.1C68.801,-3.3 68.9,-3.4 69.101,-3.5C69.4,-3.7 69.801,-3.7 70.101,-3.5C70.2,-3.4 70.301,-3.2 70.4,-3.1L70.4,3.6C70.4,3.8 70.301,3.9 70.101,4C69.9,4.1 69.801,4.2 69.601,4.2M73.5,5.5C73.301,5.5 73.2,5.4 73,5.3C72.9,5.2 72.801,5 72.7,4.9L72.7,-4.4C72.7,-4.6 72.801,-4.7 73,-4.8C73.101,-4.9 73.301,-5 73.5,-5C73.7,-5 73.801,-4.9 74,-4.8C74.101,-4.7 74.2,-4.5 74.301,-4.4L74.301,4.9C74.301,5.1 74.2,5.2 74,5.3C73.801,5.4 73.601,5.5 73.5,5.5M12,5.8C11.801,5.8 11.7,5.7 11.5,5.6C11.4,5.5 11.301,5.3 11.2,5.2L11.2,-4.8C11.2,-5 11.301,-5.1 11.5,-5.2C11.601,-5.3 11.801,-5.4 12,-5.4C12.2,-5.4 12.301,-5.3 12.5,-5.2C12.601,-5.1 12.7,-4.9 12.801,-4.8L12.801,5.2C12.801,5.4 12.7,5.5 12.5,5.6C12.4,5.8 12.2,5.8 12,5.8M107.9,5.8C107.7,5.8 107.601,5.7 107.4,5.6C107.3,5.5 107.2,5.3 107.101,5.2L107.101,-4.8C107.101,-5 107.2,-5.1 107.4,-5.2C107.5,-5.3 107.7,-5.4 107.9,-5.4C108.101,-5.4 108.2,-5.3 108.4,-5.2C108.5,-5.1 108.601,-4.9 108.7,-4.8L108.7,5.2C108.7,5.4 108.601,5.5 108.4,5.6C108.2,5.8 108,5.8 107.9,5.8M119.4,6.2C119.2,6.2 119.101,6.1 118.9,6C118.8,5.9 118.7,5.7 118.601,5.6L118.601,-5.1C118.601,-5.3 118.7,-5.4 118.9,-5.5C119.2,-5.7 119.601,-5.7 119.9,-5.5C120,-5.4 120.101,-5.2 120.2,-5.1L120.2,5.6C120.2,5.8 120.101,5.9 119.9,6C119.801,6.1 119.601,6.2 119.4,6.2M39,6.5C38.801,6.5 38.7,6.4 38.5,6.3C38.4,6.2 38.301,6 38.2,5.9L38.2,-5.4C38.2,-5.6 38.301,-5.7 38.5,-5.8C38.601,-5.9 38.801,-6 39,-6C39.2,-6 39.301,-5.9 39.5,-5.8C39.601,-5.7 39.7,-5.5 39.801,-5.4L39.801,5.9C39.801,6.1 39.7,6.2 39.5,6.3C39.4,6.4 39.2,6.5 39,6.5M19.801,6.8C19.601,6.8 19.5,6.7 19.301,6.6C19.2,6.5 19.101,6.3 19,6.2L19,-5.8C19,-6 19.101,-6.1 19.301,-6.2C19.601,-6.4 20,-6.4 20.301,-6.2C20.4,-6.1 20.5,-5.9 20.601,-5.8L20.601,6.2C20.601,6.4 20.5,6.5 20.301,6.6C20.101,6.7 19.9,6.8 19.801,6.8M58,6.8C57.801,6.8 57.7,6.7 57.5,6.6C57.4,6.5 57.301,6.3 57.2,6.2L57.2,-5.8C57.2,-6 57.301,-6.1 57.5,-6.2C57.801,-6.4 58.2,-6.4 58.5,-6.2C58.601,-6.1 58.7,-5.9 58.801,-5.8L58.801,6.2C58.801,6.4 58.7,6.5 58.5,6.6C58.4,6.7 58.2,6.8 58,6.8M130.7,6.8C130.5,6.8 130.4,6.7 130.2,6.6C130.101,6.5 130,6.3 129.9,6.2L129.9,-5.8C129.9,-6 130,-6.1 130.2,-6.2C130.301,-6.3 130.5,-6.4 130.7,-6.4C130.9,-6.4 131,-6.3 131.2,-6.2C131.301,-6.1 131.4,-5.9 131.5,-5.8L131.5,6.2C131.5,6.4 131.4,6.5 131.2,6.6C131,6.7 130.9,6.8 130.7,6.8M115.601,7.1C115.4,7.1 115.301,7 115.101,6.9C115,6.8 114.9,6.6 114.801,6.5L114.801,-6.1C114.801,-6.3 114.9,-6.4 115.101,-6.5C115.2,-6.6 115.4,-6.7 115.601,-6.7C115.801,-6.7 115.9,-6.6 116.101,-6.5C116.2,-6.4 116.301,-6.2 116.4,-6.1L116.4,6.5C116.4,6.7 116.301,6.8 116.101,6.9C115.9,7.1 115.801,7.1 115.601,7.1M142.301,7.5C142.101,7.5 142,7.4 141.801,7.3C141.7,7.2 141.601,7 141.5,6.9L141.5,-6.4C141.5,-6.6 141.601,-6.7 141.801,-6.8C141.9,-6.9 142.101,-7 142.301,-7C142.5,-7 142.601,-6.9 142.801,-6.8C142.9,-6.7 143,-6.5 143.101,-6.4L143.101,6.9C143.101,7.1 143,7.2 142.801,7.3C142.601,7.4 142.4,7.5 142.301,7.5M23.601,7.8C23.4,7.8 23.301,7.7 23.101,7.6C23,7.5 22.9,7.3 22.801,7.2L22.801,-6.7C22.801,-6.9 22.9,-7 23.101,-7.1C23.2,-7.2 23.4,-7.3 23.601,-7.3C23.801,-7.3 23.9,-7.2 24.101,-7.1C24.2,-7 24.301,-6.8 24.4,-6.7L24.4,7.2C24.4,7.4 24.301,7.5 24.101,7.6C24,7.7 23.801,7.8 23.601,7.8M46.4,9.4C46.2,9.4 46.101,9.3 45.9,9.2C45.8,9.1 45.7,8.9 45.601,8.8L45.601,-8.4C45.601,-8.6 45.7,-8.7 45.9,-8.9C46.2,-9.1 46.601,-9.1 46.9,-8.9C47,-8.8 47.101,-8.6 47.2,-8.5L47.2,8.7C47.2,8.9 47.101,9 46.9,9.1C46.801,9.4 46.601,9.4 46.4,9.4M96.301,9.8C96.101,9.8 96,9.7 95.801,9.6C95.7,9.5 95.601,9.3 95.5,9.2L95.5,-8.7C95.5,-8.9 95.601,-9 95.801,-9.1C95.9,-9.2 96.101,-9.3 96.301,-9.3C96.5,-9.3 96.601,-9.2 96.801,-9.1C96.9,-9 97,-8.8 97.101,-8.7L97.101,9.2C97.101,9.4 97,9.5 96.801,9.6C96.601,9.7 96.5,9.8 96.301,9.8M65.7,10.1C65.5,10.1 65.4,10 65.2,9.9C65.101,9.8 65,9.6 64.9,9.5L64.9,-9C64.9,-9.2 65,-9.3 65.2,-9.4C65.301,-9.5 65.5,-9.6 65.7,-9.6C65.9,-9.6 66,-9.5 66.2,-9.4C66.301,-9.3 66.4,-9.1 66.5,-9L66.5,9.5C66.5,9.7 66.4,9.8 66.2,9.9C66.101,10 65.9,10.1 65.7,10.1M31.301,10.4C31.101,10.4 31,10.3 30.801,10.2C30.7,10.1 30.601,9.9 30.5,9.8L30.5,-9.4C30.5,-9.6 30.601,-9.7 30.801,-9.8C31.101,-10 31.5,-10 31.801,-9.8C31.9,-9.7 32,-9.5 32.101,-9.4L32.101,9.8C32.101,10 32,10.1 31.801,10.2C31.7,10.3 31.5,10.4 31.301,10.4M134.601,10.7C134.4,10.7 134.301,10.6 134.101,10.5C134,10.4 133.9,10.2 133.801,10.1L133.801,-9.7C133.801,-9.9 133.9,-10 134.101,-10.1C134.4,-10.3 134.801,-10.3 135.101,-10.1C135.2,-10 135.301,-9.8 135.4,-9.7L135.4,10.1C135.4,10.3 135.301,10.4 135.101,10.5C134.9,10.7 134.7,10.7 134.601,10.7M54.2,11.4C54,11.4 53.9,11.3 53.7,11.2C53.601,11.1 53.5,10.9 53.4,10.8L53.4,-10.3C53.4,-10.5 53.5,-10.6 53.7,-10.7C53.801,-10.8 54,-10.9 54.2,-10.9C54.4,-10.9 54.5,-10.8 54.7,-10.7C54.801,-10.6 54.9,-10.4 55,-10.3L55,10.8C55,11 54.9,11.1 54.7,11.2C54.5,11.3 54.301,11.4 54.2,11.4M61.9,11.4C61.7,11.4 61.601,11.3 61.4,11.2C61.3,11.1 61.2,10.9 61.101,10.8L61.101,-10.3C61.101,-10.5 61.2,-10.6 61.4,-10.7C61.5,-10.8 61.7,-10.9 61.9,-10.9C62.101,-10.9 62.2,-10.8 62.4,-10.7C62.5,-10.6 62.601,-10.4 62.7,-10.3L62.7,10.8C62.7,11 62.601,11.1 62.4,11.2C62.2,11.3 62.101,11.4 61.9,11.4M126.801,11.4C126.601,11.4 126.5,11.3 126.301,11.2C126.2,11.1 126.101,10.9 126,10.8L126,-10.3C126,-10.5 126.101,-10.6 126.301,-10.7C126.601,-10.9 127,-10.9 127.301,-10.7C127.4,-10.6 127.5,-10.4 127.601,-10.3L127.601,10.8C127.601,11 127.5,11.1 127.301,11.2C127.2,11.3 127,11.4 126.801,11.4M92.4,11.7C92.2,11.7 92.101,11.6 91.9,11.5C91.8,11.4 91.7,11.2 91.601,11.1L91.601,-10.7C91.601,-10.9 91.7,-11 91.9,-11.1C92,-11.2 92.2,-11.3 92.4,-11.3C92.601,-11.3 92.7,-11.2 92.9,-11.1C93,-11 93.101,-10.8 93.2,-10.7L93.2,11.1C93.2,11.3 93.101,11.4 92.9,11.5C92.801,11.7 92.601,11.7 92.4,11.7M123,12C122.801,12 122.7,11.9 122.5,11.8C122.4,11.7 122.301,11.5 122.2,11.4L122.2,-11C122.2,-11.2 122.301,-11.3 122.5,-11.4C122.801,-11.6 123.2,-11.6 123.5,-11.4C123.601,-11.3 123.7,-11.1 123.801,-11L123.801,11.4C123.801,11.6 123.7,11.7 123.5,11.8C123.301,12 123.2,12 123,12M50.301,13.4C50.101,13.4 50,13.3 49.801,13.2C49.7,13.1 49.601,12.9 49.5,12.8L49.5,-12.3C49.5,-12.5 49.601,-12.6 49.801,-12.7C49.9,-12.8 50.101,-12.9 50.301,-12.9C50.5,-12.9 50.601,-12.8 50.801,-12.7C50.9,-12.6 51,-12.4 51.101,-12.3L51.101,12.8C51.101,13 51,13.1 50.801,13.2C50.7,13.3 50.5,13.4 50.301,13.4M84.7,13.4C84.5,13.4 84.4,13.3 84.2,13.2C84.101,13.1 84,12.9 83.9,12.8L83.9,-12.3C83.9,-12.5 84,-12.6 84.2,-12.7C84.301,-12.8 84.5,-12.9 84.7,-12.9C84.9,-12.9 85,-12.8 85.2,-12.7C85.301,-12.6 85.4,-12.4 85.5,-12.3L85.5,12.8C85.5,13 85.4,13.1 85.2,13.2C85.101,13.3 84.9,13.4 84.7,13.4M111.7,15.7C111.5,15.7 111.4,15.6 111.2,15.5C111.101,15.4 111,15.2 110.9,15.1L110.9,-14.6C110.9,-14.8 111,-14.9 111.2,-15C111.301,-15.1 111.5,-15.2 111.7,-15.2C111.9,-15.2 112,-15.1 112.2,-15C112.301,-14.9 112.4,-14.7 112.5,-14.6L112.5,15.1C112.5,15.3 112.4,15.4 112.2,15.5C112.101,15.6 111.9,15.7 111.7,15.7M100.101,17.3C99.9,17.3 99.801,17.2 99.601,17.1C99.5,17 99.4,16.8 99.301,16.7L99.301,-16.2C99.301,-16.4 99.4,-16.5 99.601,-16.6C99.7,-16.7 99.9,-16.8 100.101,-16.8C100.301,-16.8 100.4,-16.7 100.601,-16.6C100.7,-16.5 100.801,-16.3 100.9,-16.2L100.9,16.7C100.9,16.9 100.801,17 100.601,17.1C100.5,17.2 100.301,17.3 100.101,17.3M88.601,17.9C88.4,17.9 88.301,17.8 88.101,17.7C88,17.6 87.9,17.4 87.801,17.3L87.801,-16.9C87.801,-17.1 87.9,-17.2 88.101,-17.3C88.4,-17.5 88.801,-17.5 89.101,-17.3C89.2,-17.2 89.301,-17 89.4,-16.9L89.4,17.3C89.4,17.5 89.301,17.6 89.101,17.7C88.9,17.9 88.7,17.9 88.601,17.9M104,17.9C103.801,17.9 103.7,17.8 103.5,17.7C103.4,17.6 103.301,17.4 103.2,17.3L103.2,-16.9C103.2,-17.1 103.301,-17.2 103.5,-17.3C103.801,-17.5 104.2,-17.5 104.5,-17.3C104.601,-17.2 104.7,-17 104.801,-16.9L104.801,17.3C104.801,17.5 104.7,17.6 104.5,17.7C104.301,17.9 104.2,17.9 104,17.9M138.4,19.3C138.2,19.3 138.101,19.2 137.9,19.1C137.8,19 137.7,18.8 137.601,18.7L137.601,-18.2C137.601,-18.4 137.7,-18.5 137.9,-18.6C138.2,-18.8 138.601,-18.8 138.9,-18.6C139,-18.5 139.101,-18.3 139.2,-18.2L139.2,18.7C139.2,18.9 139.101,19 138.9,19.1C138.801,19.2 138.601,19.3 138.4,19.3" style="fill:white;fill-rule:nonzero;"/>
    </g>
    <g transform="matrix(1,0,0,1,1423.78,573.155)">
        <path d="M0,-9.3C0,-9.5 -0.101,-9.6 -0.3,-9.7C-0.601,-9.9 -1,-9.9 -1.3,-9.7C-1.4,-9.6 -1.5,-9.4 -1.601,-9.3L-1.601,0C-1.601,0.2 -1.5,0.301 -1.3,0.4C-1,0.6 -0.601,0.6 -0.3,0.4C-0.2,0.3 -0.101,0.1 0,0L0,-9.3" style="fill:white;fill-rule:nonzero;"/>
    </g>
    <g transform="matrix(1,0,0,1,1536.78,573.155)">
        <path d="M0,-9.3C0,-9.5 -0.101,-9.6 -0.3,-9.7C-0.601,-9.9 -1,-9.9 -1.3,-9.7C-1.4,-9.6 -1.5,-9.4 -1.601,-9.3L-1.601,0C-1.601,0.2 -1.5,0.301 -1.3,0.4C-1,0.6 -0.601,0.6 -0.3,0.4C-0.2,0.3 -0.101,0.1 0,0L0,-9.3" style="fill:white;fill-rule:nonzero;"/>
    </g>
    <g transform="matrix(1,0,0,1,1427.68,574.855)">
        <path d="M0,0.3L0,-13C0,-13.2 -0.101,-13.3 -0.301,-13.4C-0.601,-13.6 -1,-13.6 -1.301,-13.4C-1.4,-13.3 -1.5,-13.1 -1.601,-13L-1.601,0.3C-1.601,0.5 -1.5,0.6 -1.301,0.7C-1,0.9 -0.601,0.9 -0.301,0.7C-0.2,0.6 -0.101,0.4 0,0.3Z" style="fill:white;fill-rule:nonzero;"/>
    </g>
    <g transform="matrix(1,0,0,1,1540.68,574.855)">
        <path d="M0,0.3L0,-13C0,-13.2 -0.101,-13.3 -0.301,-13.4C-0.601,-13.6 -1,-13.6 -1.301,-13.4C-1.4,-13.3 -1.5,-13.1 -1.601,-13L-1.601,0.3C-1.601,0.5 -1.5,0.6 -1.301,0.7C-1,0.9 -0.601,0.9 -0.301,0.7C-0.2,0.6 -0.101,0.4 0,0.3Z" style="fill:white;fill-rule:nonzero;"/>
    </g>
    <g transform="matrix(1,0,0,1,1431.48,571.855)">
        <path d="M0,-6.7C0,-6.9 -0.101,-7 -0.3,-7.1C-0.601,-7.3 -1,-7.3 -1.3,-7.1C-1.4,-7 -1.5,-6.8 -1.601,-6.7L-1.601,0C-1.601,0.2 -1.5,0.3 -1.3,0.4C-1,0.6 -0.601,0.6 -0.3,0.4C-0.2,0.3 -0.101,0.1 0,0L0,-6.7" style="fill:white;fill-rule:nonzero;"/>
    </g>
    <g transform="matrix(1,0,0,1,1544.48,571.855)">
        <path d="M0,-6.7C0,-6.9 -0.101,-7 -0.3,-7.1C-0.601,-7.3 -1,-7.3 -1.3,-7.1C-1.4,-7 -1.5,-6.8 -1.601,-6.7L-1.601,0C-1.601,0.2 -1.5,0.3 -1.3,0.4C-1,0.6 -0.601,0.6 -0.3,0.4C-0.2,0.3 -0.101,0.1 0,0L0,-6.7" style="fill:white;fill-rule:nonzero;"/>
    </g>
    <g transform="matrix(1,0,0,1,1491.08,565.155)">
        <path d="M0,6.7C0,6.9 0.101,7 0.3,7.1C0.601,7.3 1,7.3 1.3,7.1C1.4,7 1.5,6.8 1.601,6.7L1.601,0C1.601,-0.2 1.5,-0.3 1.3,-0.4C1,-0.6 0.601,-0.6 0.3,-0.4C0.2,-0.3 0.101,-0.1 0,0L0,6.7" style="fill:white;fill-rule:nonzero;"/>
    </g>
    <g transform="matrix(1,0,0,1,1511.08,565.155)">
        <path d="M0,6.7C0,6.9 0.101,7 0.3,7.1C0.601,7.3 1,7.3 1.3,7.1C1.4,7 1.5,6.8 1.601,6.7L1.601,0C1.601,-0.2 1.5,-0.3 1.3,-0.4C1,-0.6 0.601,-0.6 0.3,-0.4C0.2,-0.3 0.101,-0.1 0,0L0,6.7" style="fill:white;fill-rule:nonzero;"/>
    </g>
    <g transform="matrix(1,0,0,1,1435.38,584.055)">
        <path d="M0,0.3L0,-31.3C0,-31.5 -0.1,-31.6 -0.3,-31.7C-0.6,-31.9 -1,-31.9 -1.3,-31.7C-1.399,-31.6 -1.5,-31.4 -1.6,-31.3L-1.6,0.3C-1.6,0.5 -1.5,0.6 -1.3,0.7C-1,0.9 -0.6,0.9 -0.3,0.7C-0.199,0.6 -0.1,0.4 0,0.3Z" style="fill:white;fill-rule:nonzero;"/>
    </g>
    <g transform="matrix(1,0,0,1,1548.38,584.055)">
        <path d="M0,0.3L0,-31.3C0,-31.5 -0.1,-31.6 -0.3,-31.7C-0.6,-31.9 -1,-31.9 -1.3,-31.7C-1.399,-31.6 -1.5,-31.4 -1.6,-31.3L-1.6,0.3C-1.6,0.5 -1.5,0.6 -1.3,0.7C-1,0.9 -0.6,0.9 -0.3,0.7C-0.199,0.6 -0.1,0.4 0,0.3Z" style="fill:white;fill-rule:nonzero;"/>
    </g>
    <g transform="matrix(1,0,0,1,1487.18,553.055)">
        <path d="M0,-0.3L0,31.3C0,31.5 0.1,31.6 0.3,31.7C0.6,31.9 1,31.9 1.3,31.7C1.399,31.6 1.5,31.4 1.6,31.3L1.6,-0.3C1.6,-0.5 1.5,-0.6 1.3,-0.7C1,-0.9 0.6,-0.9 0.3,-0.7C0.199,-0.6 0.1,-0.4 0,-0.3Z" style="fill:white;fill-rule:nonzero;"/>
    </g>
    <g transform="matrix(1,0,0,1,1507.18,553.055)">
        <path d="M0,-0.3L0,31.3C0,31.5 0.1,31.6 0.3,31.7C0.6,31.9 1,31.9 1.3,31.7C1.399,31.6 1.5,31.4 1.6,31.3L1.6,-0.3C1.6,-0.5 1.5,-0.6 1.3,-0.7C1,-0.9 0.6,-0.9 0.3,-0.7C0.199,-0.6 0.1,-0.4 0,-0.3Z" style="fill:white;fill-rule:nonzero;"/>
    </g>
    <g transform="matrix(1,0,0,1,1499.18,553.055)">
        <path d="M0,-0.3L0,31.3C0,31.5 0.1,31.6 0.3,31.7C0.6,31.9 1,31.9 1.3,31.7C1.399,31.6 1.5,31.4 1.6,31.3L1.6,-0.3C1.6,-0.5 1.5,-0.6 1.3,-0.7C1,-0.9 0.6,-0.9 0.3,-0.7C0.199,-0.6 0.1,-0.4 0,-0.3Z" style="fill:white;fill-rule:nonzero;"/>
    </g>
    <g transform="matrix(1,0,0,1,1519.18,553.055)">
        <path d="M0,-0.3L0,31.3C0,31.5 0.1,31.6 0.3,31.7C0.6,31.9 1,31.9 1.3,31.7C1.399,31.6 1.5,31.4 1.6,31.3L1.6,-0.3C1.6,-0.5 1.5,-0.6 1.3,-0.7C1,-0.9 0.6,-0.9 0.3,-0.7C0.199,-0.6 0.1,-0.4 0,-0.3Z" style="fill:white;fill-rule:nonzero;"/>
    </g>
    <g transform="matrix(1,0,0,1,1439.18,576.155)">
        <path d="M0,-15.2C0,-15.4 -0.101,-15.5 -0.301,-15.6C-0.601,-15.8 -1,-15.8 -1.301,-15.6C-1.4,-15.5 -1.5,-15.3 -1.601,-15.2L-1.601,0C-1.601,0.2 -1.5,0.3 -1.301,0.4C-1,0.6 -0.601,0.6 -0.301,0.4C-0.2,0.3 -0.101,0.1 0,0L0,-14.9C0.1,-15 0,-15.1 0,-15.2" style="fill:white;fill-rule:nonzero;"/>
    </g>
    <g transform="matrix(1,0,0,1,1552.18,576.155)">
        <path d="M0,-15.2C0,-15.4 -0.101,-15.5 -0.301,-15.6C-0.601,-15.8 -1,-15.8 -1.301,-15.6C-1.4,-15.5 -1.5,-15.3 -1.601,-15.2L-1.601,0C-1.601,0.2 -1.5,0.3 -1.301,0.4C-1,0.6 -0.601,0.6 -0.301,0.4C-0.2,0.3 -0.101,0.1 0,0L0,-14.9C0.1,-15 0,-15.1 0,-15.2" style="fill:white;fill-rule:nonzero;"/>
    </g>
    <g transform="matrix(1,0,0,1,1483.38,560.855)">
        <path d="M0,15.2C0,15.4 0.101,15.5 0.301,15.6C0.601,15.8 1,15.8 1.301,15.6C1.4,15.5 1.5,15.3 1.601,15.2L1.601,0C1.601,-0.2 1.5,-0.3 1.301,-0.4C1,-0.6 0.601,-0.6 0.301,-0.4C0.2,-0.3 0.101,-0.1 0,0L0,15.2" style="fill:white;fill-rule:nonzero;"/>
    </g>
    <g transform="matrix(1,0,0,1,1503.38,560.855)">
        <path d="M0,15.2C0,15.4 0.101,15.5 0.301,15.6C0.601,15.8 1,15.8 1.301,15.6C1.4,15.5 1.5,15.3 1.601,15.2L1.601,0C1.601,-0.2 1.5,-0.3 1.301,-0.4C1,-0.6 0.601,-0.6 0.301,-0.4C0.2,-0.3 0.101,-0.1 0,0L0,15.2" style="fill:white;fill-rule:nonzero;"/>
    </g>
    <g transform="matrix(1,0,0,1,1495.38,560.855)">
        <path d="M0,15.2C0,15.4 0.101,15.5 0.301,15.6C0.601,15.8 1,15.8 1.301,15.6C1.4,15.5 1.5,15.3 1.601,15.2L1.601,0C1.601,-0.2 1.5,-0.3 1.301,-0.4C1,-0.6 0.601,-0.6 0.301,-0.4C0.2,-0.3 0.101,-0.1 0,0L0,15.2" style="fill:white;fill-rule:nonzero;"/>
    </g>
    <g transform="matrix(1,0,0,1,1515.38,560.855)">
        <path d="M0,15.2C0,15.4 0.101,15.5 0.301,15.6C0.601,15.8 1,15.8 1.301,15.6C1.4,15.5 1.5,15.3 1.601,15.2L1.601,0C1.601,-0.2 1.5,-0.3 1.301,-0.4C1,-0.6 0.601,-0.6 0.301,-0.4C0.2,-0.3 0.101,-0.1 0,0L0,15.2" style="fill:white;fill-rule:nonzero;"/>
    </g>
    <g transform="matrix(1,0,0,1,1443.08,570.955)">
        <path d="M0,0.3L0,-5.1C0,-5.3 -0.1,-5.4 -0.3,-5.5C-0.6,-5.7 -1,-5.7 -1.3,-5.5C-1.4,-5.4 -1.5,-5.2 -1.6,-5.1L-1.6,0.3C-1.6,0.5 -1.5,0.6 -1.3,0.7C-1,0.9 -0.6,0.9 -0.3,0.7C-0.2,0.6 -0.1,0.4 0,0.3Z" style="fill:white;fill-rule:nonzero;"/>
    </g>
    <g transform="matrix(1,0,0,1,1556.08,570.955)">
        <path d="M0,0.3L0,-5.1C0,-5.3 -0.1,-5.4 -0.3,-5.5C-0.6,-5.7 -1,-5.7 -1.3,-5.5C-1.4,-5.4 -1.5,-5.2 -1.6,-5.1L-1.6,0.3C-1.6,0.5 -1.5,0.6 -1.3,0.7C-1,0.9 -0.6,0.9 -0.3,0.7C-0.2,0.6 -0.1,0.4 0,0.3Z" style="fill:white;fill-rule:nonzero;"/>
    </g>
    <g transform="matrix(1,0,0,1,1479.48,566.155)">
        <path d="M0,-0.3L0,5.1C0,5.3 0.1,5.4 0.3,5.5C0.6,5.7 1,5.7 1.3,5.5C1.4,5.4 1.5,5.2 1.6,5.1L1.6,-0.3C1.6,-0.5 1.5,-0.6 1.3,-0.7C1,-0.9 0.6,-0.9 0.3,-0.7C0.2,-0.6 0.1,-0.4 0,-0.3Z" style="fill:white;fill-rule:nonzero;"/>
    </g>
    <g transform="matrix(1,0,0,1,1446.58,570.655)">
        <path d="M0,-4.1C0,-4.3 -0.1,-4.4 -0.3,-4.5C-0.6,-4.7 -1,-4.7 -1.3,-4.5C-1.4,-4.4 -1.5,-4.2 -1.6,-4.1L-1.6,0C-1.6,0.2 -1.5,0.3 -1.3,0.4C-1,0.6 -0.6,0.6 -0.3,0.4C-0.2,0.3 -0.1,0.1 0,0L0,-4.1" style="fill:white;fill-rule:nonzero;"/>
    </g>
    <g transform="matrix(1,0,0,1,1559.58,570.655)">
        <path d="M0,-4.1C0,-4.3 -0.1,-4.4 -0.3,-4.5C-0.6,-4.7 -1,-4.7 -1.3,-4.5C-1.4,-4.4 -1.5,-4.2 -1.6,-4.1L-1.6,0C-1.6,0.2 -1.5,0.3 -1.3,0.4C-1,0.6 -0.6,0.6 -0.3,0.4C-0.2,0.3 -0.1,0.1 0,0L0,-4.1" style="fill:white;fill-rule:nonzero;"/>
    </g>
    <g transform="matrix(1,0,0,1,1475.98,566.455)">
        <path d="M0,4.1C0,4.3 0.1,4.4 0.3,4.5C0.6,4.7 1,4.7 1.3,4.5C1.4,4.4 1.5,4.2 1.6,4.1L1.6,0C1.6,-0.2 1.5,-0.3 1.3,-0.4C1,-0.6 0.6,-0.6 0.3,-0.4C0.2,-0.3 0.1,-0.1 0,0L0,4.1" style="fill:white;fill-rule:nonzero;"/>
    </g>
    <g transform="matrix(1,0,0,1,1450.48,576.155)">
        <path d="M0,0.3L0,-15.6C0,-15.8 -0.101,-15.9 -0.3,-16C-0.601,-16.2 -1,-16.2 -1.3,-16C-1.4,-15.9 -1.5,-15.7 -1.601,-15.6L-1.601,0.3C-1.601,0.5 -1.5,0.6 -1.3,0.7C-1,0.9 -0.601,0.9 -0.3,0.7C-0.2,0.6 -0.101,0.4 0,0.3Z" style="fill:white;fill-rule:nonzero;"/>
    </g>
    <g transform="matrix(1,0,0,1,1531.08,560.855)">
        <path d="M0,-0.3L0,15.6C0,15.8 0.101,15.9 0.3,16C0.601,16.2 1,16.2 1.3,16C1.4,15.9 1.5,15.7 1.601,15.6L1.601,-0.3C1.601,-0.5 1.5,-0.6 1.3,-0.7C1,-0.9 0.601,-0.9 0.3,-0.7C0.2,-0.6 0.101,-0.4 0,-0.3Z" style="fill:white;fill-rule:nonzero;"/>
    </g>
    <g transform="matrix(1,0,0,1,1454.28,575.255)">
        <path d="M0,-13.3C0,-13.5 -0.101,-13.6 -0.3,-13.7C-0.601,-13.9 -1,-13.9 -1.3,-13.7C-1.4,-13.6 -1.5,-13.4 -1.601,-13.3L-1.601,0C-1.601,0.2 -1.5,0.301 -1.3,0.4C-1,0.6 -0.601,0.6 -0.3,0.4C-0.2,0.3 -0.101,0.1 0,0L0,-13.3" style="fill:white;fill-rule:nonzero;"/>
    </g>
    <g transform="matrix(1,0,0,1,1527.28,561.755)">
        <path d="M0,13.3C0,13.5 0.1,13.6 0.3,13.7C0.6,13.9 1,13.9 1.3,13.7C1.4,13.6 1.5,13.4 1.6,13.3L1.6,0C1.6,-0.2 1.5,-0.3 1.3,-0.4C1,-0.6 0.6,-0.6 0.3,-0.4C0.2,-0.3 0.1,-0.1 0,0L0,13C-0.1,13.2 0,13.3 0,13.3" style="fill:white;fill-rule:nonzero;"/>
    </g>
    <g transform="matrix(1,0,0,1,1458.18,574.255)">
        <path d="M0,0.3L0,-11.7C0,-11.9 -0.101,-12 -0.301,-12.1C-0.601,-12.3 -1,-12.3 -1.301,-12.1C-1.4,-12 -1.5,-11.8 -1.601,-11.7L-1.601,0.3C-1.601,0.5 -1.5,0.6 -1.301,0.7C-1,0.9 -0.601,0.9 -0.301,0.7C-0.2,0.6 -0.101,0.4 0,0.3Z" style="fill:white;fill-rule:nonzero;"/>
    </g>
    <g transform="matrix(1,0,0,1,1523.38,562.755)">
        <path d="M0,-0.3L0,11.7C0,11.9 0.101,12 0.301,12.1C0.601,12.3 1,12.3 1.301,12.1C1.4,12 1.5,11.8 1.601,11.7L1.601,-0.3C1.601,-0.5 1.5,-0.6 1.301,-0.7C1,-0.9 0.601,-0.9 0.301,-0.7C0.2,-0.6 0.101,-0.4 0,-0.3Z" style="fill:white;fill-rule:nonzero;"/>
    </g>
    <g transform="matrix(1,0,0,1,1462.08,572.955)">
        <path d="M0,-8.7C0,-8.9 -0.1,-9 -0.3,-9.1C-0.6,-9.3 -1,-9.3 -1.3,-9.1C-1.4,-9 -1.5,-8.8 -1.6,-8.7L-1.6,0C-1.6,0.2 -1.5,0.3 -1.3,0.4C-1,0.6 -0.6,0.6 -0.3,0.4C-0.2,0.3 -0.1,0.1 0,0L0,-8.7" style="fill:white;fill-rule:nonzero;"/>
    </g>
    <g transform="matrix(1,0,0,1,1465.88,571.555)">
        <path d="M0,-6.1L0,-6.4C0,-6.6 -0.1,-6.7 -0.3,-6.8C-0.6,-7 -1,-7 -1.3,-6.8C-1.399,-6.7 -1.5,-6.5 -1.6,-6.4L-1.6,0.3C-1.6,0.5 -1.5,0.6 -1.3,0.7C-1,0.9 -0.6,0.9 -0.3,0.7C-0.199,0.6 -0.1,0.4 0,0.3L0,-6.1" style="fill:white;fill-rule:nonzero;"/>
    </g>
    <g transform="matrix(1,0,0,1,1471.78,567.655)">
        <path d="M0,1.5C0,1.7 0.1,1.8 0.3,1.9C0.6,2.1 1,2.1 1.3,1.9C1.4,1.8 1.5,1.6 1.6,1.5L1.6,0C1.6,-0.2 1.5,-0.3 1.3,-0.4C1,-0.6 0.6,-0.6 0.3,-0.4C0.2,-0.3 0.1,-0.1 0,0L0,1.5" style="fill:white;fill-rule:nonzero;"/>
    </g>
    <g transform="matrix(1,0,0,1,1561.78,567.655)">
        <path d="M0,1.5C0,1.7 0.1,1.8 0.3,1.9C0.6,2.1 1,2.1 1.3,1.9C1.4,1.8 1.5,1.6 1.6,1.5L1.6,0C1.6,-0.2 1.5,-0.3 1.3,-0.4C1,-0.6 0.6,-0.6 0.3,-0.4C0.2,-0.3 0.1,-0.1 0,0L0,1.5" style="fill:white;fill-rule:nonzero;"/>
    </g>
    <g transform="matrix(1,0,0,1,1565.78,567.655)">
        <path d="M0,1.5C0,1.7 0.1,1.8 0.3,1.9C0.6,2.1 1,2.1 1.3,1.9C1.4,1.8 1.5,1.6 1.6,1.5L1.6,0C1.6,-0.2 1.5,-0.3 1.3,-0.4C1,-0.6 0.6,-0.6 0.3,-0.4C0.2,-0.3 0.1,-0.1 0,0L0,1.5" style="fill:white;fill-rule:nonzero;"/>
    </g>
    <g transform="matrix(1,0,0,1,1569.78,567.655)">
        <path d="M0,1.5C0,1.7 0.1,1.8 0.3,1.9C0.6,2.1 1,2.1 1.3,1.9C1.4,1.8 1.5,1.6 1.6,1.5L1.6,0C1.6,-0.2 1.5,-0.3 1.3,-0.4C1,-0.6 0.6,-0.6 0.3,-0.4C0.2,-0.3 0.1,-0.1 0,0L0,1.5" style="fill:white;fill-rule:nonzero;"/>
    </g>
    <g transform="matrix(1,0,0,1,1467.88,566.755)">
        <path d="M0,-0.3L0,3.8C0,4 0.101,4.1 0.301,4.2C0.601,4.4 1,4.4 1.301,4.2C1.4,4.1 1.5,3.9 1.601,3.8L1.601,-0.3C1.601,-0.5 1.5,-0.6 1.301,-0.7C1,-0.9 0.601,-0.9 0.301,-0.7C0.2,-0.6 0.101,-0.4 0,-0.3Z" style="fill:white;fill-rule:nonzero;"/>
    </g>
    <g transform="matrix(-0.232922,0.972495,0.972495,0.232922,3060.55,1787.69)">
        <path d="M192.144,-248.558C192.144,-248.558 266.364,-165.177 267.535,-157.185C268.471,-150.791 194.636,142.89 192.144,145.994C188.957,149.858 171.577,131.402 171.577,131.402L192.144,-248.558Z" style="fill:rgb(249,61,102);fill-rule:nonzero;"/>
    </g>
    <g transform="matrix(-0.244715,-0.969595,-0.969595,0.244715,307.779,1768.06)">
        <path d="M-177.071,-235.733C-177.071,-235.733 -246.543,-153.842 -248.681,-144.743C-251.733,-131.905 -183.39,124.981 -177.071,131.224C-174.445,133.862 -156.673,131.13 -156.673,131.13L-177.071,-235.733Z" style="fill:rgb(249,61,102);fill-rule:nonzero;"/>
    </g>
    <g transform="matrix(1,0,0,1,2894.58,1713.35)">
        <path d="M0,129.001C0,74.101 44.5,29.601 99.4,29.601C154.3,29.601 198.8,74.101 198.8,129.001C198.8,183.9 154.3,228.4 99.4,228.4C44.5,228.4 0,183.9 0,129.001M150.101,-52.399C150.101,-24.399 127.4,-1.699 99.4,-1.699C71.4,-1.699 48.7,-24.399 48.7,-52.399C48.7,-80.399 71.4,-103.1 99.4,-103.1C127.4,-103.199 150.101,-80.399 150.101,-52.399M-51.3,-143.499L-51.3,272.501C-51.3,273.9 -50.1,275.101 -48.7,275.101L247.5,275.101C248.9,275.101 250.101,273.9 250.101,272.501L250.101,-143.499C250.101,-144.899 248.9,-146.1 247.5,-146.1L-48.7,-146.1C-50.2,-146.1 -51.3,-144.899 -51.3,-143.499" style="fill:white;fill-rule:nonzero;"/>
    </g>
    <g transform="matrix(1,0,0,1,2894.58,1713.35)">
        <path d="M0,129.001C0,74.101 44.5,29.601 99.4,29.601C154.3,29.601 198.8,74.101 198.8,129.001C198.8,183.9 154.3,228.4 99.4,228.4C44.5,228.4 0,183.9 0,129.001ZM150.101,-52.399C150.101,-24.399 127.4,-1.699 99.4,-1.699C71.4,-1.699 48.7,-24.399 48.7,-52.399C48.7,-80.399 71.4,-103.1 99.4,-103.1C127.4,-103.199 150.101,-80.399 150.101,-52.399ZM-51.3,-143.499L-51.3,272.501C-51.3,273.9 -50.1,275.101 -48.7,275.101L247.5,275.101C248.9,275.101 250.101,273.9 250.101,272.501L250.101,-143.499C250.101,-144.899 248.9,-146.1 247.5,-146.1L-48.7,-146.1C-50.2,-146.1 -51.3,-144.899 -51.3,-143.499Z" style="fill:none;fill-rule:nonzero;stroke:rgb(34,34,34);stroke-width:7.7px;stroke-linejoin:round;"/>
    </g>
    <g transform="matrix(0,1,1,0,2993.83,1610.21)">
        <path d="M50.75,-50.65C78.75,-50.65 101.45,-27.951 101.45,0.05C101.45,28.049 78.75,50.75 50.75,50.75C22.749,50.75 0.049,28.049 0.049,0.05C-0.05,-27.951 22.749,-50.65 50.75,-50.65" style="fill:white;fill-rule:nonzero;"/>
    </g>
    <g transform="matrix(0,1,1,0,2993.83,1610.21)">
        <path d="M50.75,-50.65C78.75,-50.65 101.45,-27.951 101.45,0.05C101.45,28.049 78.75,50.75 50.75,50.75C22.749,50.75 0.049,28.049 0.049,0.05C-0.05,-27.951 22.749,-50.65 50.75,-50.65Z" style="fill:none;fill-rule:nonzero;stroke:rgb(34,34,34);stroke-width:13.72px;stroke-linejoin:round;"/>
    </g>
    <g transform="matrix(0,1,1,0,2993.98,1742.95)">
        <path d="M99.401,-99.4C154.3,-99.4 198.8,-54.9 198.8,0.001C198.8,54.901 154.3,99.401 99.401,99.401C44.501,99.401 0.001,54.901 0.001,0.001C0.001,-54.9 44.501,-99.4 99.401,-99.4" style="fill:white;fill-rule:nonzero;"/>
    </g>
    <g transform="matrix(-0.964879,0.262696,0.262696,0.964879,3044.54,1928.14)">
        <ellipse cx="26.113" cy="-95.912" rx="99.402" ry="99.402" style="fill:none;stroke:rgb(34,34,34);stroke-width:13.72px;stroke-linejoin:round;"/>
    </g>
    <g transform="matrix(1,0,0,1,2931.08,1842.35)">
        <path d="M0,0.001C0,-34.699 28.101,-62.799 62.8,-62.799C97.5,-62.799 125.601,-34.699 125.601,0.001C125.601,34.701 97.5,62.801 62.8,62.801C28.2,62.9 0,34.701 0,0.001M-36.5,0.001C-36.5,54.9 8,99.4 62.9,99.4C117.8,99.4 162.3,54.9 162.3,0.001C162.3,-54.899 117.8,-99.399 62.9,-99.399C8,-99.399 -36.5,-54.899 -36.5,0.001" style="fill:white;fill-rule:nonzero;"/>
    </g>
    <g transform="matrix(1,0,0,1,2931.08,1842.35)">
        <path d="M0,0.001C0,-34.699 28.101,-62.799 62.8,-62.799C97.5,-62.799 125.601,-34.699 125.601,0.001C125.601,34.701 97.5,62.801 62.8,62.801C28.2,62.9 0,34.701 0,0.001ZM-36.5,0.001C-36.5,54.9 8,99.4 62.9,99.4C117.8,99.4 162.3,54.9 162.3,0.001C162.3,-54.899 117.8,-99.399 62.9,-99.399C8,-99.399 -36.5,-54.899 -36.5,0.001Z" style="fill:none;fill-rule:nonzero;stroke:rgb(34,34,34);stroke-width:13.72px;stroke-linejoin:round;"/>
    </g>
    <g transform="matrix(0,1,1,0,2993.88,1779.55)">
        <path d="M62.801,-62.801C97.501,-62.801 125.601,-34.7 125.601,-0.001C125.601,34.7 97.501,62.801 62.801,62.801C28.1,62.801 0.001,34.7 0.001,-0.001C0.001,-34.6 28.1,-62.801 62.801,-62.801" style="fill:rgb(249,61,102);fill-rule:nonzero;"/>
    </g>
    <g transform="matrix(-0.707096,-0.707117,-0.707117,0.707096,3010.93,1801.43)">
        <path d="M-40.92,16.95C-27.697,3.727 -6.202,3.727 7.021,16.95" style="fill:none;fill-rule:nonzero;stroke:white;stroke-width:11.2px;stroke-linejoin:round;"/>
    </g>
    <g transform="matrix(1,0,0,1,2974.18,1660.85)">
        <path d="M0,0.1C0,-10.799 8.899,-19.7 19.8,-19.7C30.699,-19.7 39.6,-10.799 39.6,0.1C39.6,11 30.7,19.9 19.8,19.9C8.8,19.9 0,11 0,0.1M-31,0.1C-31,28.1 -8.301,50.8 19.699,50.8C47.699,50.8 70.399,28.1 70.399,0.1C70.399,-27.9 47.699,-50.6 19.699,-50.6C-8.301,-50.7 -31,-27.9 -31,0.1" style="fill:white;fill-rule:nonzero;"/>
    </g>
    <g transform="matrix(1,0,0,1,2974.18,1660.85)">
        <path d="M0,0.1C0,-10.799 8.899,-19.7 19.8,-19.7C30.699,-19.7 39.6,-10.799 39.6,0.1C39.6,11 30.7,19.9 19.8,19.9C8.8,19.9 0,11 0,0.1ZM-31,0.1C-31,28.1 -8.301,50.8 19.699,50.8C47.699,50.8 70.399,28.1 70.399,0.1C70.399,-27.9 47.699,-50.6 19.699,-50.6C-8.301,-50.7 -31,-27.9 -31,0.1Z" style="fill:none;fill-rule:nonzero;stroke:rgb(34,34,34);stroke-width:13.72px;stroke-linejoin:round;"/>
    </g>
    <g transform="matrix(0,1,1,0,2993.98,1641.15)">
        <path d="M19.8,-19.8C30.7,-19.8 39.6,-10.901 39.6,0C39.6,10.899 30.7,19.8 19.8,19.8C8.901,19.8 0,10.9 0,0C0,-11 8.8,-19.8 19.8,-19.8" style="fill:rgb(249,61,102);fill-rule:nonzero;"/>
    </g>
    <g transform="matrix(1,0,0,1,2773.18,1983.96)">
        <path d="M0,-481.1L0.899,-67.3L70.1,1.9L70.1,-414.1C70.1,-415.5 71.3,-416.701 72.699,-416.701L368.899,-416.701L284.399,-483L0,-481.1Z" style="fill:rgb(39,44,50);fill-rule:nonzero;stroke:black;stroke-width:1px;"/>
    </g>
    <g transform="matrix(1,0,0,1,2559.38,2188.86)">
        <path d="M0,-157.901C0,-157.901 79.301,-69.401 105.9,-58.201C105.9,-58.201 119.9,-52.401 151.4,-77.3C151.4,-77.3 153.5,-78.901 163.101,-70.101C172.7,-61.201 213.3,-27.601 200.7,-7.101C188.101,13.399 135.301,14.899 91.9,-25.8C48.5,-66.401 11.101,-94.901 -4.8,-101.901C-4.8,-101.901 -10.6,-103.3 -9.899,-112.201C-9.199,-121.001 -10.199,-172.8 0,-157.901Z" style="fill:rgb(39,44,50);fill-rule:nonzero;stroke:black;stroke-width:4px;"/>
    </g>
    <g transform="matrix(1,0,0,1,366.276,1592.35)">
        <path d="M0,316.3C-52.9,316.3 -95.8,273.4 -95.8,220.5C-95.8,167.6 -52.9,124.699 0,124.699C52.9,124.699 95.8,167.6 95.8,220.5C95.8,273.4 52.9,316.3 0,316.3M0,-3.4C27,-3.4 48.9,18.5 48.9,45.5C48.9,72.5 27,94.4 0,94.4C-27,94.4 -48.9,72.5 -48.9,45.5C-48.9,18.4 -27,-3.4 0,-3.4M142.8,-44.9L-142.8,-44.9C-144.2,-44.9 -145.3,-43.8 -145.3,-42.4L-145.3,358.7C-145.3,360.1 -144.2,361.2 -142.8,361.2L142.8,361.2C144.2,361.2 145.3,360.1 145.3,358.7L145.3,-42.4C145.3,-43.7 144.1,-44.9 142.8,-44.9" style="fill:white;fill-rule:nonzero;"/>
    </g>
    <g transform="matrix(1,0,0,1,366.276,1592.35)">
        <path d="M0,316.3C-52.9,316.3 -95.8,273.4 -95.8,220.5C-95.8,167.6 -52.9,124.699 0,124.699C52.9,124.699 95.8,167.6 95.8,220.5C95.8,273.4 52.9,316.3 0,316.3ZM0,-3.4C27,-3.4 48.9,18.5 48.9,45.5C48.9,72.5 27,94.4 0,94.4C-27,94.4 -48.9,72.5 -48.9,45.5C-48.9,18.4 -27,-3.4 0,-3.4ZM142.8,-44.9L-142.8,-44.9C-144.2,-44.9 -145.3,-43.8 -145.3,-42.4L-145.3,358.7C-145.3,360.1 -144.2,361.2 -142.8,361.2L142.8,361.2C144.2,361.2 145.3,360.1 145.3,358.7L145.3,-42.4C145.3,-43.7 144.1,-44.9 142.8,-44.9Z" style="fill:none;fill-rule:nonzero;stroke:rgb(34,34,34);stroke-width:7.42px;stroke-linejoin:round;"/>
    </g>
    <g transform="matrix(0,-1,-1,0,366.276,1588.95)">
        <path d="M-48.901,-48.9C-75.901,-48.9 -97.8,-27 -97.8,0C-97.8,27 -75.901,48.901 -48.901,48.901C-21.901,48.901 -0.001,27 -0.001,0C-0.001,-27 -21.8,-48.9 -48.901,-48.9" style="fill:white;fill-rule:nonzero;"/>
    </g>
    <g transform="matrix(-0.987086,0.160193,0.160193,0.987086,381.733,1684.2)">
        <ellipse cx="7.833" cy="-48.268" rx="48.901" ry="48.901" style="fill:none;stroke:rgb(34,34,34);stroke-width:13.23px;stroke-linejoin:round;"/>
    </g>
    <g transform="matrix(0,-1,-1,0,366.275,1716.95)">
        <path d="M-95.8,-95.801C-148.7,-95.801 -191.601,-52.902 -191.601,-0.001C-191.601,52.899 -148.7,95.8 -95.8,95.8C-42.9,95.8 0.001,52.899 0.001,-0.001C0.001,-52.902 -42.9,-95.801 -95.8,-95.801" style="fill:white;fill-rule:nonzero;"/>
    </g>
    <g transform="matrix(0,-1,-1,0,366.275,1716.95)">
        <ellipse cx="-95.8" cy="-0.001" rx="95.801" ry="95.8" style="fill:none;stroke:rgb(34,34,34);stroke-width:13.23px;stroke-linejoin:round;"/>
    </g>
    <g transform="matrix(1,0,0,1,366.276,1752.16)">
        <path d="M0,121.2C-33.5,121.2 -60.6,94.099 -60.6,60.599C-60.6,27.099 -33.5,0 0,0C33.5,0 60.6,27.099 60.6,60.599C60.5,94.099 33.4,121.2 0,121.2M0,-35.2C-52.9,-35.2 -95.8,7.7 -95.8,60.599C-95.8,113.5 -52.9,156.4 0,156.4C52.9,156.4 95.8,113.5 95.8,60.599C95.8,7.7 52.9,-35.2 0,-35.2" style="fill:white;fill-rule:nonzero;"/>
    </g>
    <g transform="matrix(1,0,0,1,366.276,1752.16)">
        <path d="M0,121.2C-33.5,121.2 -60.6,94.099 -60.6,60.599C-60.6,27.099 -33.5,0 0,0C33.5,0 60.6,27.099 60.6,60.599C60.5,94.099 33.4,121.2 0,121.2ZM0,-35.2C-52.9,-35.2 -95.8,7.7 -95.8,60.599C-95.8,113.5 -52.9,156.4 0,156.4C52.9,156.4 95.8,113.5 95.8,60.599C95.8,7.7 52.9,-35.2 0,-35.2Z" style="fill:none;fill-rule:nonzero;stroke:rgb(34,34,34);stroke-width:13.23px;stroke-linejoin:round;"/>
    </g>
    <g transform="matrix(0,-1,-1,0,366.175,1752.15)">
        <path d="M-60.6,-60.601C-94.1,-60.601 -121.201,-33.501 -121.201,-0.001C-121.201,33.499 -94.1,60.6 -60.6,60.6C-27.1,60.6 0.001,33.499 0.001,-0.001C-0.099,-33.501 -27.2,-60.601 -60.6,-60.601" style="fill:rgb(249,61,102);fill-rule:nonzero;"/>
    </g>
    <g transform="matrix(0.707118,-0.707096,-0.707096,-0.707118,349.925,1819.53)">
        <path d="M-6.772,16.35C6.026,29.148 26.674,29.147 39.472,16.35" style="fill:none;fill-rule:nonzero;stroke:white;stroke-width:10.8px;stroke-linejoin:round;"/>
    </g>
    <g transform="matrix(1,0,0,1,366.276,1618.85)">
        <path d="M0,38.001C-10.5,38.001 -19.1,29.501 -19.1,18.9C-19.1,8.4 -10.6,-0.199 0,-0.199C10.5,-0.199 19.1,8.301 19.1,18.9C19.1,29.501 10.5,38.001 0,38.001M0,-29.899C-27,-29.899 -48.9,-7.999 -48.9,19.001C-48.9,46.001 -27,67.9 0,67.9C27,67.9 48.9,46.001 48.9,19.001C48.9,-8.1 27,-29.899 0,-29.899" style="fill:white;fill-rule:nonzero;"/>
    </g>
    <g transform="matrix(1,0,0,1,366.276,1618.85)">
        <path d="M0,38.001C-10.5,38.001 -19.1,29.501 -19.1,18.9C-19.1,8.4 -10.6,-0.199 0,-0.199C10.5,-0.199 19.1,8.301 19.1,18.9C19.1,29.501 10.5,38.001 0,38.001ZM0,-29.899C-27,-29.899 -48.9,-7.999 -48.9,19.001C-48.9,46.001 -27,67.9 0,67.9C27,67.9 48.9,46.001 48.9,19.001C48.9,-8.1 27,-29.899 0,-29.899Z" style="fill:none;fill-rule:nonzero;stroke:rgb(34,34,34);stroke-width:13.23px;stroke-linejoin:round;"/>
    </g>
    <g transform="matrix(0,-1,-1,0,366.276,1618.76)">
        <path d="M-19.1,-19.099C-29.6,-19.099 -38.2,-10.599 -38.2,0.001C-38.2,10.501 -29.7,19.1 -19.1,19.1C-8.6,19.1 0.001,10.6 0.001,0.001C0.001,-10.499 -8.499,-19.099 -19.1,-19.099" style="fill:rgb(249,61,102);fill-rule:nonzero;"/>
    </g>
    <g transform="matrix(1,0,0,1,579.176,1949.46)">
        <path d="M0,-461.6L-0.9,-65L-67.601,1.7L-67.601,-399.4C-67.601,-400.8 -68.7,-401.9 -70.101,-401.9L-355.7,-401.9L-274.2,-463.3L0,-461.6Z" style="fill:rgb(39,44,50);fill-rule:nonzero;stroke:black;stroke-width:1px;"/>
    </g>
    <g transform="matrix(0.665896,-0.746044,-0.746044,-0.665896,598.51,1198.17)">
        <path d="M-57.524,128.45L286.825,128.45" style="fill:none;fill-rule:nonzero;stroke:rgb(9,0,0);stroke-width:4px;"/>
    </g>
    <g transform="matrix(0.877015,0.480463,0.480463,-0.877015,851.894,556.061)">
        <path d="M36.445,-8.077C36.445,-8.077 -16.107,81.603 11.775,131.655C15.84,134.224 32.94,140.057 36.445,139.697C36.445,139.697 10.531,87.303 62.158,5.553L36.445,-8.077Z" style="fill:white;fill-rule:nonzero;"/>
    </g>
    <g transform="matrix(0.946435,0.322894,0.322894,-0.946435,859.203,567.364)">
        <path d="M24.125,-7.925C24.125,-7.925 10.467,31.792 8.274,73.836C6.081,115.88 24.125,135.772 24.125,135.772C24.125,135.772 33.673,140.614 49.969,139.306C49.969,139.306 16.008,102.89 51.655,3.052" style="fill:none;fill-rule:nonzero;stroke:black;stroke-width:3.12px;"/>
    </g>
    <g transform="matrix(0.461603,0.887087,0.887087,-0.461603,2238.03,109.49)">
        <path d="M-26.753,-55.02C-26.753,-55.02 -20.127,9.056 111.677,-55.02" style="fill:none;fill-rule:nonzero;stroke:white;stroke-width:2px;"/>
    </g>
    <g transform="matrix(0.814848,-0.579675,-0.579675,-0.814848,2267.21,174.207)">
        <path d="M-37.777,-11.474C-37.777,-11.474 7.702,65.395 -16.245,108.325C-19.703,110.54 -34.825,116.021 -37.777,115.666C-37.777,115.666 -15.557,70.651 -59.736,0.097L-37.777,-11.474Z" style="fill:white;fill-rule:nonzero;"/>
    </g>
    <g transform="matrix(0.901737,-0.432284,-0.432284,-0.901737,2263.78,185.504)">
        <path d="M-27.446,-10.741C-27.446,-10.741 -15.714,23.447 -13.857,59.707C-12,95.967 -27.446,113.02 -27.446,113.02C-27.446,113.02 -35.566,117.134 -49.545,115.962C-49.545,115.962 -20.4,84.69 -50.948,-1.471" style="fill:none;fill-rule:nonzero;stroke:black;stroke-width:3.12px;"/>
    </g>
    <g transform="matrix(0.0831397,0.996538,0.996538,-0.0831397,2234.25,203.81)">
        <path d="M43.75,-40.252C71.354,-40.148 93.77,-20.443 93.789,3.84C93.8,28.023 71.454,47.649 43.75,47.552C16.146,47.447 -6.27,27.742 -6.281,3.559C-6.308,-20.823 16.046,-40.349 43.75,-40.252" style="fill:rgb(252,170,35);fill-rule:nonzero;"/>
    </g>
    <g transform="matrix(0.0831397,0.996538,0.996538,-0.0831397,2234.25,203.81)">
        <path d="M43.75,-40.252C71.354,-40.148 93.77,-20.443 93.789,3.84C93.8,28.023 71.454,47.649 43.75,47.552C16.146,47.447 -6.27,27.742 -6.281,3.559C-6.308,-20.823 16.046,-40.349 43.75,-40.252" style="fill:rgb(249,61,102);fill-rule:nonzero;"/>
    </g>
    <g transform="matrix(-0.979764,-0.200155,-0.200155,0.979764,2189.89,282.663)">
        <path d="M-40.508,-92.895C-40.508,-92.895 0.185,-87.746 -8.229,-40.066C-14.672,-4.026 -40.508,2.536 -40.508,2.536C-40.508,2.536 -10.057,-1.144 -1.907,-37.039C6.741,-74.874 -21.833,-93.877 -40.508,-92.895" style="fill:white;fill-rule:nonzero;"/>
    </g>
    <g transform="matrix(1,0,0,1,2254.38,286.655)">
        <path d="M0,-86.5C0,-86.5 -45.699,-96 -48.1,-43.7C-50.3,3.8 -16.7,9.5 -16.7,9.5" style="fill:none;fill-rule:nonzero;stroke:black;stroke-width:3.12px;"/>
    </g>
    <g transform="matrix(1,0,0,1,2216.28,280.955)">
        <path d="M0,-27C0,-27 -1.5,-19 3.8,-10C8.2,-2.6 13.1,0 13.1,0" style="fill:none;fill-rule:nonzero;stroke:white;stroke-width:2px;"/>
    </g>
    <g transform="matrix(-0.0362622,-0.999342,-0.999342,0.0362622,889.728,575.397)">
        <path d="M-46.85,-48.581C-76.171,-48.618 -100.026,-27.639 -99.986,-1.723C-99.946,24.192 -76.267,45.248 -46.85,45.181C-17.529,45.218 6.326,24.239 6.286,-1.677C6.246,-27.592 -17.529,-48.543 -46.85,-48.581" style="fill:rgb(249,61,102);fill-rule:nonzero;"/>
    </g>
    <g transform="matrix(-0.0362622,-0.999342,-0.999342,0.0362622,889.728,575.397)">
        <path d="M-46.85,-48.581C-76.171,-48.618 -100.026,-27.639 -99.986,-1.723C-99.946,24.192 -76.267,45.248 -46.85,45.181C-17.529,45.218 6.326,24.239 6.286,-1.677C6.246,-27.592 -17.529,-48.543 -46.85,-48.581Z" style="fill:none;fill-rule:nonzero;stroke:black;stroke-width:3.12px;"/>
    </g>
    <g transform="matrix(-0.946995,0.321249,0.321249,0.946995,954.298,648.442)">
        <path d="M46.481,-95.269C46.481,-95.269 3.029,-89.505 11.994,-38.797C18.87,-0.475 46.481,6.21 46.481,6.21C46.481,6.21 13.984,2.555 5.181,-35.536C-4.013,-75.712 26.428,-96.175 46.481,-95.269" style="fill:white;fill-rule:nonzero;"/>
    </g>
    <g transform="matrix(1,0,0,1,873.176,657.955)">
        <path d="M0,-83.6C0,-83.6 48.199,-99.2 57.699,-44.3C66.3,5.5 30.399,15.6 30.399,15.6" style="fill:none;fill-rule:nonzero;stroke:black;stroke-width:3.12px;"/>
    </g>
    <g transform="matrix(1,0,0,1,912.875,647.855)">
        <path d="M0,-55.3C0,-55.3 10.5,-44 11.2,-24.7C11.801,-8.7 6.601,0 6.601,0" style="fill:none;fill-rule:nonzero;stroke:white;stroke-width:2px;"/>
    </g>
    <g transform="matrix(0,1,1,0,903.126,2177.41)">
        <path d="M-117.751,83.851L-94.751,83.851C-94.751,83.851 -83.851,71.351 -83.851,-16.95C-83.851,-105.251 -94.751,-117.751 -94.751,-117.751L-117.751,-117.751" style="fill:none;fill-rule:nonzero;stroke:black;stroke-width:4px;"/>
    </g>
</svg>
